<svg width="500" height="439" viewBox="0 0 500 439" fill="none" xmlns="http://www.w3.org/2000/svg">
<mask id="path-1-inside-1" fill="white">
<path d="M335.012 103.072H328.843V107.532H335.012V114.505H339.712V107.532H345.898V103.072H339.712V96.3896H335.012V103.072Z"/>
<path d="M298.474 103.072H292.305V107.532H298.474V114.505H303.174V107.532H309.36V103.072H303.174V96.3896H298.474V103.072Z"/>
<path d="M261.936 103.072H255.767V107.532H261.936V114.505H266.636V107.532H272.822V103.072H266.636V96.3896H261.936V103.072Z"/>
<path d="M225.398 103.072H219.229V107.532H225.398V114.505H230.098V107.532H236.284V103.072H230.098V96.3896H225.398V103.072Z"/>
<path d="M188.86 103.072H182.69V107.532H188.86V114.505H193.56V107.532H199.746V103.072H193.56V96.3896H188.86V103.072Z"/>
<path d="M152.322 103.072H146.152V107.532H152.322V114.505H157.021V107.532H163.208V103.072H157.021V96.3896H152.322V103.072Z"/>
<path d="M115.784 103.072H109.614V107.532H115.784V114.505H120.483V107.532H126.67V103.072H120.483V96.3896H115.784V103.072Z"/>
<path d="M79.2456 103.072H73.0762V107.532H79.2456V114.505H83.9453V107.532H90.1318V103.072H83.9453V96.3896H79.2456V103.072Z"/>
<path d="M42.7075 103.072H36.5381V107.532H42.7075V114.505H47.4072V107.532H53.5938V103.072H47.4072V96.3896H42.7075V103.072Z"/>
<path d="M6.16943 103.072H0V107.532H6.16943V114.505H10.8691V107.532H17.0557V103.072H10.8691V96.3896H6.16943V103.072Z"/>
<path d="M335.012 144.072H328.843V148.532H335.012V155.505H339.712V148.532H345.898V144.072H339.712V137.39H335.012V144.072Z"/>
<path d="M298.474 144.072H292.305V148.532H298.474V155.505H303.174V148.532H309.36V144.072H303.174V137.39H298.474V144.072Z"/>
<path d="M261.936 144.072H255.767V148.532H261.936V155.505H266.636V148.532H272.822V144.072H266.636V137.39H261.936V144.072Z"/>
<path d="M225.398 144.072H219.229V148.532H225.398V155.505H230.098V148.532H236.284V144.072H230.098V137.39H225.398V144.072Z"/>
<path d="M188.86 144.072H182.69V148.532H188.86V155.505H193.56V148.532H199.746V144.072H193.56V137.39H188.86V144.072Z"/>
<path d="M152.322 144.072H146.152V148.532H152.322V155.505H157.021V148.532H163.208V144.072H157.021V137.39H152.322V144.072Z"/>
<path d="M115.784 144.072H109.614V148.532H115.784V155.505H120.483V148.532H126.67V144.072H120.483V137.39H115.784V144.072Z"/>
<path d="M79.2456 144.072H73.0762V148.532H79.2456V155.505H83.9453V148.532H90.1318V144.072H83.9453V137.39H79.2456V144.072Z"/>
<path d="M42.7075 144.072H36.5381V148.532H42.7075V155.505H47.4072V148.532H53.5938V144.072H47.4072V137.39H42.7075V144.072Z"/>
<path d="M6.16943 144.072H0V148.532H6.16943V155.505H10.8691V148.532H17.0557V144.072H10.8691V137.39H6.16943V144.072Z"/>
<path d="M335.012 185.072H328.843V189.532H335.012V196.505H339.712V189.532H345.898V185.072H339.712V178.39H335.012V185.072Z"/>
<path d="M298.474 185.072H292.305V189.532H298.474V196.505H303.174V189.532H309.36V185.072H303.174V178.39H298.474V185.072Z"/>
<path d="M261.936 185.072H255.767V189.532H261.936V196.505H266.636V189.532H272.822V185.072H266.636V178.39H261.936V185.072Z"/>
<path d="M225.398 185.072H219.229V189.532H225.398V196.505H230.098V189.532H236.284V185.072H230.098V178.39H225.398V185.072Z"/>
<path d="M188.86 185.072H182.69V189.532H188.86V196.505H193.56V189.532H199.746V185.072H193.56V178.39H188.86V185.072Z"/>
<path d="M152.322 185.072H146.152V189.532H152.322V196.505H157.021V189.532H163.208V185.072H157.021V178.39H152.322V185.072Z"/>
<path d="M115.784 185.072H109.614V189.532H115.784V196.505H120.483V189.532H126.67V185.072H120.483V178.39H115.784V185.072Z"/>
<path d="M79.2456 185.072H73.0762V189.532H79.2456V196.505H83.9453V189.532H90.1318V185.072H83.9453V178.39H79.2456V185.072Z"/>
<path d="M42.7075 185.072H36.5381V189.532H42.7075V196.505H47.4072V189.532H53.5938V185.072H47.4072V178.39H42.7075V185.072Z"/>
<path d="M6.16943 185.072H0V189.532H6.16943V196.505H10.8691V189.532H17.0557V185.072H10.8691V178.39H6.16943V185.072Z"/>
<path d="M335.012 226.072H328.843V230.532H335.012V237.505H339.712V230.532H345.898V226.072H339.712V219.39H335.012V226.072Z"/>
<path d="M298.474 226.072H292.305V230.532H298.474V237.505H303.174V230.532H309.36V226.072H303.174V219.39H298.474V226.072Z"/>
<path d="M261.936 226.072H255.767V230.532H261.936V237.505H266.636V230.532H272.822V226.072H266.636V219.39H261.936V226.072Z"/>
<path d="M225.398 226.072H219.229V230.532H225.398V237.505H230.098V230.532H236.284V226.072H230.098V219.39H225.398V226.072Z"/>
<path d="M188.86 226.072H182.69V230.532H188.86V237.505H193.56V230.532H199.746V226.072H193.56V219.39H188.86V226.072Z"/>
<path d="M152.322 226.072H146.152V230.532H152.322V237.505H157.021V230.532H163.208V226.072H157.021V219.39H152.322V226.072Z"/>
<path d="M115.784 226.072H109.614V230.532H115.784V237.505H120.483V230.532H126.67V226.072H120.483V219.39H115.784V226.072Z"/>
<path d="M79.2456 226.072H73.0762V230.532H79.2456V237.505H83.9453V230.532H90.1318V226.072H83.9453V219.39H79.2456V226.072Z"/>
<path d="M42.7075 226.072H36.5381V230.532H42.7075V237.505H47.4072V230.532H53.5938V226.072H47.4072V219.39H42.7075V226.072Z"/>
<path d="M6.16943 226.072H0V230.532H6.16943V237.505H10.8691V230.532H17.0557V226.072H10.8691V219.39H6.16943V226.072Z"/>
<path d="M335.012 267.072H328.843V271.532H335.012V278.505H339.712V271.532H345.898V267.072H339.712V260.39H335.012V267.072Z"/>
<path d="M298.474 267.072H292.305V271.532H298.474V278.505H303.174V271.532H309.36V267.072H303.174V260.39H298.474V267.072Z"/>
<path d="M261.936 267.072H255.767V271.532H261.936V278.505H266.636V271.532H272.822V267.072H266.636V260.39H261.936V267.072Z"/>
<path d="M225.398 267.072H219.229V271.532H225.398V278.505H230.098V271.532H236.284V267.072H230.098V260.39H225.398V267.072Z"/>
<path d="M188.86 267.072H182.69V271.532H188.86V278.505H193.56V271.532H199.746V267.072H193.56V260.39H188.86V267.072Z"/>
<path d="M152.322 267.072H146.152V271.532H152.322V278.505H157.021V271.532H163.208V267.072H157.021V260.39H152.322V267.072Z"/>
<path d="M115.784 267.072H109.614V271.532H115.784V278.505H120.483V271.532H126.67V267.072H120.483V260.39H115.784V267.072Z"/>
<path d="M79.2456 267.072H73.0762V271.532H79.2456V278.505H83.9453V271.532H90.1318V267.072H83.9453V260.39H79.2456V267.072Z"/>
<path d="M42.7075 267.072H36.5381V271.532H42.7075V278.505H47.4072V271.532H53.5938V267.072H47.4072V260.39H42.7075V267.072Z"/>
<path d="M6.16943 267.072H0V271.532H6.16943V278.505H10.8691V271.532H17.0557V267.072H10.8691V260.39H6.16943V267.072Z"/>
<path d="M335.012 308.072H328.843V312.532H335.012V319.505H339.712V312.532H345.898V308.072H339.712V301.39H335.012V308.072Z"/>
<path d="M298.474 308.072H292.305V312.532H298.474V319.505H303.174V312.532H309.36V308.072H303.174V301.39H298.474V308.072Z"/>
<path d="M261.936 308.072H255.767V312.532H261.936V319.505H266.636V312.532H272.822V308.072H266.636V301.39H261.936V308.072Z"/>
<path d="M225.398 308.072H219.229V312.532H225.398V319.505H230.098V312.532H236.284V308.072H230.098V301.39H225.398V308.072Z"/>
<path d="M188.86 308.072H182.69V312.532H188.86V319.505H193.56V312.532H199.746V308.072H193.56V301.39H188.86V308.072Z"/>
<path d="M152.322 308.072H146.152V312.532H152.322V319.505H157.021V312.532H163.208V308.072H157.021V301.39H152.322V308.072Z"/>
<path d="M115.784 308.072H109.614V312.532H115.784V319.505H120.483V312.532H126.67V308.072H120.483V301.39H115.784V308.072Z"/>
<path d="M79.2456 308.072H73.0762V312.532H79.2456V319.505H83.9453V312.532H90.1318V308.072H83.9453V301.39H79.2456V308.072Z"/>
<path d="M42.7075 308.072H36.5381V312.532H42.7075V319.505H47.4072V312.532H53.5938V308.072H47.4072V301.39H42.7075V308.072Z"/>
<path d="M6.16943 308.072H0V312.532H6.16943V319.505H10.8691V312.532H17.0557V308.072H10.8691V301.39H6.16943V308.072Z"/>
<path d="M335.012 349.072H328.843V353.532H335.012V360.505H339.712V353.532H345.898V349.072H339.712V342.39H335.012V349.072Z"/>
<path d="M298.474 349.072H292.305V353.532H298.474V360.505H303.174V353.532H309.36V349.072H303.174V342.39H298.474V349.072Z"/>
<path d="M261.936 349.072H255.767V353.532H261.936V360.505H266.636V353.532H272.822V349.072H266.636V342.39H261.936V349.072Z"/>
<path d="M225.398 349.072H219.229V353.532H225.398V360.505H230.098V353.532H236.284V349.072H230.098V342.39H225.398V349.072Z"/>
<path d="M188.86 349.072H182.69V353.532H188.86V360.505H193.56V353.532H199.746V349.072H193.56V342.39H188.86V349.072Z"/>
<path d="M152.322 349.072H146.152V353.532H152.322V360.505H157.021V353.532H163.208V349.072H157.021V342.39H152.322V349.072Z"/>
<path d="M115.784 349.072H109.614V353.532H115.784V360.505H120.483V353.532H126.67V349.072H120.483V342.39H115.784V349.072Z"/>
<path d="M79.2456 349.072H73.0762V353.532H79.2456V360.505H83.9453V353.532H90.1318V349.072H83.9453V342.39H79.2456V349.072Z"/>
<path d="M42.7075 349.072H36.5381V353.532H42.7075V360.505H47.4072V353.532H53.5938V349.072H47.4072V342.39H42.7075V349.072Z"/>
<path d="M6.16943 349.072H0V353.532H6.16943V360.505H10.8691V353.532H17.0557V349.072H10.8691V342.39H6.16943V349.072Z"/>
<path d="M335.012 390.072H328.843V394.532H335.012V401.505H339.712V394.532H345.898V390.072H339.712V383.39H335.012V390.072Z"/>
<path d="M298.474 390.072H292.305V394.532H298.474V401.505H303.174V394.532H309.36V390.072H303.174V383.39H298.474V390.072Z"/>
<path d="M261.936 390.072H255.767V394.532H261.936V401.505H266.636V394.532H272.822V390.072H266.636V383.39H261.936V390.072Z"/>
<path d="M225.398 390.072H219.229V394.532H225.398V401.505H230.098V394.532H236.284V390.072H230.098V383.39H225.398V390.072Z"/>
<path d="M188.86 390.072H182.69V394.532H188.86V401.505H193.56V394.532H199.746V390.072H193.56V383.39H188.86V390.072Z"/>
<path d="M152.322 390.072H146.152V394.532H152.322V401.505H157.021V394.532H163.208V390.072H157.021V383.39H152.322V390.072Z"/>
<path d="M115.784 390.072H109.614V394.532H115.784V401.505H120.483V394.532H126.67V390.072H120.483V383.39H115.784V390.072Z"/>
<path d="M79.2456 390.072H73.0762V394.532H79.2456V401.505H83.9453V394.532H90.1318V390.072H83.9453V383.39H79.2456V390.072Z"/>
<path d="M42.7075 390.072H36.5381V394.532H42.7075V401.505H47.4072V394.532H53.5938V390.072H47.4072V383.39H42.7075V390.072Z"/>
<path d="M6.16943 390.072H0V394.532H6.16943V401.505H10.8691V394.532H17.0557V390.072H10.8691V383.39H6.16943V390.072Z"/>
</mask>
<path d="M335.012 103.072H328.843V107.532H335.012V114.505H339.712V107.532H345.898V103.072H339.712V96.3896H335.012V103.072Z" fill="#B3D3EF" fill-opacity="0.2"/>
<path d="M298.474 103.072H292.305V107.532H298.474V114.505H303.174V107.532H309.36V103.072H303.174V96.3896H298.474V103.072Z" fill="#B3D3EF" fill-opacity="0.2"/>
<path d="M261.936 103.072H255.767V107.532H261.936V114.505H266.636V107.532H272.822V103.072H266.636V96.3896H261.936V103.072Z" fill="#B3D3EF" fill-opacity="0.2"/>
<path d="M225.398 103.072H219.229V107.532H225.398V114.505H230.098V107.532H236.284V103.072H230.098V96.3896H225.398V103.072Z" fill="#B3D3EF" fill-opacity="0.2"/>
<path d="M188.86 103.072H182.69V107.532H188.86V114.505H193.56V107.532H199.746V103.072H193.56V96.3896H188.86V103.072Z" fill="#B3D3EF" fill-opacity="0.2"/>
<path d="M152.322 103.072H146.152V107.532H152.322V114.505H157.021V107.532H163.208V103.072H157.021V96.3896H152.322V103.072Z" fill="#B3D3EF" fill-opacity="0.2"/>
<path d="M115.784 103.072H109.614V107.532H115.784V114.505H120.483V107.532H126.67V103.072H120.483V96.3896H115.784V103.072Z" fill="#B3D3EF" fill-opacity="0.2"/>
<path d="M79.2456 103.072H73.0762V107.532H79.2456V114.505H83.9453V107.532H90.1318V103.072H83.9453V96.3896H79.2456V103.072Z" fill="#B3D3EF" fill-opacity="0.2"/>
<path d="M42.7075 103.072H36.5381V107.532H42.7075V114.505H47.4072V107.532H53.5938V103.072H47.4072V96.3896H42.7075V103.072Z" fill="#B3D3EF" fill-opacity="0.2"/>
<path d="M6.16943 103.072H0V107.532H6.16943V114.505H10.8691V107.532H17.0557V103.072H10.8691V96.3896H6.16943V103.072Z" fill="#B3D3EF" fill-opacity="0.2"/>
<path d="M335.012 144.072H328.843V148.532H335.012V155.505H339.712V148.532H345.898V144.072H339.712V137.39H335.012V144.072Z" fill="#B3D3EF" fill-opacity="0.2"/>
<path d="M298.474 144.072H292.305V148.532H298.474V155.505H303.174V148.532H309.36V144.072H303.174V137.39H298.474V144.072Z" fill="#B3D3EF" fill-opacity="0.2"/>
<path d="M261.936 144.072H255.767V148.532H261.936V155.505H266.636V148.532H272.822V144.072H266.636V137.39H261.936V144.072Z" fill="#B3D3EF" fill-opacity="0.2"/>
<path d="M225.398 144.072H219.229V148.532H225.398V155.505H230.098V148.532H236.284V144.072H230.098V137.39H225.398V144.072Z" fill="#B3D3EF" fill-opacity="0.2"/>
<path d="M188.86 144.072H182.69V148.532H188.86V155.505H193.56V148.532H199.746V144.072H193.56V137.39H188.86V144.072Z" fill="#B3D3EF" fill-opacity="0.2"/>
<path d="M152.322 144.072H146.152V148.532H152.322V155.505H157.021V148.532H163.208V144.072H157.021V137.39H152.322V144.072Z" fill="#B3D3EF" fill-opacity="0.2"/>
<path d="M115.784 144.072H109.614V148.532H115.784V155.505H120.483V148.532H126.67V144.072H120.483V137.39H115.784V144.072Z" fill="#B3D3EF" fill-opacity="0.2"/>
<path d="M79.2456 144.072H73.0762V148.532H79.2456V155.505H83.9453V148.532H90.1318V144.072H83.9453V137.39H79.2456V144.072Z" fill="#B3D3EF" fill-opacity="0.2"/>
<path d="M42.7075 144.072H36.5381V148.532H42.7075V155.505H47.4072V148.532H53.5938V144.072H47.4072V137.39H42.7075V144.072Z" fill="#B3D3EF" fill-opacity="0.2"/>
<path d="M6.16943 144.072H0V148.532H6.16943V155.505H10.8691V148.532H17.0557V144.072H10.8691V137.39H6.16943V144.072Z" fill="#B3D3EF" fill-opacity="0.2"/>
<path d="M335.012 185.072H328.843V189.532H335.012V196.505H339.712V189.532H345.898V185.072H339.712V178.39H335.012V185.072Z" fill="#B3D3EF" fill-opacity="0.2"/>
<path d="M298.474 185.072H292.305V189.532H298.474V196.505H303.174V189.532H309.36V185.072H303.174V178.39H298.474V185.072Z" fill="#B3D3EF" fill-opacity="0.2"/>
<path d="M261.936 185.072H255.767V189.532H261.936V196.505H266.636V189.532H272.822V185.072H266.636V178.39H261.936V185.072Z" fill="#B3D3EF" fill-opacity="0.2"/>
<path d="M225.398 185.072H219.229V189.532H225.398V196.505H230.098V189.532H236.284V185.072H230.098V178.39H225.398V185.072Z" fill="#B3D3EF" fill-opacity="0.2"/>
<path d="M188.86 185.072H182.69V189.532H188.86V196.505H193.56V189.532H199.746V185.072H193.56V178.39H188.86V185.072Z" fill="#B3D3EF" fill-opacity="0.2"/>
<path d="M152.322 185.072H146.152V189.532H152.322V196.505H157.021V189.532H163.208V185.072H157.021V178.39H152.322V185.072Z" fill="#B3D3EF" fill-opacity="0.2"/>
<path d="M115.784 185.072H109.614V189.532H115.784V196.505H120.483V189.532H126.67V185.072H120.483V178.39H115.784V185.072Z" fill="#B3D3EF" fill-opacity="0.2"/>
<path d="M79.2456 185.072H73.0762V189.532H79.2456V196.505H83.9453V189.532H90.1318V185.072H83.9453V178.39H79.2456V185.072Z" fill="#B3D3EF" fill-opacity="0.2"/>
<path d="M42.7075 185.072H36.5381V189.532H42.7075V196.505H47.4072V189.532H53.5938V185.072H47.4072V178.39H42.7075V185.072Z" fill="#B3D3EF" fill-opacity="0.2"/>
<path d="M6.16943 185.072H0V189.532H6.16943V196.505H10.8691V189.532H17.0557V185.072H10.8691V178.39H6.16943V185.072Z" fill="#B3D3EF" fill-opacity="0.2"/>
<path d="M335.012 226.072H328.843V230.532H335.012V237.505H339.712V230.532H345.898V226.072H339.712V219.39H335.012V226.072Z" fill="#B3D3EF" fill-opacity="0.2"/>
<path d="M298.474 226.072H292.305V230.532H298.474V237.505H303.174V230.532H309.36V226.072H303.174V219.39H298.474V226.072Z" fill="#B3D3EF" fill-opacity="0.2"/>
<path d="M261.936 226.072H255.767V230.532H261.936V237.505H266.636V230.532H272.822V226.072H266.636V219.39H261.936V226.072Z" fill="#B3D3EF" fill-opacity="0.2"/>
<path d="M225.398 226.072H219.229V230.532H225.398V237.505H230.098V230.532H236.284V226.072H230.098V219.39H225.398V226.072Z" fill="#B3D3EF" fill-opacity="0.2"/>
<path d="M188.86 226.072H182.69V230.532H188.86V237.505H193.56V230.532H199.746V226.072H193.56V219.39H188.86V226.072Z" fill="#B3D3EF" fill-opacity="0.2"/>
<path d="M152.322 226.072H146.152V230.532H152.322V237.505H157.021V230.532H163.208V226.072H157.021V219.39H152.322V226.072Z" fill="#B3D3EF" fill-opacity="0.2"/>
<path d="M115.784 226.072H109.614V230.532H115.784V237.505H120.483V230.532H126.67V226.072H120.483V219.39H115.784V226.072Z" fill="#B3D3EF" fill-opacity="0.2"/>
<path d="M79.2456 226.072H73.0762V230.532H79.2456V237.505H83.9453V230.532H90.1318V226.072H83.9453V219.39H79.2456V226.072Z" fill="#B3D3EF" fill-opacity="0.2"/>
<path d="M42.7075 226.072H36.5381V230.532H42.7075V237.505H47.4072V230.532H53.5938V226.072H47.4072V219.39H42.7075V226.072Z" fill="#B3D3EF" fill-opacity="0.2"/>
<path d="M6.16943 226.072H0V230.532H6.16943V237.505H10.8691V230.532H17.0557V226.072H10.8691V219.39H6.16943V226.072Z" fill="#B3D3EF" fill-opacity="0.2"/>
<path d="M335.012 267.072H328.843V271.532H335.012V278.505H339.712V271.532H345.898V267.072H339.712V260.39H335.012V267.072Z" fill="#B3D3EF" fill-opacity="0.2"/>
<path d="M298.474 267.072H292.305V271.532H298.474V278.505H303.174V271.532H309.36V267.072H303.174V260.39H298.474V267.072Z" fill="#B3D3EF" fill-opacity="0.2"/>
<path d="M261.936 267.072H255.767V271.532H261.936V278.505H266.636V271.532H272.822V267.072H266.636V260.39H261.936V267.072Z" fill="#B3D3EF" fill-opacity="0.2"/>
<path d="M225.398 267.072H219.229V271.532H225.398V278.505H230.098V271.532H236.284V267.072H230.098V260.39H225.398V267.072Z" fill="#B3D3EF" fill-opacity="0.2"/>
<path d="M188.86 267.072H182.69V271.532H188.86V278.505H193.56V271.532H199.746V267.072H193.56V260.39H188.86V267.072Z" fill="#B3D3EF" fill-opacity="0.2"/>
<path d="M152.322 267.072H146.152V271.532H152.322V278.505H157.021V271.532H163.208V267.072H157.021V260.39H152.322V267.072Z" fill="#B3D3EF" fill-opacity="0.2"/>
<path d="M115.784 267.072H109.614V271.532H115.784V278.505H120.483V271.532H126.67V267.072H120.483V260.39H115.784V267.072Z" fill="#B3D3EF" fill-opacity="0.2"/>
<path d="M79.2456 267.072H73.0762V271.532H79.2456V278.505H83.9453V271.532H90.1318V267.072H83.9453V260.39H79.2456V267.072Z" fill="#B3D3EF" fill-opacity="0.2"/>
<path d="M42.7075 267.072H36.5381V271.532H42.7075V278.505H47.4072V271.532H53.5938V267.072H47.4072V260.39H42.7075V267.072Z" fill="#B3D3EF" fill-opacity="0.2"/>
<path d="M6.16943 267.072H0V271.532H6.16943V278.505H10.8691V271.532H17.0557V267.072H10.8691V260.39H6.16943V267.072Z" fill="#B3D3EF" fill-opacity="0.2"/>
<path d="M335.012 308.072H328.843V312.532H335.012V319.505H339.712V312.532H345.898V308.072H339.712V301.39H335.012V308.072Z" fill="#B3D3EF" fill-opacity="0.2"/>
<path d="M298.474 308.072H292.305V312.532H298.474V319.505H303.174V312.532H309.36V308.072H303.174V301.39H298.474V308.072Z" fill="#B3D3EF" fill-opacity="0.2"/>
<path d="M261.936 308.072H255.767V312.532H261.936V319.505H266.636V312.532H272.822V308.072H266.636V301.39H261.936V308.072Z" fill="#B3D3EF" fill-opacity="0.2"/>
<path d="M225.398 308.072H219.229V312.532H225.398V319.505H230.098V312.532H236.284V308.072H230.098V301.39H225.398V308.072Z" fill="#B3D3EF" fill-opacity="0.2"/>
<path d="M188.86 308.072H182.69V312.532H188.86V319.505H193.56V312.532H199.746V308.072H193.56V301.39H188.86V308.072Z" fill="#B3D3EF" fill-opacity="0.2"/>
<path d="M152.322 308.072H146.152V312.532H152.322V319.505H157.021V312.532H163.208V308.072H157.021V301.39H152.322V308.072Z" fill="#B3D3EF" fill-opacity="0.2"/>
<path d="M115.784 308.072H109.614V312.532H115.784V319.505H120.483V312.532H126.67V308.072H120.483V301.39H115.784V308.072Z" fill="#B3D3EF" fill-opacity="0.2"/>
<path d="M79.2456 308.072H73.0762V312.532H79.2456V319.505H83.9453V312.532H90.1318V308.072H83.9453V301.39H79.2456V308.072Z" fill="#B3D3EF" fill-opacity="0.2"/>
<path d="M42.7075 308.072H36.5381V312.532H42.7075V319.505H47.4072V312.532H53.5938V308.072H47.4072V301.39H42.7075V308.072Z" fill="#B3D3EF" fill-opacity="0.2"/>
<path d="M6.16943 308.072H0V312.532H6.16943V319.505H10.8691V312.532H17.0557V308.072H10.8691V301.39H6.16943V308.072Z" fill="#B3D3EF" fill-opacity="0.2"/>
<path d="M335.012 349.072H328.843V353.532H335.012V360.505H339.712V353.532H345.898V349.072H339.712V342.39H335.012V349.072Z" fill="#B3D3EF" fill-opacity="0.2"/>
<path d="M298.474 349.072H292.305V353.532H298.474V360.505H303.174V353.532H309.36V349.072H303.174V342.39H298.474V349.072Z" fill="#B3D3EF" fill-opacity="0.2"/>
<path d="M261.936 349.072H255.767V353.532H261.936V360.505H266.636V353.532H272.822V349.072H266.636V342.39H261.936V349.072Z" fill="#B3D3EF" fill-opacity="0.2"/>
<path d="M225.398 349.072H219.229V353.532H225.398V360.505H230.098V353.532H236.284V349.072H230.098V342.39H225.398V349.072Z" fill="#B3D3EF" fill-opacity="0.2"/>
<path d="M188.86 349.072H182.69V353.532H188.86V360.505H193.56V353.532H199.746V349.072H193.56V342.39H188.86V349.072Z" fill="#B3D3EF" fill-opacity="0.2"/>
<path d="M152.322 349.072H146.152V353.532H152.322V360.505H157.021V353.532H163.208V349.072H157.021V342.39H152.322V349.072Z" fill="#B3D3EF" fill-opacity="0.2"/>
<path d="M115.784 349.072H109.614V353.532H115.784V360.505H120.483V353.532H126.67V349.072H120.483V342.39H115.784V349.072Z" fill="#B3D3EF" fill-opacity="0.2"/>
<path d="M79.2456 349.072H73.0762V353.532H79.2456V360.505H83.9453V353.532H90.1318V349.072H83.9453V342.39H79.2456V349.072Z" fill="#B3D3EF" fill-opacity="0.2"/>
<path d="M42.7075 349.072H36.5381V353.532H42.7075V360.505H47.4072V353.532H53.5938V349.072H47.4072V342.39H42.7075V349.072Z" fill="#B3D3EF" fill-opacity="0.2"/>
<path d="M6.16943 349.072H0V353.532H6.16943V360.505H10.8691V353.532H17.0557V349.072H10.8691V342.39H6.16943V349.072Z" fill="#B3D3EF" fill-opacity="0.2"/>
<path d="M335.012 390.072H328.843V394.532H335.012V401.505H339.712V394.532H345.898V390.072H339.712V383.39H335.012V390.072Z" fill="#B3D3EF" fill-opacity="0.2"/>
<path d="M298.474 390.072H292.305V394.532H298.474V401.505H303.174V394.532H309.36V390.072H303.174V383.39H298.474V390.072Z" fill="#B3D3EF" fill-opacity="0.2"/>
<path d="M261.936 390.072H255.767V394.532H261.936V401.505H266.636V394.532H272.822V390.072H266.636V383.39H261.936V390.072Z" fill="#B3D3EF" fill-opacity="0.2"/>
<path d="M225.398 390.072H219.229V394.532H225.398V401.505H230.098V394.532H236.284V390.072H230.098V383.39H225.398V390.072Z" fill="#B3D3EF" fill-opacity="0.2"/>
<path d="M188.86 390.072H182.69V394.532H188.86V401.505H193.56V394.532H199.746V390.072H193.56V383.39H188.86V390.072Z" fill="#B3D3EF" fill-opacity="0.2"/>
<path d="M152.322 390.072H146.152V394.532H152.322V401.505H157.021V394.532H163.208V390.072H157.021V383.39H152.322V390.072Z" fill="#B3D3EF" fill-opacity="0.2"/>
<path d="M115.784 390.072H109.614V394.532H115.784V401.505H120.483V394.532H126.67V390.072H120.483V383.39H115.784V390.072Z" fill="#B3D3EF" fill-opacity="0.2"/>
<path d="M79.2456 390.072H73.0762V394.532H79.2456V401.505H83.9453V394.532H90.1318V390.072H83.9453V383.39H79.2456V390.072Z" fill="#B3D3EF" fill-opacity="0.2"/>
<path d="M42.7075 390.072H36.5381V394.532H42.7075V401.505H47.4072V394.532H53.5938V390.072H47.4072V383.39H42.7075V390.072Z" fill="#B3D3EF" fill-opacity="0.2"/>
<path d="M6.16943 390.072H0V394.532H6.16943V401.505H10.8691V394.532H17.0557V390.072H10.8691V383.39H6.16943V390.072Z" fill="#B3D3EF" fill-opacity="0.2"/>
<path d="M335.012 103.072H328.843V107.532H335.012V114.505H339.712V107.532H345.898V103.072H339.712V96.3896H335.012V103.072Z" stroke="white" stroke-width="2" mask="url(#path-1-inside-1)"/>
<path d="M298.474 103.072H292.305V107.532H298.474V114.505H303.174V107.532H309.36V103.072H303.174V96.3896H298.474V103.072Z" stroke="white" stroke-width="2" mask="url(#path-1-inside-1)"/>
<path d="M261.936 103.072H255.767V107.532H261.936V114.505H266.636V107.532H272.822V103.072H266.636V96.3896H261.936V103.072Z" stroke="white" stroke-width="2" mask="url(#path-1-inside-1)"/>
<path d="M225.398 103.072H219.229V107.532H225.398V114.505H230.098V107.532H236.284V103.072H230.098V96.3896H225.398V103.072Z" stroke="white" stroke-width="2" mask="url(#path-1-inside-1)"/>
<path d="M188.86 103.072H182.69V107.532H188.86V114.505H193.56V107.532H199.746V103.072H193.56V96.3896H188.86V103.072Z" stroke="white" stroke-width="2" mask="url(#path-1-inside-1)"/>
<path d="M152.322 103.072H146.152V107.532H152.322V114.505H157.021V107.532H163.208V103.072H157.021V96.3896H152.322V103.072Z" stroke="white" stroke-width="2" mask="url(#path-1-inside-1)"/>
<path d="M115.784 103.072H109.614V107.532H115.784V114.505H120.483V107.532H126.67V103.072H120.483V96.3896H115.784V103.072Z" stroke="white" stroke-width="2" mask="url(#path-1-inside-1)"/>
<path d="M79.2456 103.072H73.0762V107.532H79.2456V114.505H83.9453V107.532H90.1318V103.072H83.9453V96.3896H79.2456V103.072Z" stroke="white" stroke-width="2" mask="url(#path-1-inside-1)"/>
<path d="M42.7075 103.072H36.5381V107.532H42.7075V114.505H47.4072V107.532H53.5938V103.072H47.4072V96.3896H42.7075V103.072Z" stroke="white" stroke-width="2" mask="url(#path-1-inside-1)"/>
<path d="M6.16943 103.072H0V107.532H6.16943V114.505H10.8691V107.532H17.0557V103.072H10.8691V96.3896H6.16943V103.072Z" stroke="white" stroke-width="2" mask="url(#path-1-inside-1)"/>
<path d="M335.012 144.072H328.843V148.532H335.012V155.505H339.712V148.532H345.898V144.072H339.712V137.39H335.012V144.072Z" stroke="white" stroke-width="2" mask="url(#path-1-inside-1)"/>
<path d="M298.474 144.072H292.305V148.532H298.474V155.505H303.174V148.532H309.36V144.072H303.174V137.39H298.474V144.072Z" stroke="white" stroke-width="2" mask="url(#path-1-inside-1)"/>
<path d="M261.936 144.072H255.767V148.532H261.936V155.505H266.636V148.532H272.822V144.072H266.636V137.39H261.936V144.072Z" stroke="white" stroke-width="2" mask="url(#path-1-inside-1)"/>
<path d="M225.398 144.072H219.229V148.532H225.398V155.505H230.098V148.532H236.284V144.072H230.098V137.39H225.398V144.072Z" stroke="white" stroke-width="2" mask="url(#path-1-inside-1)"/>
<path d="M188.86 144.072H182.69V148.532H188.86V155.505H193.56V148.532H199.746V144.072H193.56V137.39H188.86V144.072Z" stroke="white" stroke-width="2" mask="url(#path-1-inside-1)"/>
<path d="M152.322 144.072H146.152V148.532H152.322V155.505H157.021V148.532H163.208V144.072H157.021V137.39H152.322V144.072Z" stroke="white" stroke-width="2" mask="url(#path-1-inside-1)"/>
<path d="M115.784 144.072H109.614V148.532H115.784V155.505H120.483V148.532H126.67V144.072H120.483V137.39H115.784V144.072Z" stroke="white" stroke-width="2" mask="url(#path-1-inside-1)"/>
<path d="M79.2456 144.072H73.0762V148.532H79.2456V155.505H83.9453V148.532H90.1318V144.072H83.9453V137.39H79.2456V144.072Z" stroke="white" stroke-width="2" mask="url(#path-1-inside-1)"/>
<path d="M42.7075 144.072H36.5381V148.532H42.7075V155.505H47.4072V148.532H53.5938V144.072H47.4072V137.39H42.7075V144.072Z" stroke="white" stroke-width="2" mask="url(#path-1-inside-1)"/>
<path d="M6.16943 144.072H0V148.532H6.16943V155.505H10.8691V148.532H17.0557V144.072H10.8691V137.39H6.16943V144.072Z" stroke="white" stroke-width="2" mask="url(#path-1-inside-1)"/>
<path d="M335.012 185.072H328.843V189.532H335.012V196.505H339.712V189.532H345.898V185.072H339.712V178.39H335.012V185.072Z" stroke="white" stroke-width="2" mask="url(#path-1-inside-1)"/>
<path d="M298.474 185.072H292.305V189.532H298.474V196.505H303.174V189.532H309.36V185.072H303.174V178.39H298.474V185.072Z" stroke="white" stroke-width="2" mask="url(#path-1-inside-1)"/>
<path d="M261.936 185.072H255.767V189.532H261.936V196.505H266.636V189.532H272.822V185.072H266.636V178.39H261.936V185.072Z" stroke="white" stroke-width="2" mask="url(#path-1-inside-1)"/>
<path d="M225.398 185.072H219.229V189.532H225.398V196.505H230.098V189.532H236.284V185.072H230.098V178.39H225.398V185.072Z" stroke="white" stroke-width="2" mask="url(#path-1-inside-1)"/>
<path d="M188.86 185.072H182.69V189.532H188.86V196.505H193.56V189.532H199.746V185.072H193.56V178.39H188.86V185.072Z" stroke="white" stroke-width="2" mask="url(#path-1-inside-1)"/>
<path d="M152.322 185.072H146.152V189.532H152.322V196.505H157.021V189.532H163.208V185.072H157.021V178.39H152.322V185.072Z" stroke="white" stroke-width="2" mask="url(#path-1-inside-1)"/>
<path d="M115.784 185.072H109.614V189.532H115.784V196.505H120.483V189.532H126.67V185.072H120.483V178.39H115.784V185.072Z" stroke="white" stroke-width="2" mask="url(#path-1-inside-1)"/>
<path d="M79.2456 185.072H73.0762V189.532H79.2456V196.505H83.9453V189.532H90.1318V185.072H83.9453V178.39H79.2456V185.072Z" stroke="white" stroke-width="2" mask="url(#path-1-inside-1)"/>
<path d="M42.7075 185.072H36.5381V189.532H42.7075V196.505H47.4072V189.532H53.5938V185.072H47.4072V178.39H42.7075V185.072Z" stroke="white" stroke-width="2" mask="url(#path-1-inside-1)"/>
<path d="M6.16943 185.072H0V189.532H6.16943V196.505H10.8691V189.532H17.0557V185.072H10.8691V178.39H6.16943V185.072Z" stroke="white" stroke-width="2" mask="url(#path-1-inside-1)"/>
<path d="M335.012 226.072H328.843V230.532H335.012V237.505H339.712V230.532H345.898V226.072H339.712V219.39H335.012V226.072Z" stroke="white" stroke-width="2" mask="url(#path-1-inside-1)"/>
<path d="M298.474 226.072H292.305V230.532H298.474V237.505H303.174V230.532H309.36V226.072H303.174V219.39H298.474V226.072Z" stroke="white" stroke-width="2" mask="url(#path-1-inside-1)"/>
<path d="M261.936 226.072H255.767V230.532H261.936V237.505H266.636V230.532H272.822V226.072H266.636V219.39H261.936V226.072Z" stroke="white" stroke-width="2" mask="url(#path-1-inside-1)"/>
<path d="M225.398 226.072H219.229V230.532H225.398V237.505H230.098V230.532H236.284V226.072H230.098V219.39H225.398V226.072Z" stroke="white" stroke-width="2" mask="url(#path-1-inside-1)"/>
<path d="M188.86 226.072H182.69V230.532H188.86V237.505H193.56V230.532H199.746V226.072H193.56V219.39H188.86V226.072Z" stroke="white" stroke-width="2" mask="url(#path-1-inside-1)"/>
<path d="M152.322 226.072H146.152V230.532H152.322V237.505H157.021V230.532H163.208V226.072H157.021V219.39H152.322V226.072Z" stroke="white" stroke-width="2" mask="url(#path-1-inside-1)"/>
<path d="M115.784 226.072H109.614V230.532H115.784V237.505H120.483V230.532H126.67V226.072H120.483V219.39H115.784V226.072Z" stroke="white" stroke-width="2" mask="url(#path-1-inside-1)"/>
<path d="M79.2456 226.072H73.0762V230.532H79.2456V237.505H83.9453V230.532H90.1318V226.072H83.9453V219.39H79.2456V226.072Z" stroke="white" stroke-width="2" mask="url(#path-1-inside-1)"/>
<path d="M42.7075 226.072H36.5381V230.532H42.7075V237.505H47.4072V230.532H53.5938V226.072H47.4072V219.39H42.7075V226.072Z" stroke="white" stroke-width="2" mask="url(#path-1-inside-1)"/>
<path d="M6.16943 226.072H0V230.532H6.16943V237.505H10.8691V230.532H17.0557V226.072H10.8691V219.39H6.16943V226.072Z" stroke="white" stroke-width="2" mask="url(#path-1-inside-1)"/>
<path d="M335.012 267.072H328.843V271.532H335.012V278.505H339.712V271.532H345.898V267.072H339.712V260.39H335.012V267.072Z" stroke="white" stroke-width="2" mask="url(#path-1-inside-1)"/>
<path d="M298.474 267.072H292.305V271.532H298.474V278.505H303.174V271.532H309.36V267.072H303.174V260.39H298.474V267.072Z" stroke="white" stroke-width="2" mask="url(#path-1-inside-1)"/>
<path d="M261.936 267.072H255.767V271.532H261.936V278.505H266.636V271.532H272.822V267.072H266.636V260.39H261.936V267.072Z" stroke="white" stroke-width="2" mask="url(#path-1-inside-1)"/>
<path d="M225.398 267.072H219.229V271.532H225.398V278.505H230.098V271.532H236.284V267.072H230.098V260.39H225.398V267.072Z" stroke="white" stroke-width="2" mask="url(#path-1-inside-1)"/>
<path d="M188.86 267.072H182.69V271.532H188.86V278.505H193.56V271.532H199.746V267.072H193.56V260.39H188.86V267.072Z" stroke="white" stroke-width="2" mask="url(#path-1-inside-1)"/>
<path d="M152.322 267.072H146.152V271.532H152.322V278.505H157.021V271.532H163.208V267.072H157.021V260.39H152.322V267.072Z" stroke="white" stroke-width="2" mask="url(#path-1-inside-1)"/>
<path d="M115.784 267.072H109.614V271.532H115.784V278.505H120.483V271.532H126.67V267.072H120.483V260.39H115.784V267.072Z" stroke="white" stroke-width="2" mask="url(#path-1-inside-1)"/>
<path d="M79.2456 267.072H73.0762V271.532H79.2456V278.505H83.9453V271.532H90.1318V267.072H83.9453V260.39H79.2456V267.072Z" stroke="white" stroke-width="2" mask="url(#path-1-inside-1)"/>
<path d="M42.7075 267.072H36.5381V271.532H42.7075V278.505H47.4072V271.532H53.5938V267.072H47.4072V260.39H42.7075V267.072Z" stroke="white" stroke-width="2" mask="url(#path-1-inside-1)"/>
<path d="M6.16943 267.072H0V271.532H6.16943V278.505H10.8691V271.532H17.0557V267.072H10.8691V260.39H6.16943V267.072Z" stroke="white" stroke-width="2" mask="url(#path-1-inside-1)"/>
<path d="M335.012 308.072H328.843V312.532H335.012V319.505H339.712V312.532H345.898V308.072H339.712V301.39H335.012V308.072Z" stroke="white" stroke-width="2" mask="url(#path-1-inside-1)"/>
<path d="M298.474 308.072H292.305V312.532H298.474V319.505H303.174V312.532H309.36V308.072H303.174V301.39H298.474V308.072Z" stroke="white" stroke-width="2" mask="url(#path-1-inside-1)"/>
<path d="M261.936 308.072H255.767V312.532H261.936V319.505H266.636V312.532H272.822V308.072H266.636V301.39H261.936V308.072Z" stroke="white" stroke-width="2" mask="url(#path-1-inside-1)"/>
<path d="M225.398 308.072H219.229V312.532H225.398V319.505H230.098V312.532H236.284V308.072H230.098V301.39H225.398V308.072Z" stroke="white" stroke-width="2" mask="url(#path-1-inside-1)"/>
<path d="M188.86 308.072H182.69V312.532H188.86V319.505H193.56V312.532H199.746V308.072H193.56V301.39H188.86V308.072Z" stroke="white" stroke-width="2" mask="url(#path-1-inside-1)"/>
<path d="M152.322 308.072H146.152V312.532H152.322V319.505H157.021V312.532H163.208V308.072H157.021V301.39H152.322V308.072Z" stroke="white" stroke-width="2" mask="url(#path-1-inside-1)"/>
<path d="M115.784 308.072H109.614V312.532H115.784V319.505H120.483V312.532H126.67V308.072H120.483V301.39H115.784V308.072Z" stroke="white" stroke-width="2" mask="url(#path-1-inside-1)"/>
<path d="M79.2456 308.072H73.0762V312.532H79.2456V319.505H83.9453V312.532H90.1318V308.072H83.9453V301.39H79.2456V308.072Z" stroke="white" stroke-width="2" mask="url(#path-1-inside-1)"/>
<path d="M42.7075 308.072H36.5381V312.532H42.7075V319.505H47.4072V312.532H53.5938V308.072H47.4072V301.39H42.7075V308.072Z" stroke="white" stroke-width="2" mask="url(#path-1-inside-1)"/>
<path d="M6.16943 308.072H0V312.532H6.16943V319.505H10.8691V312.532H17.0557V308.072H10.8691V301.39H6.16943V308.072Z" stroke="white" stroke-width="2" mask="url(#path-1-inside-1)"/>
<path d="M335.012 349.072H328.843V353.532H335.012V360.505H339.712V353.532H345.898V349.072H339.712V342.39H335.012V349.072Z" stroke="white" stroke-width="2" mask="url(#path-1-inside-1)"/>
<path d="M298.474 349.072H292.305V353.532H298.474V360.505H303.174V353.532H309.36V349.072H303.174V342.39H298.474V349.072Z" stroke="white" stroke-width="2" mask="url(#path-1-inside-1)"/>
<path d="M261.936 349.072H255.767V353.532H261.936V360.505H266.636V353.532H272.822V349.072H266.636V342.39H261.936V349.072Z" stroke="white" stroke-width="2" mask="url(#path-1-inside-1)"/>
<path d="M225.398 349.072H219.229V353.532H225.398V360.505H230.098V353.532H236.284V349.072H230.098V342.39H225.398V349.072Z" stroke="white" stroke-width="2" mask="url(#path-1-inside-1)"/>
<path d="M188.86 349.072H182.69V353.532H188.86V360.505H193.56V353.532H199.746V349.072H193.56V342.39H188.86V349.072Z" stroke="white" stroke-width="2" mask="url(#path-1-inside-1)"/>
<path d="M152.322 349.072H146.152V353.532H152.322V360.505H157.021V353.532H163.208V349.072H157.021V342.39H152.322V349.072Z" stroke="white" stroke-width="2" mask="url(#path-1-inside-1)"/>
<path d="M115.784 349.072H109.614V353.532H115.784V360.505H120.483V353.532H126.67V349.072H120.483V342.39H115.784V349.072Z" stroke="white" stroke-width="2" mask="url(#path-1-inside-1)"/>
<path d="M79.2456 349.072H73.0762V353.532H79.2456V360.505H83.9453V353.532H90.1318V349.072H83.9453V342.39H79.2456V349.072Z" stroke="white" stroke-width="2" mask="url(#path-1-inside-1)"/>
<path d="M42.7075 349.072H36.5381V353.532H42.7075V360.505H47.4072V353.532H53.5938V349.072H47.4072V342.39H42.7075V349.072Z" stroke="white" stroke-width="2" mask="url(#path-1-inside-1)"/>
<path d="M6.16943 349.072H0V353.532H6.16943V360.505H10.8691V353.532H17.0557V349.072H10.8691V342.39H6.16943V349.072Z" stroke="white" stroke-width="2" mask="url(#path-1-inside-1)"/>
<path d="M335.012 390.072H328.843V394.532H335.012V401.505H339.712V394.532H345.898V390.072H339.712V383.39H335.012V390.072Z" stroke="white" stroke-width="2" mask="url(#path-1-inside-1)"/>
<path d="M298.474 390.072H292.305V394.532H298.474V401.505H303.174V394.532H309.36V390.072H303.174V383.39H298.474V390.072Z" stroke="white" stroke-width="2" mask="url(#path-1-inside-1)"/>
<path d="M261.936 390.072H255.767V394.532H261.936V401.505H266.636V394.532H272.822V390.072H266.636V383.39H261.936V390.072Z" stroke="white" stroke-width="2" mask="url(#path-1-inside-1)"/>
<path d="M225.398 390.072H219.229V394.532H225.398V401.505H230.098V394.532H236.284V390.072H230.098V383.39H225.398V390.072Z" stroke="white" stroke-width="2" mask="url(#path-1-inside-1)"/>
<path d="M188.86 390.072H182.69V394.532H188.86V401.505H193.56V394.532H199.746V390.072H193.56V383.39H188.86V390.072Z" stroke="white" stroke-width="2" mask="url(#path-1-inside-1)"/>
<path d="M152.322 390.072H146.152V394.532H152.322V401.505H157.021V394.532H163.208V390.072H157.021V383.39H152.322V390.072Z" stroke="white" stroke-width="2" mask="url(#path-1-inside-1)"/>
<path d="M115.784 390.072H109.614V394.532H115.784V401.505H120.483V394.532H126.67V390.072H120.483V383.39H115.784V390.072Z" stroke="white" stroke-width="2" mask="url(#path-1-inside-1)"/>
<path d="M79.2456 390.072H73.0762V394.532H79.2456V401.505H83.9453V394.532H90.1318V390.072H83.9453V383.39H79.2456V390.072Z" stroke="white" stroke-width="2" mask="url(#path-1-inside-1)"/>
<path d="M42.7075 390.072H36.5381V394.532H42.7075V401.505H47.4072V394.532H53.5938V390.072H47.4072V383.39H42.7075V390.072Z" stroke="white" stroke-width="2" mask="url(#path-1-inside-1)"/>
<path d="M6.16943 390.072H0V394.532H6.16943V401.505H10.8691V394.532H17.0557V390.072H10.8691V383.39H6.16943V390.072Z" stroke="white" stroke-width="2" mask="url(#path-1-inside-1)"/>
<path d="M190.558 201.094L82.5576 263.594L79.0576 267.094L147.058 305.094L324.558 408.094L345.058 420.594C345.058 420.594 351.905 424 357.058 425.594C361.813 427.065 363.101 426.901 367.905 425.594C373.925 423.955 384.558 418.594 384.558 418.594L482.058 362.594C482.058 362.594 490.799 356.797 493.058 353C494.857 349.975 495.291 348.236 493.905 345C492.833 342.5 490.058 340.594 490.058 340.594L239.058 197.094C239.058 197.094 231.634 191.561 226.058 190.094C222.45 189.145 220.278 188.819 216.558 189.094C212.305 189.408 210.031 190.544 206.058 192.094C199.537 194.638 190.558 201.094 190.558 201.094Z" fill="white" stroke="#ECECEC"/>
<path d="M76.5579 281.089C76.5579 281.089 74.2138 275.498 74.5579 272.589C74.9654 269.145 78.8183 265 78.8183 265L345.058 418.089C345.058 418.089 350.996 420.8 355.058 421.589C360.425 422.632 363.668 422.509 369.058 421.589C373.502 420.831 380.058 418.089 380.058 418.089L483.905 357.089C483.905 357.089 489.788 353.37 491.058 349.5C492.551 344.952 486.558 337.5 486.558 337.5C486.558 337.5 495.905 342.5 497.558 345.589C499.545 349.303 500.442 352.533 499.558 357.089C498.68 361.613 493.558 366.589 493.558 366.589L465.558 385.589L423.058 409.589L388.558 428.589C388.558 428.589 377.324 436.171 369.058 437.589C363.669 438.514 360.433 438.59 355.058 437.589C349.71 436.594 342.058 432.589 342.058 432.589L76.5579 281.089Z" fill="#F9F7F7"/>
<path d="M247.558 209.094L122.558 283.094L333.558 405.094L456.558 329.094L247.558 209.094Z" stroke="#F7F7F7"/>
<rect x="421.167" y="399.437" width="25" height="4" rx="2" transform="rotate(-29.1523 421.167 399.437)" fill="#E7E7E7"/>
<path d="M424.048 381.169C423.659 383.526 421.839 385.482 419.083 386.701C416.332 387.919 412.704 388.37 408.86 387.734C405.015 387.098 401.726 385.503 399.514 383.464C397.297 381.422 396.205 378.984 396.595 376.628C396.984 374.272 398.804 372.316 401.56 371.096C404.311 369.878 407.939 369.427 411.783 370.063C415.628 370.699 418.917 372.294 421.129 374.333C423.346 376.375 424.438 378.813 424.048 381.169Z" stroke="#F1F1F1"/>
<path d="M113.974 293.608C114.787 290.78 117.729 287.094 117.729 287.094L122.558 289.808C122.558 289.808 120.015 293.562 119.339 296.323C118.43 300.032 119.875 306.094 119.875 306.094L113.974 302.294C113.974 302.294 113.037 296.865 113.974 293.608Z" fill="white"/>
<path d="M298.974 399.608C299.787 396.78 302.729 393.094 302.729 393.094L307.558 395.808C307.558 395.808 305.015 399.562 304.339 402.323C303.43 406.032 304.875 412.094 304.875 412.094L298.974 408.294C298.974 408.294 298.037 402.865 298.974 399.608Z" fill="white"/>
<ellipse cx="388.216" cy="421.407" rx="3.5" ry="4.5" transform="rotate(59.1263 388.216 421.407)" fill="#E7E7E7"/>
<line x1="299" y1="296.5" x2="403" y2="296.5" stroke="#0051FF"/>
<line x1="178" y1="182.5" x2="280" y2="182.5" stroke="#0051FF"/>
<line x1="403.5" y1="146" x2="403.5" y2="297" stroke="#0051FF"/>
<line x1="279.5" y1="272" x2="279.5" y2="196" stroke="#0051FF"/>
<line x1="178.5" y1="183" x2="178.5" y2="144" stroke="#0051FF"/>
<rect x="337.898" y="1" width="120" height="145" fill="white"/>
<rect x="131" y="51" width="97" height="95" fill="white"/>
<rect x="364.398" y="106.5" width="65" height="22" rx="3.5" stroke="#ABD4F2"/>
<path d="M386.865 119.321C386.865 119.072 386.777 118.882 386.602 118.75C386.426 118.615 386.109 118.475 385.652 118.328C385.195 118.179 384.833 118.032 384.567 117.889C383.84 117.496 383.477 116.967 383.477 116.302C383.477 115.957 383.574 115.649 383.767 115.379C383.963 115.107 384.243 114.895 384.606 114.742C384.973 114.59 385.383 114.514 385.837 114.514C386.294 114.514 386.701 114.597 387.059 114.764C387.416 114.928 387.693 115.161 387.889 115.463C388.088 115.765 388.188 116.107 388.188 116.491H386.87C386.87 116.198 386.777 115.971 386.593 115.81C386.408 115.646 386.149 115.564 385.815 115.564C385.493 115.564 385.242 115.633 385.063 115.771C384.885 115.905 384.795 116.084 384.795 116.307C384.795 116.515 384.899 116.689 385.107 116.83C385.318 116.97 385.627 117.102 386.035 117.225C386.785 117.451 387.331 117.73 387.674 118.064C388.017 118.398 388.188 118.814 388.188 119.312C388.188 119.866 387.979 120.301 387.56 120.618C387.141 120.931 386.577 121.088 385.868 121.088C385.375 121.088 384.927 120.999 384.523 120.82C384.119 120.638 383.81 120.391 383.596 120.077C383.385 119.764 383.279 119.4 383.279 118.987H384.602C384.602 119.693 385.024 120.046 385.868 120.046C386.181 120.046 386.426 119.983 386.602 119.857C386.777 119.729 386.865 119.55 386.865 119.321Z" fill="#ABD4F2"/>
<path d="M394.292 121H392.974V118.258H390.403V121H389.084V114.602H390.403V117.194H392.974V114.602H394.292V121Z" fill="#ABD4F2"/>
<path d="M399.139 119.682H396.828L396.388 121H394.986L397.368 114.602H398.59L400.985 121H399.583L399.139 119.682ZM397.184 118.614H398.783L397.979 116.219L397.184 118.614Z" fill="#ABD4F2"/>
<path d="M403.951 118.658H402.901V121H401.583V114.602H403.96C404.716 114.602 405.299 114.77 405.709 115.107C406.119 115.444 406.324 115.92 406.324 116.535C406.324 116.972 406.229 117.336 406.039 117.629C405.851 117.919 405.565 118.151 405.182 118.324L406.566 120.938V121H405.151L403.951 118.658ZM402.901 117.59H403.964C404.295 117.59 404.552 117.506 404.733 117.339C404.915 117.169 405.006 116.937 405.006 116.641C405.006 116.339 404.919 116.102 404.747 115.929C404.577 115.756 404.314 115.669 403.96 115.669H402.901V117.59Z" fill="#ABD4F2"/>
<path d="M411.18 118.227H408.649V119.941H411.62V121H407.331V114.602H411.611V115.669H408.649V117.194H411.18V118.227Z" fill="#ABD4F2"/>
<path d="M368.305 78.6816H365.994L365.554 80H364.152L366.534 73.6016H367.756L370.151 80H368.749L368.305 78.6816ZM366.35 77.6138H367.949L367.145 75.2188L366.35 77.6138Z" fill="#0051FF"/>
<path d="M374.598 77.3853H372.067V80H370.749V73.6016H374.915V74.6694H372.067V76.3218H374.598V77.3853Z" fill="#0051FF"/>
<path d="M379.529 77.3853H376.998V80H375.679V73.6016H379.845V74.6694H376.998V76.3218H379.529V77.3853Z" fill="#0051FF"/>
<path d="M382.012 80H380.693V73.6016H382.012V80Z" fill="#0051FF"/>
<path d="M384.556 78.9409H387.355V80H383.238V73.6016H384.556V78.9409Z" fill="#0051FF"/>
<path d="M389.518 80H388.199V73.6016H389.518V80Z" fill="#0051FF"/>
<path d="M394.435 78.6816H392.124L391.684 80H390.282L392.664 73.6016H393.886L396.281 80H394.879L394.435 78.6816ZM392.479 77.6138H394.079L393.275 75.2188L392.479 77.6138Z" fill="#0051FF"/>
<path d="M401.167 74.6694H399.208V80H397.889V74.6694H395.956V73.6016H401.167V74.6694Z" fill="#0051FF"/>
<path d="M405.773 77.2271H403.242V78.9409H406.212V80H401.923V73.6016H406.204V74.6694H403.242V76.1943H405.773V77.2271Z" fill="#0051FF"/>
<path d="M414.25 77.8687C414.2 78.5571 413.945 79.0991 413.485 79.4946C413.028 79.8901 412.425 80.0879 411.675 80.0879C410.854 80.0879 410.208 79.8125 409.737 79.2617C409.268 78.708 409.034 77.9492 409.034 76.9854V76.5942C409.034 75.979 409.142 75.437 409.359 74.9683C409.576 74.4995 409.885 74.1406 410.286 73.8916C410.69 73.6396 411.159 73.5137 411.692 73.5137C412.431 73.5137 413.025 73.7114 413.477 74.1069C413.928 74.5024 414.188 75.0576 414.259 75.7725H412.94C412.908 75.3594 412.792 75.0605 412.593 74.876C412.397 74.6885 412.097 74.5947 411.692 74.5947C411.253 74.5947 410.923 74.7529 410.704 75.0693C410.487 75.3828 410.375 75.8706 410.37 76.5327V77.0161C410.37 77.7075 410.474 78.2129 410.682 78.5322C410.893 78.8516 411.224 79.0112 411.675 79.0112C412.082 79.0112 412.385 78.9189 412.584 78.7344C412.787 78.5469 412.902 78.2583 412.932 77.8687H414.25Z" fill="#0051FF"/>
<path d="M420.372 76.9458C420.372 77.5757 420.26 78.1279 420.038 78.6025C419.815 79.0771 419.496 79.4434 419.08 79.7012C418.667 79.959 418.192 80.0879 417.656 80.0879C417.125 80.0879 416.652 79.9604 416.236 79.7056C415.82 79.4507 415.498 79.0874 415.27 78.6157C415.041 78.1411 414.925 77.5962 414.922 76.981V76.6646C414.922 76.0347 415.035 75.481 415.261 75.0034C415.489 74.5229 415.81 74.1553 416.223 73.9004C416.639 73.6426 417.114 73.5137 417.647 73.5137C418.18 73.5137 418.653 73.6426 419.066 73.9004C419.482 74.1553 419.803 74.5229 420.029 75.0034C420.257 75.481 420.372 76.0332 420.372 76.6602V76.9458ZM419.036 76.6558C419.036 75.9849 418.916 75.4751 418.675 75.1265C418.435 74.7778 418.092 74.6035 417.647 74.6035C417.205 74.6035 416.863 74.7764 416.623 75.1221C416.383 75.4648 416.261 75.9688 416.258 76.6338V76.9458C416.258 77.5991 416.378 78.106 416.619 78.4663C416.859 78.8267 417.205 79.0068 417.656 79.0068C418.098 79.0068 418.438 78.834 418.675 78.4883C418.913 78.1396 419.033 77.6328 419.036 76.9678V76.6558Z" fill="#0051FF"/>
<path d="M421.33 80V73.6016H423.298C423.861 73.6016 424.363 73.729 424.806 73.9839C425.251 74.2358 425.598 74.5962 425.847 75.0649C426.096 75.5308 426.221 76.061 426.221 76.6558V76.9502C426.221 77.5449 426.098 78.0737 425.852 78.5366C425.608 78.9995 425.264 79.3584 424.819 79.6133C424.374 79.8682 423.871 79.9971 423.312 80H421.33ZM422.648 74.6694V78.9409H423.285C423.801 78.9409 424.195 78.7725 424.467 78.4355C424.74 78.0986 424.879 77.6167 424.885 76.9897V76.6514C424.885 76.001 424.75 75.5088 424.48 75.1748C424.211 74.8379 423.817 74.6694 423.298 74.6694H422.648Z" fill="#0051FF"/>
<path d="M431.033 77.2271H428.501V78.9409H431.472V80H427.183V73.6016H431.463V74.6694H428.501V76.1943H431.033V77.2271Z" fill="#0051FF"/>
<path d="M279.342 170C286.681 170 292.685 176 292.685 183.333C292.685 190.667 286.681 196.667 279.342 196.667C272.004 196.667 266 190.667 266 183.333C266 176 272.004 170 279.342 170ZM279.342 174C277.141 174 275.34 175.8 275.34 178C275.34 180.2 277.141 182 279.342 182C281.544 182 283.345 180.2 283.345 178C283.345 175.8 281.544 174 279.342 174ZM279.342 193.267C282.545 193.267 285.547 191.667 287.348 189C287.281 186.333 282.011 184.867 279.342 184.867C276.674 184.867 271.404 186.333 271.337 189C273.138 191.667 276.14 193.267 279.342 193.267Z" fill="#0051FF"/>
<line y1="-0.5" x2="145" y2="-0.5" transform="matrix(-4.37114e-08 -1 -1 4.37114e-08 456.898 146)" stroke="#ABD4F2"/>
<line x1="130.5" y1="129" x2="130.5" y2="50" stroke="#ABD4F2"/>
<line y1="-0.5" x2="119" y2="-0.5" transform="matrix(1 0 0 -1 338.898 0)" stroke="#ABD4F2"/>
<line y1="-0.5" x2="96" y2="-0.5" transform="matrix(1 0 0 -1 131 50)" stroke="#ABD4F2"/>
<line y1="-0.5" x2="93" y2="-0.5" transform="matrix(1 0 0 -1 363.898 145)" stroke="#ABD4F2"/>
<line y1="-0.5" x2="67" y2="-0.5" transform="matrix(0 1 1 0 338.898 0)" stroke="#ABD4F2"/>
<path d="M405.008 45.9376C405.008 46.0992 404.944 46.2542 404.829 46.3685C404.715 46.4828 404.56 46.547 404.398 46.547H388.961C388.584 46.5465 388.223 46.3966 387.956 46.13C387.689 45.8635 387.539 45.5021 387.539 45.1251V32.9376C387.539 32.776 387.603 32.621 387.718 32.5067C387.832 32.3924 387.987 32.3282 388.148 32.3282C388.31 32.3282 388.465 32.3924 388.579 32.5067C388.694 32.621 388.758 32.776 388.758 32.9376V45.1251C388.758 45.1789 388.779 45.2305 388.817 45.2686C388.855 45.3067 388.907 45.3281 388.961 45.3282H404.398C404.56 45.3282 404.715 45.3924 404.829 45.5067C404.944 45.621 405.008 45.776 405.008 45.9376ZM408.156 34.8996L408.16 34.8935C408.18 34.862 408.198 34.8288 408.212 34.7941C408.213 34.7916 408.214 34.7891 408.215 34.7866C408.228 34.7523 408.239 34.7168 408.246 34.6806L408.247 34.6747C408.261 34.6006 408.261 34.5245 408.247 34.4505C408.247 34.4484 408.247 34.4464 408.246 34.4446C408.239 34.4084 408.228 34.3729 408.215 34.3386L408.212 34.331C408.198 34.2964 408.18 34.2631 408.16 34.2317L408.156 34.2256C408.133 34.1915 408.107 34.1598 408.079 34.1309L403.204 29.2568C403.089 29.1457 402.935 29.0843 402.776 29.0857C402.616 29.0871 402.463 29.1512 402.35 29.2642C402.237 29.3772 402.173 29.53 402.172 29.6898C402.17 29.8495 402.232 30.0035 402.343 30.1184L406.177 33.9532H401.961C399.664 33.9517 397.431 34.7143 395.615 36.121C393.798 37.5277 392.501 39.4985 391.928 41.7232C391.907 41.801 391.902 41.8821 391.913 41.9619C391.924 42.0417 391.95 42.1185 391.991 42.188C392.031 42.2575 392.085 42.3183 392.149 42.3668C392.214 42.4153 392.287 42.4506 392.365 42.4707C392.443 42.4907 392.524 42.4952 392.604 42.4837C392.683 42.4722 392.76 42.445 392.829 42.4038C392.898 42.3625 392.958 42.308 393.006 42.2433C393.054 42.1786 393.089 42.1051 393.108 42.0269C393.614 40.0641 394.759 38.3252 396.361 37.0842C397.964 35.8432 399.934 35.1705 401.961 35.172H406.177L402.343 39.0068C402.284 39.063 402.238 39.1302 402.206 39.2046C402.174 39.2789 402.157 39.3589 402.157 39.4398C402.156 39.5207 402.171 39.6009 402.202 39.6758C402.233 39.7507 402.278 39.8187 402.335 39.876C402.392 39.9332 402.46 39.9784 402.535 40.0091C402.61 40.0397 402.69 40.0551 402.771 40.0544C402.852 40.0537 402.932 40.0369 403.006 40.005C403.081 39.973 403.148 39.9266 403.204 39.8684L408.079 34.9942C408.107 34.9653 408.133 34.9336 408.156 34.8996V34.8996Z" fill="#ABD4F2" fill-opacity="0.8"/>
<path d="M278.442 288.799L277.066 294.256C278.597 294.667 283.389 296.237 284.146 293.176C284.971 289.916 279.973 289.144 278.442 288.799Z" fill="#E6F4FF"/>
<path d="M276.311 296.983L274.73 303.038C276.595 303.519 282.317 305.429 283.211 301.969C284.105 298.443 278.175 297.464 276.311 296.983Z" fill="#E6F4FF"/>
<path d="M284.7 272.793C271.317 269.358 257.714 277.388 254.276 290.763C250.839 304.137 258.875 317.732 272.258 321.167C285.641 324.602 299.245 316.572 302.682 303.198C306.185 289.891 298.084 276.229 284.7 272.793ZM289.547 293.498C289.194 295.962 287.785 297.084 285.981 297.471C288.439 298.756 289.691 300.766 288.465 304.156C286.965 308.345 283.427 308.718 278.764 307.816L277.595 312.341L274.865 311.653L276.033 307.195C275.301 306.99 274.569 306.784 273.836 306.579L272.668 311.103L269.938 310.416L271.106 305.891C270.44 305.753 269.841 305.548 269.176 305.343L265.58 304.449L266.938 301.326C266.938 301.326 268.935 301.874 268.936 301.808C269.468 302.012 270.004 301.683 270.208 301.151L272.064 293.965C272.198 293.966 272.264 294.033 272.331 294.033C272.264 293.966 272.131 293.965 272.064 293.965L273.371 288.841C273.444 288.042 272.915 287.371 272.115 287.232C272.182 287.232 270.118 286.75 270.118 286.75L270.874 283.822L274.669 284.784C275.268 284.922 275.801 285.06 276.401 285.197L277.569 280.673L280.299 281.36L279.132 285.752C279.864 285.957 280.597 286.096 281.329 286.302L282.43 281.91L285.16 282.597L283.991 287.122C287.517 288.415 290.038 290.235 289.547 293.498Z" fill="#E6F4FF"/>
<path d="M143 117L151.921 109.358L163.445 111.269L173.5 100.5L185.874 104.368L198.016 87.8657L214.5 71.5" stroke="#0051FF"/>
</svg>