<svg width="490" height="364" viewBox="0 0 490 364" fill="none" xmlns="http://www.w3.org/2000/svg">
<line x1="240" y1="104.5" x2="188" y2="104.5" stroke="#0051FF"/>
<line x1="188.286" y1="104.039" x2="166.866" y2="129.664" stroke="#0051FF"/>
<path d="M158.883 22.7813C158.883 22.9491 158.816 23.1101 158.697 23.2288C158.579 23.3474 158.418 23.4141 158.25 23.4141H142.219C141.827 23.4137 141.452 23.2579 141.175 22.9811C140.898 22.7043 140.743 22.329 140.742 21.9375V9.28129C140.742 9.11345 140.809 8.9525 140.928 8.83382C141.046 8.71515 141.207 8.64847 141.375 8.64847C141.543 8.64847 141.704 8.71515 141.822 8.83382C141.941 8.9525 142.008 9.11345 142.008 9.28129V21.9375C142.008 21.9935 142.03 22.0471 142.07 22.0866C142.109 22.1261 142.163 22.1484 142.219 22.1485H158.25C158.418 22.1485 158.579 22.2151 158.697 22.3338C158.816 22.4525 158.883 22.6135 158.883 22.7813ZM162.152 11.3187L162.156 11.3124C162.177 11.2798 162.195 11.2452 162.21 11.2093C162.211 11.2066 162.212 11.204 162.213 11.2015C162.227 11.1658 162.238 11.129 162.246 11.0913L162.247 11.0852C162.262 11.0083 162.262 10.9293 162.247 10.8524C162.246 10.8502 162.246 10.8481 162.246 10.8462C162.238 10.8086 162.227 10.7718 162.213 10.7362L162.21 10.7283C162.195 10.6923 162.177 10.6578 162.156 10.6252L162.152 10.6188C162.129 10.5835 162.102 10.5505 162.072 10.5205L157.01 5.45889C156.891 5.34362 156.731 5.27983 156.565 5.28127C156.399 5.28272 156.24 5.34927 156.123 5.4666C156.005 5.58393 155.939 5.74264 155.937 5.90856C155.936 6.07449 156 6.23434 156.115 6.35369L160.097 10.336H155.719C153.333 10.3344 151.014 11.1263 149.128 12.5871C147.242 14.0479 145.895 16.0946 145.3 18.4049C145.278 18.4856 145.273 18.5699 145.284 18.6527C145.295 18.7355 145.323 18.8154 145.365 18.8875C145.407 18.9597 145.463 19.0228 145.53 19.0732C145.597 19.1236 145.673 19.1602 145.754 19.181C145.835 19.2019 145.919 19.2065 146.002 19.1945C146.084 19.1826 146.164 19.1544 146.236 19.1116C146.307 19.0687 146.37 19.0121 146.42 18.9449C146.47 18.8777 146.505 18.8014 146.526 18.7202C147.051 16.6819 148.239 14.8761 149.904 13.5874C151.568 12.2986 153.614 11.6 155.719 11.6016H160.097L156.115 15.5839C156.055 15.6423 156.006 15.7121 155.973 15.7893C155.94 15.8665 155.923 15.9495 155.922 16.0336C155.921 16.1176 155.937 16.2009 155.969 16.2787C156.001 16.3565 156.048 16.4271 156.107 16.4865C156.167 16.5459 156.237 16.5929 156.315 16.6248C156.393 16.6566 156.476 16.6726 156.56 16.6719C156.644 16.6711 156.727 16.6537 156.804 16.6205C156.882 16.5873 156.952 16.5391 157.01 16.4787L162.072 11.417C162.102 11.387 162.129 11.3541 162.152 11.3187V11.3187Z" fill="#0051FF"/>
<path d="M90.6074 182.097L90.1813 182.85L91.0463 182.843L181.134 182.155L136.274 260.5H45.8109L0.576163 181.5L45.8109 102.5H135.658L90.6074 182.097Z" fill="white" stroke="#B9D9F3"/>
<circle cx="305.222" cy="10.6636" r="7.66365" fill="#DFF1FF" fill-opacity="0.3"/>
<circle cx="334.697" cy="10.6636" r="7.66365" fill="#DFF1FF" fill-opacity="0.3"/>
<circle cx="364.175" cy="10.6636" r="7.66365" fill="#DFF1FF" fill-opacity="0.3"/>
<circle cx="393.649" cy="10.6636" r="7.66365" fill="#DFF1FF" fill-opacity="0.3"/>
<circle cx="423.126" cy="10.6636" r="7.66365" fill="#DFF1FF" fill-opacity="0.3"/>
<circle cx="452.601" cy="10.6636" r="7.66365" fill="#DFF1FF" fill-opacity="0.3"/>
<circle cx="482.076" cy="10.6636" r="7.66365" fill="#DFF1FF" fill-opacity="0.3"/>
<circle cx="305.223" cy="40.2491" r="7.66365" fill="#DFF1FF" fill-opacity="0.3"/>
<circle cx="305.222" cy="69.7249" r="7.66365" fill="#DFF1FF" fill-opacity="0.3"/>
<circle cx="305.222" cy="99.2" r="7.66365" fill="#DFF1FF" fill-opacity="0.3"/>
<circle cx="305.222" cy="128.676" r="7.66365" fill="#DFF1FF" fill-opacity="0.3"/>
<circle cx="305.222" cy="158.152" r="7.66365" fill="#DFF1FF" fill-opacity="0.3"/>
<circle cx="334.697" cy="40.2493" r="7.66365" fill="#DFF1FF" fill-opacity="0.3"/>
<circle cx="334.697" cy="69.7249" r="7.66365" fill="#DFF1FF" fill-opacity="0.3"/>
<circle cx="334.697" cy="99.2" r="7.66365" fill="#DFF1FF" fill-opacity="0.3"/>
<circle cx="334.697" cy="128.676" r="7.66365" fill="#DFF1FF" fill-opacity="0.3"/>
<circle cx="334.697" cy="158.152" r="7.66365" fill="#DFF1FF" fill-opacity="0.3"/>
<circle cx="364.174" cy="40.2493" r="7.66365" fill="#DFF1FF" fill-opacity="0.3"/>
<circle cx="364.174" cy="69.7249" r="7.66365" fill="#DFF1FF" fill-opacity="0.3"/>
<circle cx="364.174" cy="99.2" r="7.66365" fill="#DFF1FF" fill-opacity="0.3"/>
<circle cx="364.174" cy="128.676" r="7.66365" fill="#DFF1FF" fill-opacity="0.3"/>
<circle cx="364.174" cy="158.152" r="7.66365" fill="#DFF1FF" fill-opacity="0.3"/>
<circle cx="393.649" cy="40.2493" r="7.66365" fill="#DFF1FF" fill-opacity="0.3"/>
<circle cx="393.649" cy="69.7249" r="7.66365" fill="#DFF1FF" fill-opacity="0.3"/>
<circle cx="393.649" cy="99.2" r="7.66365" fill="#DFF1FF" fill-opacity="0.3"/>
<circle cx="393.649" cy="128.676" r="7.66365" fill="#DFF1FF" fill-opacity="0.3"/>
<circle cx="393.649" cy="158.152" r="7.66365" fill="#DFF1FF" fill-opacity="0.3"/>
<circle cx="423.125" cy="40.2493" r="7.66365" fill="#DFF1FF" fill-opacity="0.3"/>
<circle cx="423.125" cy="69.7249" r="7.66365" fill="#DFF1FF" fill-opacity="0.3"/>
<circle cx="423.125" cy="99.2" r="7.66365" fill="#DFF1FF" fill-opacity="0.3"/>
<circle cx="423.125" cy="128.676" r="7.66365" fill="#DFF1FF" fill-opacity="0.3"/>
<circle cx="423.125" cy="158.152" r="7.66365" fill="#DFF1FF" fill-opacity="0.3"/>
<circle cx="452.6" cy="40.2493" r="7.66365" fill="#DFF1FF" fill-opacity="0.3"/>
<circle cx="452.6" cy="69.7249" r="7.66365" fill="#DFF1FF" fill-opacity="0.3"/>
<circle cx="452.6" cy="99.2" r="7.66365" fill="#DFF1FF" fill-opacity="0.3"/>
<circle cx="452.6" cy="128.676" r="7.66365" fill="#DFF1FF" fill-opacity="0.3"/>
<circle cx="452.6" cy="158.152" r="7.66365" fill="#DFF1FF" fill-opacity="0.3"/>
<circle cx="482.075" cy="40.2493" r="7.66365" fill="#DFF1FF" fill-opacity="0.3"/>
<circle cx="482.075" cy="69.7249" r="7.66365" fill="#DFF1FF" fill-opacity="0.3"/>
<circle cx="482.075" cy="99.2" r="7.66365" fill="#DFF1FF" fill-opacity="0.3"/>
<circle cx="482.075" cy="128.676" r="7.66365" fill="#DFF1FF" fill-opacity="0.3"/>
<circle cx="482.075" cy="158.152" r="7.66365" fill="#DFF1FF" fill-opacity="0.3"/>
<path d="M192.916 175.3L193 175.15L148 95H147.952L103 176L192.916 175.3Z" fill="#0051FF"/>
<rect x="243" y="71" width="64" height="61" fill="white"/>
<path d="M263.639 114.384H262.369V109.489L260.853 109.959V108.926L263.503 107.977H263.639V114.384Z" fill="#0051FF"/>
<path d="M265.911 111.238L266.28 107.986H269.866V109.045H267.322L267.164 110.42C267.465 110.259 267.786 110.179 268.126 110.179C268.735 110.179 269.213 110.368 269.559 110.746C269.904 111.124 270.077 111.652 270.077 112.332C270.077 112.745 269.989 113.116 269.813 113.444C269.641 113.769 269.392 114.022 269.066 114.204C268.741 114.383 268.357 114.472 267.915 114.472C267.528 114.472 267.169 114.395 266.838 114.239C266.507 114.081 266.245 113.86 266.052 113.576C265.861 113.292 265.76 112.968 265.749 112.604H267.005C267.032 112.871 267.124 113.079 267.282 113.229C267.443 113.375 267.653 113.448 267.911 113.448C268.198 113.448 268.419 113.346 268.574 113.141C268.729 112.933 268.807 112.64 268.807 112.262C268.807 111.898 268.718 111.62 268.539 111.427C268.36 111.233 268.107 111.137 267.779 111.137C267.477 111.137 267.232 111.216 267.045 111.374L266.922 111.488L265.911 111.238Z" fill="#0051FF"/>
<path d="M270.873 109.216C270.873 108.824 271 108.506 271.255 108.263C271.51 108.017 271.844 107.894 272.257 107.894C272.676 107.894 273.013 108.015 273.268 108.258C273.522 108.499 273.65 108.825 273.65 109.238V109.555C273.65 109.95 273.522 110.268 273.268 110.508C273.013 110.749 272.679 110.869 272.266 110.869C271.85 110.869 271.513 110.749 271.255 110.508C271 110.265 270.873 109.938 270.873 109.528V109.216ZM271.716 109.555C271.716 109.73 271.766 109.873 271.866 109.981C271.968 110.086 272.102 110.139 272.266 110.139C272.43 110.139 272.56 110.085 272.657 109.977C272.753 109.868 272.802 109.723 272.802 109.542V109.216C272.802 109.041 272.753 108.898 272.657 108.79C272.56 108.682 272.427 108.627 272.257 108.627C272.096 108.627 271.965 108.682 271.866 108.79C271.766 108.896 271.716 109.043 271.716 109.234V109.555ZM273.931 112.815C273.931 112.42 274.06 112.102 274.318 111.862C274.576 111.619 274.91 111.497 275.32 111.497C275.736 111.497 276.071 111.617 276.326 111.857C276.584 112.095 276.713 112.423 276.713 112.842V113.158C276.713 113.551 276.587 113.869 276.335 114.112C276.083 114.352 275.748 114.472 275.329 114.472C274.907 114.472 274.568 114.351 274.313 114.107C274.059 113.864 273.931 113.542 273.931 113.141V112.815ZM274.775 113.158C274.775 113.319 274.828 113.457 274.933 113.571C275.039 113.686 275.17 113.743 275.329 113.743C275.686 113.743 275.865 113.545 275.865 113.149V112.815C275.865 112.64 275.815 112.499 275.715 112.394C275.616 112.285 275.484 112.231 275.32 112.231C275.156 112.231 275.024 112.285 274.924 112.394C274.825 112.499 274.775 112.644 274.775 112.829V113.158ZM272.516 113.905L271.896 113.571L275.021 108.57L275.641 108.904L272.516 113.905Z" fill="#0051FF"/>
<path d="M280.176 114.384V110.561H279.468V109.629H280.176V109.225C280.176 108.692 280.328 108.279 280.633 107.986C280.94 107.69 281.37 107.542 281.92 107.542C282.096 107.542 282.312 107.571 282.566 107.63L282.553 108.614C282.448 108.588 282.319 108.575 282.167 108.575C281.689 108.575 281.45 108.799 281.45 109.247V109.629H282.395V110.561H281.45V114.384H280.176Z" fill="#0051FF"/>
<path d="M285.137 114.472C284.44 114.472 283.872 114.258 283.432 113.831C282.996 113.403 282.777 112.833 282.777 112.121V111.998C282.777 111.521 282.87 111.094 283.054 110.719C283.239 110.341 283.5 110.051 283.836 109.849C284.176 109.644 284.563 109.542 284.997 109.542C285.647 109.542 286.158 109.747 286.53 110.157C286.905 110.567 287.093 111.148 287.093 111.901V112.42H284.065C284.106 112.73 284.229 112.979 284.434 113.167C284.642 113.354 284.904 113.448 285.221 113.448C285.71 113.448 286.092 113.271 286.368 112.917L286.992 113.615C286.801 113.885 286.543 114.096 286.218 114.248C285.893 114.397 285.533 114.472 285.137 114.472ZM284.992 110.57C284.74 110.57 284.535 110.655 284.377 110.825C284.222 110.995 284.122 111.238 284.078 111.554H285.845V111.453C285.839 111.172 285.763 110.955 285.616 110.803C285.47 110.647 285.262 110.57 284.992 110.57Z" fill="#0051FF"/>
<path d="M290.006 114.472C289.309 114.472 288.741 114.258 288.301 113.831C287.865 113.403 287.646 112.833 287.646 112.121V111.998C287.646 111.521 287.739 111.094 287.923 110.719C288.108 110.341 288.369 110.051 288.706 109.849C289.045 109.644 289.432 109.542 289.866 109.542C290.516 109.542 291.027 109.747 291.399 110.157C291.774 110.567 291.962 111.148 291.962 111.901V112.42H288.934C288.975 112.73 289.098 112.979 289.303 113.167C289.511 113.354 289.773 113.448 290.09 113.448C290.579 113.448 290.961 113.271 291.237 112.917L291.861 113.615C291.67 113.885 291.413 114.096 291.087 114.248C290.762 114.397 290.402 114.472 290.006 114.472ZM289.861 110.57C289.609 110.57 289.404 110.655 289.246 110.825C289.091 110.995 288.991 111.238 288.947 111.554H290.714V111.453C290.708 111.172 290.632 110.955 290.485 110.803C290.339 110.647 290.131 110.57 289.861 110.57Z" fill="#0051FF"/>
<line x1="307.41" y1="118.393" x2="307.41" y2="132.06" stroke="#B9D9F3"/>
<line x1="242.176" y1="85.0686" x2="242.176" y2="70.035" stroke="#B9D9F3"/>
<line x1="241.65" y1="70.2178" x2="286.751" y2="70.2178" stroke="#B9D9F3"/>
<line x1="307.935" y1="132.219" x2="262.834" y2="132.219" stroke="#B9D9F3"/>
<path d="M241.5 110C244.538 110 247 107.314 247 104C247 100.686 244.538 98 241.5 98C238.462 98 236 100.686 236 104C236 107.314 238.462 110 241.5 110Z" fill="#0051FF"/>
<path d="M147.646 84.3536C147.842 84.5488 148.158 84.5488 148.354 84.3536L151.536 81.1716C151.731 80.9763 151.731 80.6597 151.536 80.4645C151.34 80.2692 151.024 80.2692 150.828 80.4645L148 83.2929L145.172 80.4645C144.976 80.2692 144.66 80.2692 144.464 80.4645C144.269 80.6597 144.269 80.9763 144.464 81.1716L147.646 84.3536ZM147.5 33L147.5 84L148.5 84L148.5 33L147.5 33Z" fill="#0051FF"/>
<path d="M374.945 340.849H364.948V354.445H374.945V340.849Z" fill="#F9CCAB"/>
<path d="M425.729 340.849H415.732V354.445H425.729V340.849Z" fill="#F9CCAB"/>
<path d="M432.665 228.082C431.808 228.082 430.961 227.897 430.183 227.538C429.405 227.18 428.714 226.657 428.157 226.006C427.6 225.355 427.19 224.591 426.957 223.767C426.723 222.942 426.671 222.077 426.804 221.231L428.441 210.793L428.928 207.688H436.526L436.926 212.087L438.508 221.128C438.657 221.98 438.618 222.855 438.393 223.691C438.168 224.527 437.763 225.304 437.207 225.966C436.65 226.629 435.955 227.162 435.17 227.527C434.385 227.893 433.53 228.082 432.665 228.082Z" fill="#F9CCAB"/>
<path d="M358.287 226.883C357.43 226.883 356.583 226.697 355.805 226.339C355.027 225.98 354.336 225.458 353.779 224.807C353.222 224.156 352.813 223.392 352.579 222.567C352.346 221.743 352.293 220.878 352.426 220.031L354.063 209.593L354.55 206.489H362.148L362.548 210.888L364.13 219.928C364.279 220.781 364.24 221.656 364.015 222.492C363.79 223.327 363.385 224.104 362.829 224.767C362.272 225.43 361.577 225.962 360.792 226.328C360.007 226.693 359.152 226.883 358.287 226.883V226.883Z" fill="#F9CCAB"/>
<path d="M426.928 343.648L414.932 343.248L395.338 224.884L375.744 343.648L364.148 343.248L360.949 206.489H428.128L426.928 343.648Z" fill="#EDF7FF"/>
<path d="M374.694 363.884C364.516 364.178 356.548 361.427 351.324 354.895C350.775 354.207 350.45 353.368 350.391 352.49C350.333 351.611 350.545 350.736 350.998 349.982C351.425 349.27 352.048 348.696 352.793 348.33C353.538 347.964 354.373 347.82 355.198 347.917L358.505 348.303L365.392 344.862C363.984 353.055 367.816 353.209 376.983 350.463L378.634 358.927C378.751 359.518 378.737 360.127 378.595 360.712C378.452 361.297 378.185 361.845 377.81 362.316C377.435 362.788 376.962 363.172 376.424 363.443C375.886 363.713 375.296 363.864 374.694 363.884Z" fill="#F0F0F0"/>
<path d="M425.479 363.884C415.301 364.178 407.333 361.427 402.109 354.895C401.56 354.207 401.235 353.368 401.176 352.49C401.118 351.611 401.33 350.736 401.783 349.982V349.982C402.21 349.27 402.833 348.696 403.578 348.33C404.323 347.964 405.158 347.82 405.983 347.916L409.29 348.303L416.126 345.419C414.717 353.612 418.601 353.209 427.768 350.463L429.419 358.927C429.536 359.518 429.522 360.127 429.38 360.712C429.238 361.297 428.97 361.845 428.595 362.316C428.22 362.788 427.747 363.172 427.209 363.443C426.671 363.713 426.081 363.864 425.479 363.884Z" fill="#F0F0F0"/>
<path d="M391.339 81.3264C400.173 81.3264 407.335 74.1651 407.335 65.3311C407.335 56.4972 400.173 49.3359 391.339 49.3359C382.506 49.3359 375.344 56.4972 375.344 65.3311C375.344 74.1651 382.506 81.3264 391.339 81.3264Z" fill="#F9CCAB"/>
<path d="M407.334 94.5227L390.139 95.3223L389.34 77.3277L404.136 71.7295L407.334 94.5227Z" fill="#F9CCAB"/>
<path d="M432.127 212.087C408.679 207.65 381.964 206.061 364.147 212.087L369.746 94.5224L388.54 88.924L389.94 86.7247L405.735 84.1255L413.333 86.5248L418.131 93.7226L432.918 98.9364L438.925 105.319C428.69 144.914 425.658 180.888 432.127 212.087Z" fill="white"/>
<path d="M443.324 211.287L426.129 209.288C429.713 191.825 428.248 169.112 429.128 146.307C429.687 131.844 432.687 118.681 433.727 102.52C440.248 104.22 443.625 110.276 443.663 117.412C443.848 151.259 447.045 182.972 443.324 211.287Z" fill="white"/>
<path d="M368.546 209.688L351.751 208.488L361.748 151.705L365.133 104.453C364.606 97.562 368.289 93.5579 373.745 93.3228C385.662 107.435 387.044 126.883 383.342 148.906L368.546 209.688Z" fill="white"/>
<path d="M396.528 77.0917L394.465 71.2196C393.307 67.9248 391.276 65.0068 388.588 62.7776C385.9 60.5484 382.656 59.092 379.204 58.5641V58.5641L366.277 58.2677L369.866 52.4996C371.597 49.7179 374.073 47.4767 377.012 46.0298C379.951 44.583 383.237 43.9883 386.497 44.3133L399.417 45.6012C402.493 45.9078 405.323 47.4187 407.288 49.8041C409.254 52.1896 410.196 55.2558 409.909 58.3335L408.724 71.0398C408.598 72.3981 408.126 73.7014 407.354 74.8261C406.582 75.9508 405.535 76.8595 404.313 77.4658C403.091 78.0722 401.734 78.3561 400.372 78.2906C399.009 78.2251 397.686 77.8124 396.528 77.0917V77.0917Z" fill="#0051FF"/>
<path d="M364.522 218.732L364.53 273.441L369.255 338.526" stroke="#B3D3EF" stroke-opacity="0.45"/>
<path d="M412.166 85.259L417.354 93.2768L433.39 99.4081L442.351 109.312L444.709 138.554V174.869" stroke="#B3D3EF" stroke-opacity="0.45"/>
<path d="M384.339 90.447L370.19 93.2768L365.002 99.4081L362.644 153.646L355.098 190.905" stroke="#B3D3EF" stroke-opacity="0.45"/>
<path d="M268 93V92H274V86H275V92H281V93H275V99H274V93H268Z" fill="#0051FF"/>
</svg>