<svg viewBox="0 0 402 331" xmlns="http://www.w3.org/2000/svg">
<path d="m45 294.07 21.545-17.236 0.6247 0.781-21.545 17.236-0.6247-0.781z" clip-rule="evenodd" fill="#ABD4F2" fill-rule="evenodd"/>
<path d="m48.134 302.69v27.591h-1v-27.591h1z" clip-rule="evenodd" fill="#ABD4F2" fill-rule="evenodd"/>
<path d="m86.454 317.97v12.143h-1v-12.143h1z" clip-rule="evenodd" fill="#ABD4F2" fill-rule="evenodd"/>
<path d="m88.091 294.07-21.545-17.236-0.6247 0.781 21.545 17.236 0.6246-0.781z" clip-rule="evenodd" fill="#ABD4F2" fill-rule="evenodd"/>
<path d="m68.911 322.96c0.3678 0 0.6659-0.298 0.6659-0.666s-0.2981-0.666-0.6659-0.666-0.666 0.298-0.666 0.666 0.2982 0.666 0.666 0.666z" fill="#fff"/>
<path d="m72.704 295.35h-11.927v5.66h11.927v-5.66zm-12.427-0.5v6.66h12.927v-6.66h-12.927z" clip-rule="evenodd" fill="#8594A1" fill-rule="evenodd"/>
<path d="m63 298h14v4h-14v-4z" fill="#fff"/>
<path d="m1 330h74v1h-74v-1z" clip-rule="evenodd" fill="#ABD4F2" fill-rule="evenodd"/>
<path d="m68.896 325.21c0 0.325-0.2631 0.588-0.5876 0.588s-0.5876-0.263-0.5876-0.588c0-0.324 0.2631-0.587 0.5876-0.587s0.5876 0.263 0.5876 0.587z" fill="#DFEFFA"/>
<path d="m70.072 321.49v8.618h-0.51v-8.618h0.51z" clip-rule="evenodd" fill="#8594A1" fill-rule="evenodd"/>
<path d="m63.412 317.97v12.144h-0.51v-12.144h0.51z" clip-rule="evenodd" fill="#8594A1" fill-rule="evenodd"/>
<path d="m63.413 317.97h3.1339v0.51h-3.1339v-0.51z" clip-rule="evenodd" fill="#8594A1" fill-rule="evenodd"/>
<path d="m220.6 322.94c0 0.454-0.316 0.822-0.706 0.822-0.389 0-0.706-0.368-0.706-0.822 0-0.453 0.317-0.821 0.706-0.821 0.39 0 0.706 0.368 0.706 0.821z" fill="#DFEFFA"/>
<path d="m216.84 322.94c0 0.454-0.316 0.822-0.706 0.822s-0.706-0.368-0.706-0.822c0-0.453 0.316-0.821 0.706-0.821s0.706 0.368 0.706 0.821z" fill="#DFEFFA"/>
<path d="m226.72 317.74v12.044h-0.51v-12.044h0.51z" clip-rule="evenodd" fill="#8594A1" fill-rule="evenodd"/>
<path d="m209 313v17h-0.51v-17h0.51z" clip-rule="evenodd" fill="#8594A1" fill-rule="evenodd"/>
<path d="m218 313v17h-0.51v-17h0.51z" clip-rule="evenodd" fill="#8594A1" fill-rule="evenodd"/>
<path d="m209 313h12v0.51h-12v-0.51z" clip-rule="evenodd" fill="#8594A1" fill-rule="evenodd"/>
<path d="m185 211.85h67v1h-67v-1z" clip-rule="evenodd" fill="#ABD4F2" fill-rule="evenodd"/>
<path d="m185 329.71h45.205v1h-45.205v-1z" clip-rule="evenodd" fill="#ABD4F2" fill-rule="evenodd"/>
<path d="m185 329.71v-45.205h1v45.205h-1z" clip-rule="evenodd" fill="#ABD4F2" fill-rule="evenodd"/>
<path d="m196.3 286.92v-8.879h0.5v8.879h-0.5z" clip-rule="evenodd" fill="#8594A1" fill-rule="evenodd"/>
<path d="m213.25 286.92v-8.879h0.5v8.879h-0.5z" clip-rule="evenodd" fill="#8594A1" fill-rule="evenodd"/>
<path d="m230.2 286.92v-8.879h0.5v8.879h-0.5z" clip-rule="evenodd" fill="#8594A1" fill-rule="evenodd"/>
<path d="m196.3 269.16v-8.879h0.5v8.879h-0.5z" clip-rule="evenodd" fill="#8594A1" fill-rule="evenodd"/>
<path d="m213.25 269.16v-8.879h0.5v8.879h-0.5z" clip-rule="evenodd" fill="#8594A1" fill-rule="evenodd"/>
<path d="m230.2 269.16v-8.879h0.5v8.879h-0.5z" clip-rule="evenodd" fill="#8594A1" fill-rule="evenodd"/>
<path d="m196.3 252.21v-9.687h0.5v9.687h-0.5z" clip-rule="evenodd" fill="#8594A1" fill-rule="evenodd"/>
<path d="m213.25 252.21v-9.687h0.5v9.687h-0.5z" clip-rule="evenodd" fill="#8594A1" fill-rule="evenodd"/>
<path d="m230.2 252.21v-9.687h0.5v9.687h-0.5z" clip-rule="evenodd" fill="#8594A1" fill-rule="evenodd"/>
<path d="m196.3 234.45v-8.879h0.5v8.879h-0.5z" clip-rule="evenodd" fill="#8594A1" fill-rule="evenodd"/>
<path d="m213.25 234.45v-8.879h0.5v8.879h-0.5z" clip-rule="evenodd" fill="#8594A1" fill-rule="evenodd"/>
<path d="m230.2 234.45v-8.879h0.5v8.879h-0.5z" clip-rule="evenodd" fill="#8594A1" fill-rule="evenodd"/>
<path d="m206.8 278.04h-10.494v-0.5h10.494v0.5z" clip-rule="evenodd" fill="#8594A1" fill-rule="evenodd"/>
<path d="m223.75 278.04h-10.494v-0.5h10.494v0.5z" clip-rule="evenodd" fill="#8594A1" fill-rule="evenodd"/>
<path d="m240.7 278.04h-10.494v-0.5h10.494v0.5z" clip-rule="evenodd" fill="#8594A1" fill-rule="evenodd"/>
<path d="m206.8 260.28h-10.494v-0.5h10.494v0.5z" clip-rule="evenodd" fill="#8594A1" fill-rule="evenodd"/>
<path d="m223.75 260.28h-10.494v-0.5h10.494v0.5z" clip-rule="evenodd" fill="#8594A1" fill-rule="evenodd"/>
<path d="m240.7 260.28h-10.494v-0.5h10.494v0.5z" clip-rule="evenodd" fill="#8594A1" fill-rule="evenodd"/>
<path d="m206.8 242.53h-10.494v-0.5h10.494v0.5z" clip-rule="evenodd" fill="#8594A1" fill-rule="evenodd"/>
<path d="m223.75 242.53h-10.494v-0.5h10.494v0.5z" clip-rule="evenodd" fill="#8594A1" fill-rule="evenodd"/>
<path d="m240.7 242.53h-10.494v-0.5h10.494v0.5z" clip-rule="evenodd" fill="#8594A1" fill-rule="evenodd"/>
<path d="m206.8 225.57h-10.494v-0.5h10.494v0.5z" clip-rule="evenodd" fill="#8594A1" fill-rule="evenodd"/>
<path d="m223.75 225.57h-10.494v-0.5h10.494v0.5z" clip-rule="evenodd" fill="#8594A1" fill-rule="evenodd"/>
<path d="m240.7 225.57h-10.494v-0.5h10.494v0.5z" clip-rule="evenodd" fill="#8594A1" fill-rule="evenodd"/>
<path d="m201.14 286.92h-4.843v-0.5h4.843v0.5z" clip-rule="evenodd" fill="#8594A1" fill-rule="evenodd"/>
<path d="m218.1 286.92h-4.843v-0.5h4.843v0.5z" clip-rule="evenodd" fill="#8594A1" fill-rule="evenodd"/>
<path d="m235.05 286.92h-4.843v-0.5h4.843v0.5z" clip-rule="evenodd" fill="#8594A1" fill-rule="evenodd"/>
<path d="m201.14 269.16h-4.843v-0.5h4.843v0.5z" clip-rule="evenodd" fill="#8594A1" fill-rule="evenodd"/>
<path d="m218.1 269.16h-4.843v-0.5h4.843v0.5z" clip-rule="evenodd" fill="#8594A1" fill-rule="evenodd"/>
<path d="m235.05 269.16h-4.843v-0.5h4.843v0.5z" clip-rule="evenodd" fill="#8594A1" fill-rule="evenodd"/>
<path d="m201.14 252.21h-4.843v-0.5h4.843v0.5z" clip-rule="evenodd" fill="#8594A1" fill-rule="evenodd"/>
<path d="m218.1 252.21h-4.843v-0.5h4.843v0.5z" clip-rule="evenodd" fill="#8594A1" fill-rule="evenodd"/>
<path d="m235.05 252.21h-4.843v-0.5h4.843v0.5z" clip-rule="evenodd" fill="#8594A1" fill-rule="evenodd"/>
<path d="m201.14 234.45h-4.843v-0.5h4.843v0.5z" clip-rule="evenodd" fill="#8594A1" fill-rule="evenodd"/>
<path d="m218.1 234.45h-4.843v-0.5h4.843v0.5z" clip-rule="evenodd" fill="#8594A1" fill-rule="evenodd"/>
<path d="m235.05 234.45h-4.843v-0.5h4.843v0.5z" clip-rule="evenodd" fill="#8594A1" fill-rule="evenodd"/>
<path d="m252 329.71v-117.86h1v117.86h-1z" clip-rule="evenodd" fill="#ABD4F2" fill-rule="evenodd"/>
<path d="m269 330h93v1h-93v-1z" clip-rule="evenodd" fill="#ABD4F2" fill-rule="evenodd"/>
<path d="m369.65 235.45-26.849-0.559 0.01-0.5 26.849 0.56-0.01 0.499z" clip-rule="evenodd" fill="#8594A1" fill-rule="evenodd"/>
<path d="m392.48 297.29v33.174h-0.5v-33.174h0.5z" clip-rule="evenodd" fill="#8594A1" fill-rule="evenodd"/>
<path d="m384.55 315.32v15.145h-0.5v-15.145h0.5z" clip-rule="evenodd" fill="#8594A1" fill-rule="evenodd"/>
<path d="m381.96 147.63-39.155-0.56 8e-3 -0.5 39.154 0.56-7e-3 0.5z" clip-rule="evenodd" fill="#8594A1" fill-rule="evenodd"/>
<path d="m372.29 155.22h-29.568v-0.5h29.568v0.5z" clip-rule="evenodd" fill="#8594A1" fill-rule="evenodd"/>
<path d="m372.29 242.86h-29.568v-0.5h29.568v0.5z" clip-rule="evenodd" fill="#8594A1" fill-rule="evenodd"/>
<path d="m342 117h40.386v1h-40.386v-1z" clip-rule="evenodd" fill="#ABD4F2" fill-rule="evenodd"/>
<path d="m342 330.47v-213.47h1v213.47h-1z" clip-rule="evenodd" fill="#ABD4F2" fill-rule="evenodd"/>
<path d="m400.42 330.47v-106.73h1v106.73h-1z" clip-rule="evenodd" fill="#ABD4F2" fill-rule="evenodd"/>
<path d="m72.385 253.81c0 2.639-2.1424 4.779-4.7852 4.779s-4.7851-2.14-4.7851-4.779 2.1423-4.779 4.7851-4.779 4.7852 2.14 4.7852 4.779z" fill="#0051FF"/>
<path d="m119.56 179.02c0 2.639-2.142 4.779-4.785 4.779-2.642 0-4.785-2.14-4.785-4.779s2.143-4.779 4.785-4.779c2.643 0 4.785 2.14 4.785 4.779z" fill="#0051FF"/>
<path d="m210.89 179.02c0 2.639-2.143 4.779-4.785 4.779-2.643 0-4.786-2.14-4.786-4.779s2.143-4.779 4.786-4.779c2.642 0 4.785 2.14 4.785 4.779z" fill="#0051FF"/>
<path d="m371.4 48.295-38.15 52.205h-85.948l-40.205 78.803h-90.445l-49.239 74.473-0.8342-0.552 49.536-74.921h90.369l40.206-78.803h86.052l37.85-51.795 0.808 0.59z" clip-rule="evenodd" fill="#0051FF" fill-rule="evenodd"/>
<path d="m252.07 100.74c0 2.639-2.142 4.779-4.785 4.779s-4.785-2.14-4.785-4.779c0-2.6396 2.142-4.7792 4.785-4.7792s4.785 2.1396 4.785 4.7792z" fill="#0051FF"/>
<path d="m337.91 100.74c0 2.639-2.142 4.779-4.785 4.779s-4.785-2.14-4.785-4.779c0-2.6396 2.142-4.7792 4.785-4.7792s4.785 2.1396 4.785 4.7792z" fill="#0051FF"/>
<path d="m375.29 47.779c0 2.6393-2.142 4.7789-4.785 4.7789s-4.785-2.1396-4.785-4.7789 2.142-4.7789 4.785-4.7789 4.785 2.1396 4.785 4.7789z" fill="#0051FF"/>
<path d="m20 132c0 2.209-2.0147 4-4.5 4s-4.5-1.791-4.5-4 2.0147-4 4.5-4 4.5 1.791 4.5 4z" fill="#EFEFEF"/>
<path d="m33 132c0 2.209-1.7909 4-4 4s-4-1.791-4-4 1.7909-4 4-4 4 1.791 4 4z" fill="#EFEFEF"/>
<path d="m47 132c0 2.209-2.0147 4-4.5 4s-4.5-1.791-4.5-4 2.0147-4 4.5-4 4.5 1.791 4.5 4z" fill="#EFEFEF"/>
<path d="m130 45h66v1h-66v-1z" clip-rule="evenodd" fill="#ABD4F2" fill-rule="evenodd"/>
<path d="m130 96v-50h1v50h-1z" clip-rule="evenodd" fill="#ABD4F2" fill-rule="evenodd"/>
<path d="m1 117h172v1h-172v-1z" clip-rule="evenodd" fill="#ABD4F2" fill-rule="evenodd"/>
<path d="m1 117-1e-5 123h-1l5.3765e-6 -123h1z" clip-rule="evenodd" fill="#ABD4F2" fill-rule="evenodd"/>
<path d="m136 52h17v5h-17v-5z" fill="#DAEDFC" fill-opacity=".45"/>
<path d="m370.68 2.9891 4.429-0.79452c0.272-0.04875 0.532 0.13207 0.58 0.40387l0.795 4.4293c0.049 0.27181-0.132 0.53167-0.404 0.58043-0.272 0.04875-0.532-0.13206-0.58-0.40387l-0.582-3.2412-54.715 78.635-0.821-0.5711 54.715-78.635-3.241 0.5814c-0.271 0.04875-0.531-0.13207-0.58-0.40387-0.049-0.27181 0.132-0.53167 0.404-0.58043z" clip-rule="evenodd" fill="#0051FF" fill-rule="evenodd"/>
<path d="m69.887 203.3 4.4293-0.794c0.2718-0.049 0.5317 0.132 0.5804 0.404l0.7946 4.429c0.0487 0.272-0.1321 0.532-0.4039 0.58-0.2718 0.049-0.5317-0.132-0.5804-0.403l-0.5814-3.242-54.715 78.636-0.8208-0.571 54.715-78.636-3.2411 0.582c-0.2718 0.048-0.5317-0.132-0.5805-0.404-0.0487-0.272 0.1321-0.532 0.4039-0.581z" clip-rule="evenodd" fill="#0051FF" fill-rule="evenodd"/>
</svg>
