<svg width="486" height="320" viewBox="0 0 486 320" fill="none" xmlns="http://www.w3.org/2000/svg">
<path d="M429.246 5.00011C429.246 4.5859 428.911 4.25011 428.496 4.25011H421.746C421.332 4.25011 420.996 4.5859 420.996 5.00011C420.996 5.41432 421.332 5.75011 421.746 5.75011H427.746V11.7501C427.746 12.1643 428.082 12.5001 428.496 12.5001C428.911 12.5001 429.246 12.1643 429.246 11.7501V5.00011ZM190.631 243.926L429.027 5.53044L427.966 4.46978L189.57 242.866L190.631 243.926Z" fill="#B3D3EF" fill-opacity="0.25"/>
<path d="M403.072 5.00037C403.072 4.58615 402.737 4.25037 402.322 4.25037H395.572C395.158 4.25037 394.822 4.58615 394.822 5.00037C394.822 5.41458 395.158 5.75037 395.572 5.75037H401.572V11.7504C401.572 12.1646 401.908 12.5004 402.322 12.5004C402.737 12.5004 403.072 12.1646 403.072 11.7504V5.00037ZM192.049 216.335L402.853 5.5307L401.792 4.47004L190.988 215.274L192.049 216.335Z" fill="#B3D3EF" fill-opacity="0.25"/>
<path d="M377.688 5.00006C377.688 4.58585 377.352 4.25006 376.938 4.25006H370.188C369.774 4.25006 369.438 4.58585 369.438 5.00006C369.438 5.41427 369.774 5.75006 370.188 5.75006H376.188V11.7501C376.188 12.1643 376.524 12.5001 376.938 12.5001C377.352 12.5001 377.688 12.1643 377.688 11.7501V5.00006ZM189.842 193.157L377.468 5.53039L376.408 4.46973L188.781 192.096L189.842 193.157Z" fill="#B3D3EF" fill-opacity="0.25"/>
<path d="M352.303 5.00005C352.303 4.58583 351.967 4.25005 351.553 4.25005L344.803 4.25005C344.388 4.25005 344.053 4.58583 344.053 5.00005C344.053 5.41426 344.388 5.75005 344.803 5.75005L350.803 5.75005V11.75C350.803 12.1643 351.138 12.5 351.553 12.5C351.967 12.5 352.303 12.1643 352.303 11.75V5.00005ZM186.53 171.083L352.083 5.53038L351.022 4.46972L185.47 170.022L186.53 171.083Z" fill="#B3D3EF" fill-opacity="0.25"/>
<path d="M326.918 4.99999C326.918 4.58577 326.582 4.24999 326.168 4.24999L319.418 4.24999C319.004 4.24999 318.668 4.58577 318.668 4.99999C318.668 5.4142 319.004 5.74999 319.418 5.74999L325.418 5.74999V11.75C325.418 12.1642 325.754 12.5 326.168 12.5C326.582 12.5 326.918 12.1642 326.918 11.75V4.99999ZM186.53 145.698L326.698 5.53032L325.638 4.46966L185.47 144.638L186.53 145.698Z" fill="#B3D3EF" fill-opacity="0.25"/>
<path d="M301.533 4.99997C301.533 4.58576 301.197 4.24997 300.783 4.24997L294.033 4.24997C293.619 4.24997 293.283 4.58576 293.283 4.99997C293.283 5.41419 293.619 5.74997 294.033 5.74997H300.033V11.75C300.033 12.1642 300.369 12.5 300.783 12.5C301.197 12.5 301.533 12.1642 301.533 11.75V4.99997ZM186.53 120.314L301.314 5.5303L300.253 4.46964L185.47 119.253L186.53 120.314Z" fill="#B3D3EF" fill-opacity="0.25"/>
<path d="M276.148 4.99996C276.148 4.58575 275.813 4.24996 275.398 4.24996H268.648C268.234 4.24996 267.898 4.58575 267.898 4.99996C267.898 5.41418 268.234 5.74996 268.648 5.74996H274.648V11.75C274.648 12.1642 274.984 12.5 275.398 12.5C275.813 12.5 276.148 12.1642 276.148 11.75V4.99996ZM186.53 94.9288L275.929 5.53029L274.868 4.46963L185.47 93.8681L186.53 94.9288Z" fill="#B3D3EF" fill-opacity="0.25"/>
<path d="M251.867 5.00027C251.867 4.58606 251.532 4.25027 251.117 4.25027H244.367C243.953 4.25027 243.617 4.58606 243.617 5.00027C243.617 5.41448 243.953 5.75027 244.367 5.75027L250.367 5.75027V11.7503C250.367 12.1645 250.703 12.5003 251.117 12.5003C251.532 12.5003 251.867 12.1645 251.867 11.7503V5.00027ZM186.53 70.648L251.648 5.5306L250.587 4.46994L185.47 69.5873L186.53 70.648Z" fill="#B3D3EF" fill-opacity="0.25"/>
<path d="M226.483 5.00025C226.483 4.58604 226.147 4.25025 225.733 4.25025L218.983 4.25025C218.568 4.25025 218.233 4.58604 218.233 5.00025C218.233 5.41446 218.568 5.75025 218.983 5.75025L224.983 5.75025V11.7502C224.983 12.1645 225.318 12.5002 225.733 12.5002C226.147 12.5002 226.483 12.1645 226.483 11.7502V5.00025ZM186.53 45.2632L226.263 5.53058L225.202 4.46992L185.47 44.2026L186.53 45.2632Z" fill="#B3D3EF" fill-opacity="0.25"/>
<path d="M454.631 5.65779C454.631 5.24357 454.295 4.90779 453.881 4.90779H447.131C446.717 4.90779 446.381 5.24357 446.381 5.65779C446.381 6.072 446.717 6.40779 447.131 6.40779L453.131 6.40779L453.131 12.4078C453.131 12.822 453.467 13.1578 453.881 13.1578C454.295 13.1578 454.631 12.822 454.631 12.4078V5.65779ZM190.631 269.969L454.412 6.18812L453.351 5.12746L189.57 268.908L190.631 269.969Z" fill="#B3D3EF" fill-opacity="0.25"/>
<path d="M480.016 5.21008C480.016 4.79587 479.68 4.46008 479.266 4.46008H472.516C472.102 4.46008 471.766 4.79587 471.766 5.21008C471.766 5.62429 472.102 5.96008 472.516 5.96008L478.516 5.96008L478.516 11.9601C478.516 12.3743 478.852 12.7101 479.266 12.7101C479.68 12.7101 480.016 12.3743 480.016 11.9601V5.21008ZM190.631 294.906L479.796 5.74041L478.736 4.67975L189.57 293.845L190.631 294.906Z" fill="#B3D3EF" fill-opacity="0.25"/>
<path d="M480.015 31.2524C480.015 30.8382 479.679 30.5024 479.265 30.5024H472.515C472.101 30.5024 471.765 30.8382 471.765 31.2524C471.765 31.6666 472.101 32.0024 472.515 32.0024L478.515 32.0024L478.515 38.0024C478.515 38.4166 478.851 38.7524 479.265 38.7524C479.679 38.7524 480.015 38.4166 480.015 38.0024V31.2524ZM218.222 293.356L479.795 31.7827L478.734 30.722L217.161 292.295L218.222 293.356Z" fill="#B3D3EF" fill-opacity="0.25"/>
<path d="M480.489 56.8731C480.489 56.4589 480.153 56.1231 479.739 56.1231H472.989C472.575 56.1231 472.239 56.4589 472.239 56.8731C472.239 57.2873 472.575 57.6231 472.989 57.6231H478.989V63.6231C478.989 64.0373 479.325 64.3731 479.739 64.3731C480.153 64.3731 480.489 64.0373 480.489 63.6231V56.8731ZM245.185 292.488L480.27 57.4035L479.209 56.3428L244.124 291.428L245.185 292.488Z" fill="#B3D3EF" fill-opacity="0.25"/>
<path d="M480.488 82.9151C480.488 82.5009 480.152 82.1651 479.738 82.1651H472.988C472.574 82.1651 472.238 82.5009 472.238 82.9151C472.238 83.3293 472.574 83.6651 472.988 83.6651H478.988V89.6651C478.988 90.0793 479.324 90.4151 479.738 90.4151C480.152 90.4151 480.488 90.0793 480.488 89.6651V82.9151ZM270.568 293.146L480.269 83.4454L479.208 82.3848L269.508 292.085L270.568 293.146Z" fill="#B3D3EF" fill-opacity="0.25"/>
<path d="M479.226 187.503C479.226 187.089 478.89 186.753 478.476 186.753H471.726C471.312 186.753 470.976 187.089 470.976 187.503C470.976 187.917 471.312 188.253 471.726 188.253H477.726V194.253C477.726 194.667 478.062 195.003 478.476 195.003C478.89 195.003 479.226 194.667 479.226 194.253V187.503ZM374.156 292.883L479.006 188.033L477.946 186.973L373.096 291.823L374.156 292.883Z" fill="#B3D3EF" fill-opacity="0.25"/>
<path d="M481.75 108.91C481.753 108.496 481.42 108.158 481.005 108.155L474.255 108.109C473.841 108.106 473.503 108.44 473.5 108.854C473.498 109.268 473.831 109.606 474.245 109.609L480.245 109.65L480.204 115.65C480.201 116.064 480.535 116.402 480.949 116.405C481.363 116.407 481.701 116.074 481.704 115.66L481.75 108.91ZM294.846 293.596L481.527 109.439L480.473 108.371L293.793 292.528L294.846 293.596Z" fill="#B3D3EF" fill-opacity="0.25"/>
<path d="M479.226 213.544C479.226 213.13 478.89 212.794 478.476 212.794H471.726C471.312 212.794 470.976 213.13 470.976 213.544C470.976 213.958 471.312 214.294 471.726 214.294H477.726V220.294C477.726 220.708 478.062 221.044 478.476 221.044C478.89 221.044 479.226 220.708 479.226 220.294V213.544ZM399.541 293.54L479.006 214.074L477.946 213.014L398.48 292.479L399.541 293.54Z" fill="#B3D3EF" fill-opacity="0.25"/>
<path d="M479.384 238.981C479.384 238.567 479.048 238.231 478.634 238.231H471.884C471.47 238.231 471.134 238.567 471.134 238.981C471.134 239.396 471.47 239.731 471.884 239.731H477.884V245.731C477.884 246.146 478.22 246.481 478.634 246.481C479.048 246.481 479.384 246.146 479.384 245.731V238.981ZM425.084 293.592L479.165 239.512L478.104 238.451L424.023 292.532L425.084 293.592Z" fill="#B3D3EF" fill-opacity="0.25"/>
<path d="M480.488 264.366C480.488 263.952 480.152 263.616 479.738 263.616H472.988C472.574 263.616 472.238 263.952 472.238 264.366C472.238 264.78 472.574 265.116 472.988 265.116H478.988V271.116C478.988 271.53 479.324 271.866 479.738 271.866C480.152 271.866 480.488 271.53 480.488 271.116V264.366ZM451.572 293.592L480.268 264.897L479.207 263.836L450.512 292.532L451.572 293.592Z" fill="#B3D3EF" fill-opacity="0.25"/>
<path d="M480.805 135.419C480.805 135.005 480.469 134.669 480.055 134.669L473.305 134.669C472.891 134.669 472.555 135.005 472.555 135.419C472.555 135.834 472.891 136.169 473.305 136.169L479.305 136.169V142.169C479.305 142.584 479.641 142.919 480.055 142.919C480.469 142.919 480.805 142.584 480.805 142.169V135.419ZM323.862 292.673L480.586 135.95L479.525 134.889L322.802 291.612L323.862 292.673Z" fill="#B3D3EF" fill-opacity="0.25"/>
<path d="M480.805 161.461C480.805 161.047 480.469 160.711 480.055 160.711L473.305 160.711C472.891 160.711 472.555 161.047 472.555 161.461C472.555 161.876 472.891 162.211 473.305 162.211H479.305V168.211C479.305 168.626 479.641 168.961 480.055 168.961C480.469 168.961 480.805 168.626 480.805 168.211V161.461ZM349.247 293.33L480.586 161.992L479.525 160.931L348.186 292.269L349.247 293.33Z" fill="#B3D3EF" fill-opacity="0.25"/>
<line x1="378.5" y1="167" x2="378.5" y2="97" stroke="#ABD4F2"/>
<rect x="57" y="97" width="324" height="223" fill="white"/>
<line x1="380.5" y1="167" x2="380.5" y2="97" stroke="#ABD4F2"/>
<line y1="-0.5" x2="321" y2="-0.5" transform="matrix(1 0 0 -1 60 96)" stroke="#ABD4F2"/>
<line x1="57.5" y1="96" x2="57.5" y2="238" stroke="#ABD4F2"/>
<line x1="239" y1="319.5" x2="381" y2="319.5" stroke="#ABD4F2"/>
<line x1="339" y1="140.5" x2="98" y2="140.5" stroke="#F0F0F0"/>
<line x1="339" y1="209.5" x2="98" y2="209.5" stroke="#F0F0F0"/>
<line x1="339" y1="276.5" x2="98" y2="276.5" stroke="#F0F0F0"/>
<line x1="287.5" y1="141" x2="287.5" y2="278" stroke="#ABD4F2"/>
<line x1="151" y1="276.5" x2="288" y2="276.5" stroke="#ABD4F2"/>
<line x1="219" y1="209.5" x2="288" y2="209.5" stroke="#ABD4F2"/>
<line x1="219.5" y1="207" x2="219.5" y2="278" stroke="#ABD4F2"/>
<ellipse cx="288" cy="140.5" rx="6" ry="5.5" fill="#0051FF"/>
<ellipse cx="288" cy="208.5" rx="6" ry="5.5" fill="#0051FF"/>
<ellipse cx="288" cy="276.5" rx="6" ry="5.5" fill="#0051FF"/>
<ellipse cx="220" cy="276.5" rx="6" ry="5.5" fill="#0051FF"/>
<ellipse cx="220" cy="208.5" rx="6" ry="5.5" fill="#0051FF"/>
<ellipse cx="152" cy="276.5" rx="6" ry="5.5" fill="#0051FF"/>
<rect x="1" y="30" width="130" height="133" fill="white"/>
<rect x="11" y="40" width="18" height="5" fill="#DAEDFC" fill-opacity="0.45"/>
<path d="M53.7224 72.5466L65.0002 66.0677L76.2779 72.5466C76.4557 72.6395 76.6625 72.6602 76.8552 72.6044C77.0478 72.5485 77.2114 72.4203 77.3118 72.2466C77.4122 72.0729 77.4416 71.8672 77.3939 71.6723C77.3462 71.4775 77.225 71.3086 77.0557 71.201L65.0002 64.271L52.9446 71.201C52.8517 71.2496 52.7695 71.3165 52.7031 71.3977C52.6367 71.4789 52.5874 71.5727 52.5581 71.6735C52.5289 71.7742 52.5204 71.8798 52.533 71.984C52.5457 72.0881 52.5793 72.1886 52.6317 72.2794C52.6842 72.3702 52.7546 72.4495 52.8385 72.5124C52.9224 72.5754 53.0182 72.6207 53.1201 72.6456C53.222 72.6706 53.3278 72.6747 53.4314 72.6576C53.5349 72.6406 53.6339 72.6028 53.7224 72.5466Z" fill="#0051FF"/>
<path d="M54.1113 82.2224C54.1113 82.4287 54.1933 82.6265 54.3391 82.7724C54.485 82.9182 54.6828 83.0002 54.8891 83.0002H75.1113C75.3176 83.0002 75.5154 82.9182 75.6613 82.7724C75.8072 82.6265 75.8891 82.4287 75.8891 82.2224C75.8891 82.0161 75.8072 81.8183 75.6613 81.6724C75.5154 81.5266 75.3176 81.4446 75.1113 81.4446H72.778V75.7124H71.2224V81.4446H65.778V75.7124H64.2224V81.4446H58.778V75.7124H57.2224V81.4446H54.8891C54.6828 81.4446 54.485 81.5266 54.3391 81.6724C54.1933 81.8183 54.1113 82.0161 54.1113 82.2224V82.2224Z" fill="#0051FF"/>
<path d="M54.9043 72.8887H75.1265V74.4442H54.9043V72.8887Z" fill="#0051FF"/>
<path d="M76.6668 84.5557H53.3334C53.1272 84.5557 52.9293 84.6376 52.7835 84.7835C52.6376 84.9293 52.5557 85.1272 52.5557 85.3334C52.5557 85.5397 52.6376 85.7376 52.7835 85.8834C52.9293 86.0293 53.1272 86.1112 53.3334 86.1112H76.6668C76.8731 86.1112 77.0709 86.0293 77.2167 85.8834C77.3626 85.7376 77.4445 85.5397 77.4445 85.3334C77.4445 85.1272 77.3626 84.9293 77.2167 84.7835C77.0709 84.6376 76.8731 84.5557 76.6668 84.5557Z" fill="#0051FF"/>
<path d="M68.2274 71.0065H70.724L65.5051 68.0043C65.4106 67.9496 65.3033 67.9209 65.194 67.9209C65.0848 67.9209 64.9775 67.9496 64.8829 68.0043L59.6562 71.0065H62.1529L65.1863 69.2643L68.2274 71.0065Z" fill="#0051FF"/>
<rect x="29" y="111" width="72" height="25" rx="4" fill="#DAEDFC" fill-opacity="0.45"/>
<line x1="60" y1="30.5" x2="1" y2="30.5" stroke="#ABD4F2"/>
<line x1="129.5" y1="163" x2="129.5" y2="64" stroke="#ABD4F2"/>
<line x1="0.5" y1="96" x2="0.500003" y2="29" stroke="#ABD4F2"/>
<line x1="45" y1="163.5" x2="130" y2="163.5" stroke="#ABD4F2"/>
</svg>