<svg width="341" height="388" viewBox="0 0 341 388" fill="none" xmlns="http://www.w3.org/2000/svg">
<path d="M69.402 259.25C80.4248 259.25 89.3606 250.316 89.3606 239.294C89.3606 228.273 80.4248 219.338 69.402 219.338C58.3791 219.338 49.4434 228.273 49.4434 239.294C49.4434 250.316 58.3791 259.25 69.402 259.25Z" fill="#F9CCAB"/>
<path d="M54.4749 249.272C54.4749 249.272 58.2383 277.642 52.4452 280.814C46.6522 283.985 86.9077 284.28 86.9077 284.28C86.9077 284.28 77.9432 259.673 82.0026 252.148L54.4749 249.272Z" fill="#F9CCAB"/>
<path d="M116.296 283.265L112.956 297.345L105.894 327.11L105.683 328.759L103.23 347.616L101.623 360.131L100.524 368.544C93.8849 371.673 89.1067 373.872 89.1067 373.872C89.1067 373.872 88.6839 371.969 88.0073 369.517C83.3559 370.785 74.772 372.942 67.4567 373.364C70.1207 376.113 71.3469 378.649 69.6555 380.552C64.6659 386.26 44.0307 374.295 36.8422 369.855C36.6731 370.912 36.6308 372.011 36.6731 373.068L31.176 369.136L31.7257 360.131L32.656 344.91L33.7977 325.799C33.4171 324.996 33.1211 324.15 32.8674 323.305C31.176 317.766 29.1463 306.688 27.5395 297.387C26.2709 289.903 25.3406 283.603 25.1292 282.25C25.0869 282.081 25.0869 281.997 25.0869 281.997L55.6168 269.566C57.7734 274.217 67.9218 275.612 67.9218 275.612C76.3366 275.063 82.8908 271.004 82.8908 271.004L116.296 283.265Z" fill="white"/>
<path d="M52.7836 220.394L49.0625 218.915C49.0625 218.915 56.8853 210.332 67.7526 211.051L64.708 207.668C64.708 207.668 72.1925 204.666 78.9582 212.53C82.5101 216.674 86.6541 221.494 89.2335 226.99H93.2505L91.6014 230.669L97.4368 234.347L91.4323 233.67C91.7706 235.7 91.8551 237.729 91.6014 239.759C91.3477 241.788 90.2906 243.649 88.726 244.917C88.726 244.917 84.0747 235.319 84.0747 233.84V237.56C84.0747 237.56 80.3536 234.178 80.3536 231.937L78.2393 234.601L77.2245 230.499L64.6658 234.601L66.6954 231.218L58.8727 232.36L61.9172 228.259C61.9172 228.259 53.0796 233.121 52.7413 237.222C52.403 241.323 49.8237 245.213 49.8237 245.213C49.8237 245.213 42.9312 225.975 52.7836 220.394Z" fill="#0051FF"/>
<path d="M138.03 354.507C136 356.706 130.968 360.046 124.837 363.64C122.553 364.993 120.143 366.346 117.69 367.741C111.813 370.997 105.639 374.252 100.523 376.874C93.8839 380.256 89.1057 382.624 89.1057 382.624C89.1057 382.624 88.6828 380.552 88.0063 377.888C87.1183 374.337 85.7651 369.77 84.3697 367.741C84.3274 367.656 84.2852 367.614 84.2429 367.53C83.82 366.98 83.4395 366.684 83.0166 366.684L103.229 354.169L111.982 348.757L105.681 333.748L97.7741 314.891L102.552 299.712L107.331 284.491H116.295C116.295 284.491 119.255 290.96 123.061 300.008C123.61 301.361 124.202 302.756 124.794 304.236C132.659 323.22 142.385 349.772 138.03 354.507Z" fill="white"/>
<path d="M47.6673 367.53C46.9484 367.53 46.1873 367.572 45.4684 367.699C39.2102 368.756 37.392 374.421 36.8422 378.226C36.6731 379.368 36.6308 380.552 36.6731 381.736L31.176 377.508L29.1463 375.943C24.3258 374.252 20.0127 371.25 16.2494 367.741C12.9934 364.612 10.118 361.188 7.58089 357.467C5.04378 353.788 2.80266 349.941 0.857544 345.967C-0.241871 343.726 -0.284157 341.062 0.730688 338.779L7.58089 323.558L17.5602 301.319C17.6448 300.769 17.7293 300.262 17.8139 299.754C19.8013 288.381 25.087 283.35 25.087 283.35H29.1463L31.8526 299.754L35.2354 320.133L32.8674 327.828L27.4127 345.586L32.6137 351.252L47.6673 367.53Z" fill="white"/>
<rect x="9.73242" y="314.79" width="125.617" height="72.5289" fill="#F8F8F8"/>
<path d="M55.3824 56.4398C52.4897 56.4398 50.1447 54.0964 50.1447 51.2057C50.1447 48.315 52.4897 45.9717 55.3824 45.9717C58.2751 45.9717 60.6201 48.315 60.6201 51.2057C60.6201 54.0964 58.2751 56.4398 55.3824 56.4398Z" fill="#0051FF"/>
<path d="M67.2281 10.4681C64.3354 10.4681 61.9904 8.12473 61.9904 5.23404C61.9904 2.34336 64.3354 0 67.2281 0C70.1208 0 72.4658 2.34336 72.4658 5.23404C72.4658 8.12473 70.1208 10.4681 67.2281 10.4681Z" fill="#0051FF"/>
<path d="M335.762 74.3626C332.87 74.3626 330.525 72.0193 330.525 69.1286C330.525 66.2379 332.87 63.8945 335.762 63.8945C338.655 63.8945 341 66.2379 341 69.1286C341 72.0193 338.655 74.3626 335.762 74.3626Z" fill="#0051FF"/>
<path d="M319.858 217.423C316.965 217.423 314.62 215.08 314.62 212.189C314.62 209.298 316.965 206.955 319.858 206.955C322.751 206.955 325.096 209.298 325.096 212.189C325.096 215.08 322.751 217.423 319.858 217.423Z" fill="#0051FF"/>
<path d="M295.492 22.6234C292.599 22.6234 290.254 20.28 290.254 17.3893C290.254 14.4986 292.599 12.1553 295.492 12.1553C298.384 12.1553 300.729 14.4986 300.729 17.3893C300.729 20.28 298.384 22.6234 295.492 22.6234Z" fill="#0051FF"/>
<path d="M171.37 80.8623H172.047V189.132H171.37V80.8623Z" fill="#D3EBFE"/>
<path d="M171.37 30.8823H172.047V66.4723H171.37V30.8823Z" fill="#D3EBFE"/>
<path d="M194.226 21.8525H194.902V54.8236H194.226V21.8525Z" fill="#D3EBFE"/>
<path d="M194.226 70.5483H194.902V170.848H194.226V70.5483Z" fill="#D3EBFE"/>
<path d="M194.226 186.472V258.712C194.462 258.712 194.665 258.677 194.902 258.642V186.472H194.226Z" fill="#D3EBFE"/>
<path d="M182.72 11.0317H183.396V104.129H182.72V11.0317Z" fill="#D3EBFE"/>
<path d="M182.456 116.645H183.133V331.988H182.456V116.645Z" fill="#D3EBFE"/>
<path d="M170.961 201.704V258.076C171.198 258.11 171.401 258.144 171.638 258.211V201.704H170.961Z" fill="#D3EBFE"/>
<path d="M205.635 201.885V258.257C205.872 258.223 206.075 258.189 206.312 258.122V201.885H205.635Z" fill="#D3EBFE"/>
<path d="M217.237 47.8921H217.914V68.9936H217.237V47.8921Z" fill="#D3EBFE"/>
<path d="M217.237 84.8535H217.914V181.129H217.237V84.8535Z" fill="#D3EBFE"/>
<path d="M240.248 65.8145H240.925V106.699H240.248V65.8145Z" fill="#D3EBFE"/>
<path d="M240.248 120.259H240.925V181.129H240.248V120.259Z" fill="#D3EBFE"/>
<path d="M251.753 76.6357H252.43V144.776H251.753V76.6357Z" fill="#D3EBFE"/>
<path d="M251.753 157.457H252.43V181.129H251.753V157.457Z" fill="#D3EBFE"/>
<path d="M263.26 86.7808H263.937V109.641H263.26V86.7808Z" fill="#D3EBFE"/>
<path d="M263.26 124.587H263.937V181.129H263.26V124.587Z" fill="#D3EBFE"/>
<path d="M286.27 116.539H286.947V145.926H286.27V116.539Z" fill="#D3EBFE"/>
<path d="M286.27 159.351H286.947V181.129H286.27V159.351Z" fill="#D3EBFE"/>
<path d="M148.698 55.6694H149.375V75.7564H148.698V55.6694Z" fill="#D3EBFE"/>
<path d="M148.698 89.1816H149.375V181.129H148.698V89.1816Z" fill="#D3EBFE"/>
<path d="M137.192 74.9443H137.869V86.7801H137.192V74.9443Z" fill="#D3EBFE"/>
<path d="M137.192 100.071H137.869V158.878H137.192V100.071Z" fill="#D3EBFE"/>
<path d="M137.192 170.849H137.869V181.129H137.192V170.849Z" fill="#D3EBFE"/>
<path d="M114.181 86.7808H114.857V120.259H114.181V86.7808Z" fill="#D3EBFE"/>
<path d="M114.181 132.906H114.857V181.129H114.181V132.906Z" fill="#D3EBFE"/>
<path d="M206.07 199.051C207.931 199.051 209.454 197.53 209.454 195.67C209.454 193.81 207.931 192.288 206.07 192.288C204.209 192.288 202.686 193.81 202.686 195.67C202.686 197.53 204.209 199.051 206.07 199.051ZM206.07 192.964C207.559 192.964 208.777 194.182 208.777 195.67C208.777 197.158 207.559 198.375 206.07 198.375C204.581 198.375 203.363 197.158 203.363 195.67C203.363 194.182 204.581 192.964 206.07 192.964Z" fill="#D3EBFE"/>
<path d="M194.564 181.468C196.425 181.468 197.948 179.946 197.948 178.086C197.948 176.226 196.425 174.705 194.564 174.705C192.703 174.705 191.18 176.226 191.18 178.086C191.18 179.946 192.703 181.468 194.564 181.468ZM194.564 175.381C196.053 175.381 197.271 176.598 197.271 178.086C197.271 179.574 196.053 180.792 194.564 180.792C193.075 180.792 191.857 179.574 191.857 178.086C191.857 176.598 193.075 175.381 194.564 175.381Z" fill="#D3EBFE"/>
<path d="M171.709 199.051C173.57 199.051 175.093 197.53 175.093 195.67C175.093 193.81 173.57 192.288 171.709 192.288C169.848 192.288 168.325 193.81 168.325 195.67C168.325 197.53 169.848 199.051 171.709 199.051ZM171.709 192.964C173.198 192.964 174.416 194.182 174.416 195.67C174.416 197.158 173.198 198.375 171.709 198.375C170.22 198.375 169.002 197.158 169.002 195.67C169.002 194.182 170.22 192.964 171.709 192.964Z" fill="#D3EBFE"/>
<path d="M172.047 76.9738C173.908 76.9738 175.431 75.452 175.431 73.5921C175.431 71.7322 173.908 70.2104 172.047 70.2104C170.185 70.2104 168.663 71.7322 168.663 73.5921C168.663 75.452 170.185 76.9738 172.047 76.9738ZM172.047 70.8868C173.536 70.8868 174.754 72.1042 174.754 73.5921C174.754 75.08 173.536 76.2974 172.047 76.2974C170.558 76.2974 169.339 75.08 169.339 73.5921C169.339 72.1042 170.558 70.8868 172.047 70.8868Z" fill="#D3EBFE"/>
<path d="M240.587 116.877C242.448 116.877 243.971 115.355 243.971 113.495C243.971 111.636 242.448 110.114 240.587 110.114C238.725 110.114 237.203 111.636 237.203 113.495C237.203 115.355 238.725 116.877 240.587 116.877ZM240.587 110.79C242.076 110.79 243.294 112.007 243.294 113.495C243.294 114.983 242.076 116.201 240.587 116.201C239.098 116.201 237.879 114.983 237.879 113.495C237.879 112.007 239.098 110.79 240.587 110.79Z" fill="#D3EBFE"/>
<path d="M263.597 119.922C265.459 119.922 266.981 118.4 266.981 116.54C266.981 114.68 265.459 113.158 263.597 113.158C261.736 113.158 260.213 114.68 260.213 116.54C260.213 118.4 261.736 119.922 263.597 119.922ZM263.597 113.835C265.086 113.835 266.305 115.052 266.305 116.54C266.305 118.028 265.086 119.245 263.597 119.245C262.108 119.245 260.89 118.028 260.89 116.54C260.89 115.052 262.108 113.835 263.597 113.835Z" fill="#D3EBFE"/>
<path d="M171.709 28.0851C173.57 28.0851 175.093 26.5633 175.093 24.7034C175.093 22.8435 173.57 21.3218 171.709 21.3218C169.848 21.3218 168.325 22.8435 168.325 24.7034C168.325 26.5633 169.848 28.0851 171.709 28.0851ZM171.709 21.9981C173.198 21.9981 174.416 23.2155 174.416 24.7034C174.416 26.1914 173.198 27.4087 171.709 27.4087C170.22 27.4087 169.002 26.1914 169.002 24.7034C169.002 23.2155 170.22 21.9981 171.709 21.9981Z" fill="#D3EBFE"/>
<path d="M217.576 80.0172C219.437 80.0172 220.96 78.4955 220.96 76.6356C220.96 74.7756 219.437 73.2539 217.576 73.2539C215.715 73.2539 214.192 74.7756 214.192 76.6356C214.192 78.4955 215.715 80.0172 217.576 80.0172ZM217.576 73.9302C219.065 73.9302 220.283 75.1476 220.283 76.6356C220.283 78.1235 219.065 79.3409 217.576 79.3409C216.087 79.3409 214.869 78.1235 214.869 76.6356C214.869 75.1476 216.087 73.9302 217.576 73.9302Z" fill="#D3EBFE"/>
<path d="M286.609 156.105C288.47 156.105 289.993 154.583 289.993 152.723C289.993 150.863 288.47 149.341 286.609 149.341C284.748 149.341 283.225 150.863 283.225 152.723C283.225 154.583 284.748 156.105 286.609 156.105ZM286.609 150.018C288.098 150.018 289.316 151.235 289.316 152.723C289.316 154.211 288.098 155.428 286.609 155.428C285.12 155.428 283.902 154.211 283.902 152.723C283.902 151.235 285.12 150.018 286.609 150.018Z" fill="#D3EBFE"/>
<path d="M92.1836 116.539H92.8604V145.926H92.1836V116.539Z" fill="#D3EBFE"/>
<path d="M92.1836 159.351H92.8604V181.129H92.1836V159.351Z" fill="#D3EBFE"/>
<path d="M92.5222 156.105C94.3834 156.105 95.9062 154.583 95.9062 152.723C95.9062 150.863 94.3834 149.341 92.5222 149.341C90.661 149.341 89.1382 150.863 89.1382 152.723C89.1382 154.583 90.661 156.105 92.5222 156.105ZM92.5222 150.018C94.0112 150.018 95.2294 151.235 95.2294 152.723C95.2294 154.211 94.0112 155.428 92.5222 155.428C91.0333 155.428 89.815 154.211 89.815 152.723C89.815 151.235 91.0333 150.018 92.5222 150.018Z" fill="#D3EBFE"/>
<path d="M114.518 129.389C116.38 129.389 117.902 127.867 117.902 126.007C117.902 124.147 116.38 122.625 114.518 122.625C112.657 122.625 111.134 124.147 111.134 126.007C111.134 127.867 112.657 129.389 114.518 129.389ZM114.518 123.302C116.007 123.302 117.226 124.519 117.226 126.007C117.226 127.495 116.007 128.712 114.518 128.712C113.029 128.712 111.811 127.495 111.811 126.007C111.811 124.519 113.029 123.302 114.518 123.302Z" fill="#D3EBFE"/>
<path d="M137.53 168.278C139.391 168.278 140.914 166.757 140.914 164.897C140.914 163.037 139.391 161.515 137.53 161.515C135.669 161.515 134.146 163.037 134.146 164.897C134.146 166.757 135.669 168.278 137.53 168.278ZM137.53 162.191C139.019 162.191 140.237 163.409 140.237 164.897C140.237 166.385 139.019 167.602 137.53 167.602C136.041 167.602 134.823 166.385 134.823 164.897C134.823 163.409 136.041 162.191 137.53 162.191Z" fill="#D3EBFE"/>
<path d="M137.53 96.9254C139.391 96.9254 140.914 95.4037 140.914 93.5438C140.914 91.6839 139.391 90.1621 137.53 90.1621C135.669 90.1621 134.146 91.6839 134.146 93.5438C134.146 95.4037 135.669 96.9254 137.53 96.9254ZM137.53 90.8384C139.019 90.8384 140.237 92.0558 140.237 93.5438C140.237 95.0317 139.019 96.2491 137.53 96.2491C136.041 96.2491 134.823 95.0317 134.823 93.5438C134.823 92.0558 136.041 90.8384 137.53 90.8384Z" fill="#D3EBFE"/>
<path d="M54.2836 85.428L114.857 84.4135V83.7371L54.9604 84.7516V55.6694H54.2836V85.428Z" fill="#0051FF"/>
<path d="M183.058 113.834C184.92 113.834 186.442 112.312 186.442 110.452C186.442 108.593 184.92 107.071 183.058 107.071C181.197 107.071 179.674 108.593 179.674 110.452C179.674 112.312 181.197 113.834 183.058 113.834Z" fill="#D3EBFE"/>
<path d="M148.731 82.1817L149.34 81.9111L117.462 5.62109H66.4653V6.29742H116.989L148.731 82.1817Z" fill="#0051FF"/>
<path d="M182.72 110.79H335.339V73.9302H334.662V110.114H182.72V110.79Z" fill="#0051FF"/>
<path d="M194.563 63.1087H295.745V21.8525H295.068V62.4323H194.563V63.1087Z" fill="#0051FF"/>
<path d="M251.754 213.254H319.096V212.578H252.431V150.693H251.754V213.254Z" fill="#0051FF"/>
<path d="M252.093 154.414C253.954 154.414 255.477 152.892 255.477 151.032C255.477 149.172 253.954 147.65 252.093 147.65C250.231 147.65 248.709 149.172 248.709 151.032C248.709 152.892 250.231 154.414 252.093 154.414Z" fill="#D3EBFE"/>
<path d="M194.564 66.153C196.425 66.153 197.948 64.6312 197.948 62.7713C197.948 60.9114 196.425 59.3896 194.564 59.3896C192.703 59.3896 191.18 60.9114 191.18 62.7713C191.18 64.6312 192.703 66.153 194.564 66.153Z" fill="#D3EBFE"/>
<path d="M114.518 87.1183C116.38 87.1183 117.902 85.5965 117.902 83.7366C117.902 81.8767 116.38 80.355 114.518 80.355C112.657 80.355 111.134 81.8767 111.134 83.7366C111.134 85.5965 112.657 87.1183 114.518 87.1183Z" fill="#D3EBFE"/>
<path d="M149.035 85.4278C150.896 85.4278 152.419 83.9061 152.419 82.0462C152.419 80.1863 150.896 78.6646 149.035 78.6646C147.174 78.6646 145.651 80.1863 145.651 82.0462C145.651 83.9061 147.174 85.4278 149.035 85.4278Z" fill="#D3EBFE"/>
<path d="M50.8571 270.674L21.696 282.637L14.2188 303.574" stroke="#B5D9F3"/>
<path d="M94.2246 275.909L118.152 283.6L131.611 311.8" stroke="#B5D9F3"/>
<path d="M183.203 331.988L135.349 331.988" stroke="#D3EBFE"/>
<path d="M69.2809 339H78.9588L63.6779 363.959H54L69.2809 339Z" fill="white"/>
<path d="M78.3225 351.225H88.0004L80.2326 363.959H70.5547L78.3225 351.225Z" fill="white"/>
</svg>