<svg width="575" height="312" viewBox="0 0 575 312" fill="none" xmlns="http://www.w3.org/2000/svg">
<line x1="106" y1="310.953" x2="279" y2="310.953" stroke="#ABD4F2"/>
<line x1="106.5" y1="310.453" x2="106.5" y2="196.453" stroke="#ABD4F2"/>
<line x1="414.5" y1="204.453" x2="414.5" y2="90.4526" stroke="#ABD4F2"/>
<path d="M327.512 17.4023H323.649V21.258H327.512V17.4023Z" fill="#EAF6FF"/>
<path d="M335.089 24.9653H331.226V28.821H335.089V24.9653Z" fill="#EAF6FF"/>
<path d="M342.616 17.4023H338.753V21.258H342.616V17.4023Z" fill="#EAF6FF"/>
<path d="M331.232 90.7073H327.37V94.5629H331.232V90.7073Z" fill="#EAF6FF"/>
<path d="M331.232 136.036H327.37V139.892H331.232V136.036Z" fill="#EAF6FF"/>
<path d="M331.232 143.599H327.37V147.454H331.232V143.599Z" fill="#EAF6FF"/>
<path d="M331.232 151.162H327.37V155.017H331.232V151.162Z" fill="#EAF6FF"/>
<path d="M338.809 75.5811H334.947V79.4367H338.809V75.5811Z" fill="#EAF6FF"/>
<path d="M338.809 83.144H334.947V86.9998H338.809V83.144Z" fill="#EAF6FF"/>
<path d="M338.809 128.473H334.947V132.328H338.809V128.473Z" fill="#EAF6FF"/>
<path d="M338.809 136.036H334.947V139.892H338.809V136.036Z" fill="#EAF6FF"/>
<path d="M338.809 143.599H334.947V147.454H338.809V143.599Z" fill="#EAF6FF"/>
<path d="M338.809 151.162H334.947V155.017H338.809V151.162Z" fill="#EAF6FF"/>
<path d="M346.387 83.144H342.524V86.9998H346.387V83.144Z" fill="#EAF6FF"/>
<path d="M346.387 90.7073H342.524V94.5629H346.387V90.7073Z" fill="#EAF6FF"/>
<path d="M346.387 98.27H342.524V102.126H346.387V98.27Z" fill="#EAF6FF"/>
<path d="M346.387 113.347H342.524V117.203H346.387V113.347Z" fill="#EAF6FF"/>
<path d="M346.387 128.473H342.524V132.328H346.387V128.473Z" fill="#EAF6FF"/>
<path d="M346.387 136.036H342.524V139.892H346.387V136.036Z" fill="#EAF6FF"/>
<path d="M346.387 143.599H342.524V147.454H346.387V143.599Z" fill="#EAF6FF"/>
<path d="M346.387 151.162H342.524V155.017H346.387V151.162Z" fill="#EAF6FF"/>
<path d="M353.964 98.27H350.101V102.126H353.964V98.27Z" fill="#EAF6FF"/>
<path d="M353.964 113.347H350.101V117.203H353.964V113.347Z" fill="#EAF6FF"/>
<path d="M353.964 120.909H350.101V124.765H353.964V120.909Z" fill="#EAF6FF"/>
<path d="M353.964 128.473H350.101V132.328H353.964V128.473Z" fill="#EAF6FF"/>
<path d="M353.964 136.036H350.101V139.892H353.964V136.036Z" fill="#EAF6FF"/>
<path d="M361.54 105.783H357.678V109.639H361.54V105.783Z" fill="#EAF6FF"/>
<path d="M361.54 113.347H357.678V117.203H361.54V113.347Z" fill="#EAF6FF"/>
<path d="M361.54 120.909H357.678V124.765H361.54V120.909Z" fill="#EAF6FF"/>
<path d="M361.54 128.473H357.678V132.328H361.54V128.473Z" fill="#EAF6FF"/>
<path d="M369.067 60.4541H365.205V64.3098H369.067V60.4541Z" fill="#EAF6FF"/>
<path d="M369.067 68.0178H365.205V71.8735H369.067V68.0178Z" fill="#EAF6FF"/>
<path d="M369.067 98.27H365.205V102.126H369.067V98.27Z" fill="#EAF6FF"/>
<path d="M369.067 105.783H365.205V109.639H369.067V105.783Z" fill="#EAF6FF"/>
<path d="M369.067 113.347H365.205V117.203H369.067V113.347Z" fill="#EAF6FF"/>
<path d="M369.067 120.909H365.205V124.765H369.067V120.909Z" fill="#EAF6FF"/>
<path d="M369.067 128.473H365.205V132.328H369.067V128.473Z" fill="#EAF6FF"/>
<path d="M389.48 143.598H385.618V147.454H389.48V143.598Z" fill="#EAF6FF"/>
<path d="M376.643 52.8918H372.78V56.7475H376.643V52.8918Z" fill="#EAF6FF"/>
<path d="M376.643 60.4541H372.78V64.3098H376.643V60.4541Z" fill="#EAF6FF"/>
<path d="M376.643 68.0178H372.78V71.8735H376.643V68.0178Z" fill="#EAF6FF"/>
<path d="M376.643 90.7073H372.78V94.5629H376.643V90.7073Z" fill="#EAF6FF"/>
<path d="M376.643 98.27H372.78V102.126H376.643V98.27Z" fill="#EAF6FF"/>
<path d="M376.643 105.783H372.78V109.639H376.643V105.783Z" fill="#EAF6FF"/>
<path d="M376.643 113.347H372.78V117.203H376.643V113.347Z" fill="#EAF6FF"/>
<path d="M376.643 120.909H372.78V124.765H376.643V120.909Z" fill="#EAF6FF"/>
<path d="M376.643 128.473H372.78V132.328H376.643V128.473Z" fill="#EAF6FF"/>
<path d="M376.643 143.598H372.78V147.454H376.643V143.598Z" fill="#EAF6FF"/>
<path d="M384.219 37.8152H380.357V41.6709H384.219V37.8152Z" fill="#EAF6FF"/>
<path d="M384.219 45.3779H380.357V49.2336H384.219V45.3779Z" fill="#EAF6FF"/>
<path d="M384.219 52.8918H380.357V56.7475H384.219V52.8918Z" fill="#EAF6FF"/>
<path d="M384.219 60.4541H380.357V64.3098H384.219V60.4541Z" fill="#EAF6FF"/>
<path d="M384.219 68.0178H380.357V71.8735H384.219V68.0178Z" fill="#EAF6FF"/>
<path d="M384.219 75.5811H380.357V79.4367H384.219V75.5811Z" fill="#EAF6FF"/>
<path d="M376.643 83.144H372.78V86.9998H376.643V83.144Z" fill="#EAF6FF"/>
<path d="M384.219 90.7073H380.357V94.5629H384.219V90.7073Z" fill="#EAF6FF"/>
<path d="M384.219 98.27H380.357V102.126H384.219V98.27Z" fill="#EAF6FF"/>
<path d="M384.219 105.783H380.357V109.639H384.219V105.783Z" fill="#EAF6FF"/>
<path d="M384.219 113.347H380.357V117.203H384.219V113.347Z" fill="#EAF6FF"/>
<path d="M384.219 120.909H380.357V124.765H384.219V120.909Z" fill="#EAF6FF"/>
<path d="M384.219 128.473H380.357V132.328H384.219V128.473Z" fill="#EAF6FF"/>
<path d="M391.797 30.2522H387.934V34.1078H391.797V30.2522Z" fill="#EAF6FF"/>
<path d="M391.797 37.8152H387.934V41.6709H391.797V37.8152Z" fill="#EAF6FF"/>
<path d="M391.797 45.3779H387.934V49.2336H391.797V45.3779Z" fill="#EAF6FF"/>
<path d="M391.797 52.8918H387.934V56.7475H391.797V52.8918Z" fill="#EAF6FF"/>
<path d="M391.797 68.0178H387.934V71.8735H391.797V68.0178Z" fill="#EAF6FF"/>
<path d="M391.797 75.5811H387.934V79.4367H391.797V75.5811Z" fill="#EAF6FF"/>
<path d="M391.797 90.7073H387.934V94.5629H391.797V90.7073Z" fill="#EAF6FF"/>
<path d="M391.797 98.27H387.934V102.126H391.797V98.27Z" fill="#EAF6FF"/>
<path d="M391.797 105.783H387.934V109.639H391.797V105.783Z" fill="#EAF6FF"/>
<path d="M391.797 113.347H387.934V117.203H391.797V113.347Z" fill="#EAF6FF"/>
<path d="M391.797 136.036H387.934V139.892H391.797V136.036Z" fill="#EAF6FF"/>
<path d="M399.374 22.6892H395.512V26.5449H399.374V22.6892Z" fill="#EAF6FF"/>
<path d="M399.374 30.2522H395.512V34.1078H399.374V30.2522Z" fill="#EAF6FF"/>
<path d="M399.374 37.8152H395.512V41.6709H399.374V37.8152Z" fill="#EAF6FF"/>
<path d="M399.374 90.7073H395.512V94.5629H399.374V90.7073Z" fill="#EAF6FF"/>
<path d="M399.374 98.27H395.512V102.126H399.374V98.27Z" fill="#EAF6FF"/>
<path d="M399.374 105.783H395.512V109.639H399.374V105.783Z" fill="#EAF6FF"/>
<path d="M399.374 113.347H395.512V117.203H399.374V113.347Z" fill="#EAF6FF"/>
<path d="M399.374 120.909H395.512V124.765H399.374V120.909Z" fill="#EAF6FF"/>
<path d="M406.948 143.598H403.085V147.454H406.948V143.598Z" fill="#EAF6FF"/>
<path d="M406.95 15.126H403.087V18.9817H406.95V15.126Z" fill="#EAF6FF"/>
<path d="M406.95 22.6892H403.087V26.5449H406.95V22.6892Z" fill="#EAF6FF"/>
<path d="M406.95 30.2522H403.087V34.1078H406.95V30.2522Z" fill="#EAF6FF"/>
<path d="M406.95 52.8918H403.087V56.7475H406.95V52.8918Z" fill="#EAF6FF"/>
<path d="M406.95 60.4541H403.087V64.3098H406.95V60.4541Z" fill="#EAF6FF"/>
<path d="M406.95 75.5811H403.087V79.4367H406.95V75.5811Z" fill="#EAF6FF"/>
<path d="M406.95 83.144H403.087V86.9998H406.95V83.144Z" fill="#EAF6FF"/>
<path d="M406.95 90.7073H403.087V94.5629H406.95V90.7073Z" fill="#EAF6FF"/>
<path d="M406.95 98.27H403.087V102.126H406.95V98.27Z" fill="#EAF6FF"/>
<path d="M406.95 105.783H403.087V109.639H406.95V105.783Z" fill="#EAF6FF"/>
<path d="M406.95 113.347H403.087V117.203H406.95V113.347Z" fill="#EAF6FF"/>
<path d="M406.95 120.909H403.087V124.765H406.95V120.909Z" fill="#EAF6FF"/>
<path d="M406.95 128.473H403.087V132.328H406.95V128.473Z" fill="#EAF6FF"/>
<path d="M406.95 136.036H403.087V139.892H406.95V136.036Z" fill="#EAF6FF"/>
<path d="M414.527 15.126H410.664V18.9817H414.527V15.126Z" fill="#EAF6FF"/>
<path d="M414.527 22.6892H410.664V26.5449H414.527V22.6892Z" fill="#EAF6FF"/>
<path d="M414.527 30.2522H410.664V34.1078H414.527V30.2522Z" fill="#EAF6FF"/>
<path d="M414.527 37.8152H410.664V41.6709H414.527V37.8152Z" fill="#EAF6FF"/>
<path d="M414.527 45.3779H410.664V49.2336H414.527V45.3779Z" fill="#EAF6FF"/>
<path d="M414.527 60.4541H410.664V64.3098H414.527V60.4541Z" fill="#EAF6FF"/>
<path d="M414.527 68.0178H410.664V71.8735H414.527V68.0178Z" fill="#EAF6FF"/>
<path d="M414.527 75.5811H410.664V79.4367H414.527V75.5811Z" fill="#EAF6FF"/>
<path d="M414.527 83.144H410.664V86.9998H414.527V83.144Z" fill="#EAF6FF"/>
<path d="M414.527 90.7073H410.664V94.5629H414.527V90.7073Z" fill="#EAF6FF"/>
<path d="M414.527 98.27H410.664V102.126H414.527V98.27Z" fill="#EAF6FF"/>
<path d="M414.527 105.783H410.664V109.639H414.527V105.783Z" fill="#EAF6FF"/>
<path d="M414.527 113.347H410.664V117.203H414.527V113.347Z" fill="#EAF6FF"/>
<path d="M414.527 120.909H410.664V124.765H414.527V120.909Z" fill="#EAF6FF"/>
<path d="M414.527 128.473H410.664V132.328H414.527V128.473Z" fill="#EAF6FF"/>
<path d="M414.527 136.036H410.664V139.892H414.527V136.036Z" fill="#EAF6FF"/>
<path d="M414.527 143.599H410.664V147.454H414.527V143.599Z" fill="#EAF6FF"/>
<path d="M422.054 15.126H418.191V18.9817H422.054V15.126Z" fill="#EAF6FF"/>
<path d="M422.054 22.6892H418.191V26.5449H422.054V22.6892Z" fill="#EAF6FF"/>
<path d="M422.054 30.2522H418.191V34.1078H422.054V30.2522Z" fill="#EAF6FF"/>
<path d="M422.054 37.8152H418.191V41.6709H422.054V37.8152Z" fill="#EAF6FF"/>
<path d="M422.054 45.3779H418.191V49.2336H422.054V45.3779Z" fill="#EAF6FF"/>
<path d="M422.054 60.4541H418.191V64.3098H422.054V60.4541Z" fill="#EAF6FF"/>
<path d="M422.054 68.0178H418.191V71.8735H422.054V68.0178Z" fill="#EAF6FF"/>
<path d="M422.054 75.5811H418.191V79.4367H422.054V75.5811Z" fill="#EAF6FF"/>
<path d="M422.054 83.144H418.191V86.9998H422.054V83.144Z" fill="#EAF6FF"/>
<path d="M422.054 90.7073H418.191V94.5629H422.054V90.7073Z" fill="#EAF6FF"/>
<path d="M422.054 98.27H418.191V102.126H422.054V98.27Z" fill="#EAF6FF"/>
<path d="M422.054 105.783H418.191V109.639H422.054V105.783Z" fill="#EAF6FF"/>
<path d="M422.054 113.347H418.191V117.203H422.054V113.347Z" fill="#EAF6FF"/>
<path d="M422.054 120.909H418.191V124.765H422.054V120.909Z" fill="#EAF6FF"/>
<path d="M422.054 128.473H418.191V132.328H422.054V128.473Z" fill="#EAF6FF"/>
<path d="M422.054 136.036H418.191V139.892H422.054V136.036Z" fill="#EAF6FF"/>
<path d="M429.631 22.6892H425.769V26.5449H429.631V22.6892Z" fill="#EAF6FF"/>
<path d="M429.631 30.2522H425.769V34.1078H429.631V30.2522Z" fill="#EAF6FF"/>
<path d="M429.631 45.3779H425.769V49.2336H429.631V45.3779Z" fill="#EAF6FF"/>
<path d="M429.631 52.8918H425.769V56.7475H429.631V52.8918Z" fill="#EAF6FF"/>
<path d="M429.631 68.0178H425.769V71.8735H429.631V68.0178Z" fill="#EAF6FF"/>
<path d="M429.631 75.5811H425.769V79.4367H429.631V75.5811Z" fill="#EAF6FF"/>
<path d="M429.631 83.144H425.769V86.9998H429.631V83.144Z" fill="#EAF6FF"/>
<path d="M429.631 90.7073H425.769V94.5629H429.631V90.7073Z" fill="#EAF6FF"/>
<path d="M429.631 98.27H425.769V102.126H429.631V98.27Z" fill="#EAF6FF"/>
<path d="M429.631 105.783H425.769V109.639H429.631V105.783Z" fill="#EAF6FF"/>
<path d="M429.631 113.347H425.769V117.203H429.631V113.347Z" fill="#EAF6FF"/>
<path d="M429.631 120.909H425.769V124.765H429.631V120.909Z" fill="#EAF6FF"/>
<path d="M429.631 143.599H425.769V147.454H429.631V143.599Z" fill="#EAF6FF"/>
<path d="M437.208 22.6892H433.346V26.5449H437.208V22.6892Z" fill="#EAF6FF"/>
<path d="M437.208 30.2522H433.346V34.1078H437.208V30.2522Z" fill="#EAF6FF"/>
<path d="M437.208 60.4541H433.346V64.3098H437.208V60.4541Z" fill="#EAF6FF"/>
<path d="M437.208 68.0178H433.346V71.8735H437.208V68.0178Z" fill="#EAF6FF"/>
<path d="M437.208 75.5811H433.346V79.4367H437.208V75.5811Z" fill="#EAF6FF"/>
<path d="M437.208 83.144H433.346V86.9998H437.208V83.144Z" fill="#EAF6FF"/>
<path d="M437.208 90.7073H433.346V94.5629H437.208V90.7073Z" fill="#EAF6FF"/>
<path d="M437.208 98.27H433.346V102.126H437.208V98.27Z" fill="#EAF6FF"/>
<path d="M437.208 105.783H433.346V109.639H437.208V105.783Z" fill="#EAF6FF"/>
<path d="M437.208 113.347H433.346V117.203H437.208V113.347Z" fill="#EAF6FF"/>
<path d="M437.208 136.036H433.346V139.892H437.208V136.036Z" fill="#EAF6FF"/>
<path d="M437.208 143.599H433.346V147.454H437.208V143.599Z" fill="#EAF6FF"/>
<path d="M444.785 30.2522H440.922V34.1078H444.785V30.2522Z" fill="#EAF6FF"/>
<path d="M444.785 45.3779H440.922V49.2336H444.785V45.3779Z" fill="#EAF6FF"/>
<path d="M444.785 52.8918H440.922V56.7475H444.785V52.8918Z" fill="#EAF6FF"/>
<path d="M444.785 60.4541H440.922V64.3098H444.785V60.4541Z" fill="#EAF6FF"/>
<path d="M444.785 75.5811H440.922V79.4367H444.785V75.5811Z" fill="#EAF6FF"/>
<path d="M444.785 83.144H440.922V86.9998H444.785V83.144Z" fill="#EAF6FF"/>
<path d="M444.785 90.7073H440.922V94.5629H444.785V90.7073Z" fill="#EAF6FF"/>
<path d="M444.785 98.27H440.922V102.126H444.785V98.27Z" fill="#EAF6FF"/>
<path d="M444.785 105.783H440.922V109.639H444.785V105.783Z" fill="#EAF6FF"/>
<path d="M444.785 113.347H440.922V117.203H444.785V113.347Z" fill="#EAF6FF"/>
<path d="M444.785 120.909H440.922V124.765H444.785V120.909Z" fill="#EAF6FF"/>
<path d="M444.785 128.473H440.922V132.328H444.785V128.473Z" fill="#EAF6FF"/>
<path d="M452.361 22.6892H448.499V26.5449H452.361V22.6892Z" fill="#EAF6FF"/>
<path d="M452.361 37.8152H448.499V41.6709H452.361V37.8152Z" fill="#EAF6FF"/>
<path d="M452.361 45.3779H448.499V49.2336H452.361V45.3779Z" fill="#EAF6FF"/>
<path d="M452.361 52.8918H448.499V56.7475H452.361V52.8918Z" fill="#EAF6FF"/>
<path d="M452.361 60.4541H448.499V64.3098H452.361V60.4541Z" fill="#EAF6FF"/>
<path d="M452.361 68.0178H448.499V71.8735H452.361V68.0178Z" fill="#EAF6FF"/>
<path d="M452.361 75.5811H448.499V79.4367H452.361V75.5811Z" fill="#EAF6FF"/>
<path d="M452.361 83.144H448.499V86.9998H452.361V83.144Z" fill="#EAF6FF"/>
<path d="M452.361 90.7073H448.499V94.5629H452.361V90.7073Z" fill="#EAF6FF"/>
<path d="M452.361 98.27H448.499V102.126H452.361V98.27Z" fill="#EAF6FF"/>
<path d="M452.361 105.783H448.499V109.639H452.361V105.783Z" fill="#EAF6FF"/>
<path d="M452.361 113.347H448.499V117.203H452.361V113.347Z" fill="#EAF6FF"/>
<path d="M452.361 120.909H448.499V124.765H452.361V120.909Z" fill="#EAF6FF"/>
<path d="M459.938 15.126H456.076V18.9817H459.938V15.126Z" fill="#EAF6FF"/>
<path d="M459.938 30.2522H456.076V34.1078H459.938V30.2522Z" fill="#EAF6FF"/>
<path d="M459.938 37.8152H456.076V41.6709H459.938V37.8152Z" fill="#EAF6FF"/>
<path d="M459.938 45.3779H456.076V49.2336H459.938V45.3779Z" fill="#EAF6FF"/>
<path d="M459.938 52.8918H456.076V56.7475H459.938V52.8918Z" fill="#EAF6FF"/>
<path d="M459.938 60.4541H456.076V64.3098H459.938V60.4541Z" fill="#EAF6FF"/>
<path d="M459.938 68.0178H456.076V71.8735H459.938V68.0178Z" fill="#EAF6FF"/>
<path d="M459.938 75.5811H456.076V79.4367H459.938V75.5811Z" fill="#EAF6FF"/>
<path d="M459.938 83.144H456.076V86.9998H459.938V83.144Z" fill="#EAF6FF"/>
<path d="M459.938 90.7073H456.076V94.5629H459.938V90.7073Z" fill="#EAF6FF"/>
<path d="M459.938 98.27H456.076V102.126H459.938V98.27Z" fill="#EAF6FF"/>
<path d="M459.938 105.783H456.076V109.639H459.938V105.783Z" fill="#EAF6FF"/>
<path d="M459.938 113.347H456.076V117.203H459.938V113.347Z" fill="#EAF6FF"/>
<path d="M459.938 120.909H456.076V124.765H459.938V120.909Z" fill="#EAF6FF"/>
<path d="M467.515 0H463.652V3.85567H467.515V0Z" fill="#EAF6FF"/>
<path d="M467.515 22.6892H463.652V26.5449H467.515V22.6892Z" fill="#EAF6FF"/>
<path d="M467.515 30.2522H463.652V34.1078H467.515V30.2522Z" fill="#EAF6FF"/>
<path d="M467.515 37.8152H463.652V41.6709H467.515V37.8152Z" fill="#EAF6FF"/>
<path d="M467.515 45.3779H463.652V49.2336H467.515V45.3779Z" fill="#EAF6FF"/>
<path d="M467.515 52.8918H463.652V56.7475H467.515V52.8918Z" fill="#EAF6FF"/>
<path d="M467.515 60.4541H463.652V64.3098H467.515V60.4541Z" fill="#EAF6FF"/>
<path d="M467.515 68.0178H463.652V71.8735H467.515V68.0178Z" fill="#EAF6FF"/>
<path d="M467.515 75.5811H463.652V79.4367H467.515V75.5811Z" fill="#EAF6FF"/>
<path d="M467.515 83.144H463.652V86.9998H467.515V83.144Z" fill="#EAF6FF"/>
<path d="M467.515 90.7073H463.652V94.5629H467.515V90.7073Z" fill="#EAF6FF"/>
<path d="M467.515 98.27H463.652V102.126H467.515V98.27Z" fill="#EAF6FF"/>
<path d="M467.515 105.783H463.652V109.639H467.515V105.783Z" fill="#EAF6FF"/>
<path d="M467.515 113.347H463.652V117.203H467.515V113.347Z" fill="#EAF6FF"/>
<path d="M467.515 120.909H463.652V124.765H467.515V120.909Z" fill="#EAF6FF"/>
<path d="M467.515 128.473H463.652V132.328H467.515V128.473Z" fill="#EAF6FF"/>
<path d="M475.092 0H471.229V3.85567H475.092V0Z" fill="#EAF6FF"/>
<path d="M475.092 7.56226H471.229V11.4179H475.092V7.56226Z" fill="#EAF6FF"/>
<path d="M475.092 22.6892H471.229V26.5449H475.092V22.6892Z" fill="#EAF6FF"/>
<path d="M475.092 30.2522H471.229V34.1078H475.092V30.2522Z" fill="#EAF6FF"/>
<path d="M475.092 37.8152H471.229V41.6709H475.092V37.8152Z" fill="#EAF6FF"/>
<path d="M475.092 45.3779H471.229V49.2336H475.092V45.3779Z" fill="#EAF6FF"/>
<path d="M475.092 52.8918H471.229V56.7475H475.092V52.8918Z" fill="#EAF6FF"/>
<path d="M475.092 60.4541H471.229V64.3098H475.092V60.4541Z" fill="#EAF6FF"/>
<path d="M475.092 68.0178H471.229V71.8735H475.092V68.0178Z" fill="#EAF6FF"/>
<path d="M475.092 75.5811H471.229V79.4367H475.092V75.5811Z" fill="#EAF6FF"/>
<path d="M475.092 83.144H471.229V86.9998H475.092V83.144Z" fill="#EAF6FF"/>
<path d="M475.092 90.7073H471.229V94.5629H475.092V90.7073Z" fill="#EAF6FF"/>
<path d="M475.092 98.27H471.229V102.126H475.092V98.27Z" fill="#EAF6FF"/>
<path d="M475.092 105.783H471.229V109.639H475.092V105.783Z" fill="#EAF6FF"/>
<path d="M475.092 113.347H471.229V117.203H475.092V113.347Z" fill="#EAF6FF"/>
<path d="M475.092 120.909H471.229V124.765H475.092V120.909Z" fill="#EAF6FF"/>
<path d="M475.092 128.473H471.229V132.328H475.092V128.473Z" fill="#EAF6FF"/>
<path d="M482.62 7.56226H478.757V11.4179H482.62V7.56226Z" fill="#EAF6FF"/>
<path d="M482.62 22.6892H478.757V26.5449H482.62V22.6892Z" fill="#EAF6FF"/>
<path d="M482.62 30.2522H478.757V34.1078H482.62V30.2522Z" fill="#EAF6FF"/>
<path d="M482.62 37.8152H478.757V41.6709H482.62V37.8152Z" fill="#EAF6FF"/>
<path d="M482.62 45.3779H478.757V49.2336H482.62V45.3779Z" fill="#EAF6FF"/>
<path d="M482.62 52.8918H478.757V56.7475H482.62V52.8918Z" fill="#EAF6FF"/>
<path d="M482.62 60.4541H478.757V64.3098H482.62V60.4541Z" fill="#EAF6FF"/>
<path d="M482.62 68.0178H478.757V71.8735H482.62V68.0178Z" fill="#EAF6FF"/>
<path d="M482.62 75.5811H478.757V79.4367H482.62V75.5811Z" fill="#EAF6FF"/>
<path d="M482.62 83.144H478.757V86.9998H482.62V83.144Z" fill="#EAF6FF"/>
<path d="M482.62 90.7073H478.757V94.5629H482.62V90.7073Z" fill="#EAF6FF"/>
<path d="M482.62 98.27H478.757V102.126H482.62V98.27Z" fill="#EAF6FF"/>
<path d="M482.62 105.783H478.757V109.639H482.62V105.783Z" fill="#EAF6FF"/>
<path d="M482.62 113.347H478.757V117.203H482.62V113.347Z" fill="#EAF6FF"/>
<path d="M482.62 136.036H478.757V139.892H482.62V136.036Z" fill="#EAF6FF"/>
<path d="M482.62 143.599H478.757V147.454H482.62V143.599Z" fill="#EAF6FF"/>
<path d="M490.197 45.3779H486.334V49.2336H490.197V45.3779Z" fill="#EAF6FF"/>
<path d="M490.197 52.8918H486.334V56.7475H490.197V52.8918Z" fill="#EAF6FF"/>
<path d="M490.197 60.4541H486.334V64.3098H490.197V60.4541Z" fill="#EAF6FF"/>
<path d="M490.197 68.0178H486.334V71.8735H490.197V68.0178Z" fill="#EAF6FF"/>
<path d="M506.011 68.0095H502.148V71.8652H506.011V68.0095Z" fill="#EAF6FF"/>
<path d="M490.197 75.5811H486.334V79.4367H490.197V75.5811Z" fill="#EAF6FF"/>
<path d="M506.011 75.5825H502.148V79.4382H506.011V75.5825Z" fill="#EAF6FF"/>
<path d="M490.197 105.783H486.334V109.639H490.197V105.783Z" fill="#EAF6FF"/>
<path d="M490.197 128.473H486.334V132.328H490.197V128.473Z" fill="#EAF6FF"/>
<path d="M497.772 45.3779H493.91V49.2336H497.772V45.3779Z" fill="#EAF6FF"/>
<path d="M497.772 52.8918H493.91V56.7475H497.772V52.8918Z" fill="#EAF6FF"/>
<path d="M497.772 60.4541H493.91V64.3098H497.772V60.4541Z" fill="#EAF6FF"/>
<path d="M497.772 68.0178H493.91V71.8735H497.772V68.0178Z" fill="#EAF6FF"/>
<path d="M513.587 68.0095H509.724V71.8652H513.587V68.0095Z" fill="#EAF6FF"/>
<path d="M497.772 75.5811H493.91V79.4367H497.772V75.5811Z" fill="#EAF6FF"/>
<path d="M513.587 75.5825H509.724V79.4382H513.587V75.5825Z" fill="#EAF6FF"/>
<path d="M497.772 105.783H493.91V109.639H497.772V105.783Z" fill="#EAF6FF"/>
<path d="M497.772 113.347H493.91V117.203H497.772V113.347Z" fill="#EAF6FF"/>
<path d="M497.772 120.909H493.91V124.765H497.772V120.909Z" fill="#EAF6FF"/>
<path d="M497.772 128.473H493.91V132.328H497.772V128.473Z" fill="#EAF6FF"/>
<path d="M497.772 136.036H493.91V139.892H497.772V136.036Z" fill="#EAF6FF"/>
<rect x="309" y="91.4526" width="105" height="89" fill="white"/>
<line x1="414" y1="90.9526" x2="300" y2="90.9526" stroke="#ABD4F2"/>
<line x1="246" y1="283.953" x2="309" y2="283.953" stroke="#ABD4F2"/>
<line x1="315" y1="283.953" x2="323" y2="283.953" stroke="#ABD4F2"/>
<line x1="167" y1="283.953" x2="173" y2="283.953" stroke="#ABD4F2"/>
<line x1="330" y1="283.953" x2="336" y2="283.953" stroke="#ABD4F2"/>
<line x1="180" y1="283.953" x2="187" y2="283.953" stroke="#ABD4F2"/>
<line x1="343" y1="283.953" x2="350" y2="283.953" stroke="#ABD4F2"/>
<line x1="194" y1="283.953" x2="201" y2="283.953" stroke="#ABD4F2"/>
<line x1="357" y1="283.953" x2="363" y2="283.953" stroke="#ABD4F2"/>
<line x1="207" y1="283.953" x2="214" y2="283.953" stroke="#ABD4F2"/>
<line x1="369" y1="283.953" x2="376" y2="283.953" stroke="#ABD4F2"/>
<line x1="220" y1="283.953" x2="227" y2="283.953" stroke="#ABD4F2"/>
<line x1="383" y1="283.953" x2="389" y2="283.953" stroke="#ABD4F2"/>
<line x1="233" y1="283.953" x2="241" y2="283.953" stroke="#ABD4F2"/>
<rect x="366.159" y="117.528" width="207.941" height="59.4117" fill="white"/>
<path d="M575 176.939H366.159V117.528H575V176.939Z" fill="white"/>
<line y1="-0.5" x2="59.4117" y2="-0.5" transform="matrix(1 8.74228e-08 8.74228e-08 -1 366.159 117.528)" stroke="#ABD4F2"/>
<line x1="366.159" y1="177.34" x2="461.578" y2="177.34" stroke="#ABD4F2"/>
<line y1="-0.5" x2="59.4117" y2="-0.5" transform="matrix(-4.37114e-08 -1 -1 4.37114e-08 366.159 176.939)" stroke="#ABD4F2"/>
<rect x="72" y="177.453" width="207" height="58" fill="white"/>
<path d="M279 234.453H70V177.453H279V234.453Z" fill="white"/>
<rect width="142" height="2" transform="matrix(-1 0 0 1 193 212.453)" fill="#B3D3EF" fill-opacity="0.25"/>
<rect width="142" height="2" transform="matrix(-1 0 0 1 193 204.453)" fill="#B3D3EF" fill-opacity="0.25"/>
<rect width="142" height="2" transform="matrix(-1 0 0 1 193 196.453)" fill="#B3D3EF" fill-opacity="0.25"/>
<line y1="232.953" x2="70" y2="232.953" stroke="#ABD4F2"/>
<line y1="176.953" x2="141" y2="176.953" stroke="#ABD4F2"/>
<line y1="-0.5" x2="57" y2="-0.5" transform="matrix(-4.37114e-08 -1 -1 4.37114e-08 0 233.453)" stroke="#ABD4F2"/>
<path d="M307 119.453H99V62.4526H307V119.453Z" fill="white"/>
<rect x="99" y="62.4526" width="207" height="57" fill="white"/>
<rect width="142" height="2" transform="matrix(-1 0 0 1 286 97.4526)" fill="#B3D3EF" fill-opacity="0.25"/>
<rect width="142" height="2" transform="matrix(-1 0 0 1 561 154.453)" fill="#B3D3EF" fill-opacity="0.25"/>
<rect width="142" height="2" transform="matrix(-1 0 0 1 286 89.4526)" fill="#B3D3EF" fill-opacity="0.25"/>
<rect width="142" height="2" transform="matrix(-1 0 0 1 561 146.453)" fill="#B3D3EF" fill-opacity="0.25"/>
<rect width="142" height="2" transform="matrix(-1 0 0 1 286 81.4526)" fill="#B3D3EF" fill-opacity="0.25"/>
<rect width="142" height="2" transform="matrix(-1 0 0 1 561 138.453)" fill="#B3D3EF" fill-opacity="0.25"/>
<line y1="-0.5" x2="46" y2="-0.5" transform="matrix(1 8.74228e-08 8.74228e-08 -1 261 60.4526)" stroke="#ABD4F2"/>
<line y1="-0.5" x2="112" y2="-0.5" transform="matrix(1 8.74228e-08 8.74228e-08 -1 194 119.453)" stroke="#ABD4F2"/>
<line y1="-0.5" x2="58" y2="-0.5" transform="matrix(-4.37114e-08 -1 -1 4.37114e-08 306 119.453)" stroke="#ABD4F2"/>
<path d="M385.625 140.953H386.5V153.203L391.383 144.744L396.642 147.78L399.805 142.3L400.563 142.738L396.962 148.976L391.704 145.939L386.5 154.953H400.5V155.828H385.625V140.953Z" fill="#0051FF"/>
<path d="M113.417 100.619C113.417 99.6468 113.803 98.7142 114.491 98.0266C115.178 97.3389 116.111 96.9526 117.083 96.9526V96.036C116.027 96.0358 115.003 95.6709 114.185 95.0028C113.366 94.3346 112.803 93.4044 112.592 92.3693H111.583C110.854 92.3693 110.155 92.0796 109.639 91.5638C109.123 91.0481 108.833 90.3486 108.833 89.6193V85.036H110.667C111.371 85.036 112.014 85.3009 112.5 85.7363V83.2026H122.583V85.7363C123.087 85.2845 123.74 85.035 124.417 85.036H126.25V89.6193C126.25 90.3486 125.96 91.0481 125.445 91.5638C124.929 92.0796 124.23 92.3693 123.5 92.3693H122.492C122.28 93.4044 121.718 94.3346 120.899 95.0028C120.081 95.6709 119.057 96.0358 118 96.036V96.9526C118.973 96.9526 119.905 97.3389 120.593 98.0266C121.281 98.7142 121.667 99.6468 121.667 100.619H113.417ZM118 97.8693H117.083C116.515 97.8691 115.96 98.0454 115.495 98.3737C115.03 98.702 114.679 99.1663 114.489 99.7026H120.594C120.405 99.1663 120.053 98.702 119.589 98.3737C119.124 98.0454 118.569 97.8691 118 97.8693ZM121.667 84.1193H113.417V91.4526C113.417 92.4251 113.803 93.3577 114.491 94.0454C115.178 94.733 116.111 95.1193 117.083 95.1193H118C118.973 95.1193 119.905 94.733 120.593 94.0454C121.281 93.3577 121.667 92.4251 121.667 91.4526V84.1193ZM125.333 89.6193V85.9526H124.417C123.931 85.9526 123.464 86.1458 123.12 86.4896C122.777 86.8334 122.583 87.2997 122.583 87.786V91.4526H123.5C123.986 91.4526 124.453 91.2595 124.797 90.9157C125.14 90.5718 125.333 90.1055 125.333 89.6193ZM109.75 89.6193C109.75 90.1055 109.943 90.5718 110.287 90.9157C110.631 91.2595 111.097 91.4526 111.583 91.4526H112.5V87.786C112.5 87.2997 112.307 86.8334 111.963 86.4896C111.619 86.1458 111.153 85.9526 110.667 85.9526H109.75V89.6193Z" fill="#0051FF"/>
<path d="M18.5835 198.036H26.3046L27.3624 199.869H31.4168V208.119H25.9168L24.8581 206.286H19.5002V212.703H18.5835V198.036ZM30.5002 207.203V200.786H26.8335L25.7747 198.953H19.5002V205.369H25.3879L26.4457 207.203H30.5002Z" fill="#0051FF"/>
<path d="M261.427 200.453H273.097L254.67 230.549H243L261.427 200.453Z" fill="#0051FF"/>
<path d="M272.33 215.194H284L274.633 230.55H262.963L272.33 215.194Z" fill="#0051FF"/>
</svg>