<?xml version="1.0" encoding="UTF-8"?>
<svg fill="none" viewBox="0 0 429 534" xmlns="http://www.w3.org/2000/svg">
<path d="m221.98 63.314c67.133-5.6705 109.15 66.537 146.18 121.29 31.66 46.814 57.295 101.21 40.564 154.83-15.716 50.363-72.202 69.004-118.77 95.809-56.149 32.317-108.82 89.943-171.11 71.034-67.655-20.541-115.46-90.184-118.75-159.04-2.9039-60.694 66.625-91.989 104.43-140.36 40.034-51.224 51.556-137.99 117.46-143.56z" clip-rule="evenodd" fill="#FAFCFF" fill-rule="evenodd"/>
<g filter="url(#d)">
<rect x="91" y="38" width="224" height="454" rx="26" fill="#fff"/>
</g>
<rect x="160.89" y="479.39" width="83.642" height="2.1932" rx="1.0966" fill="#DFE7EF"/>
<path d="m190.53 60.6v1.32h-2.364v7.08h-1.38v-7.08h-2.376v-1.32h6.12zm2.69 8.556c-0.88 0-1.628-0.304-2.244-0.912s-0.924-1.356-0.924-2.244 0.308-1.636 0.924-2.244 1.364-0.912 2.244-0.912c0.888 0 1.636 0.304 2.244 0.912 0.616 0.608 0.924 1.356 0.924 2.244s-0.308 1.636-0.924 2.244c-0.608 0.608-1.356 0.912-2.244 0.912zm-1.332-1.8c0.36 0.36 0.804 0.54 1.332 0.54s0.972-0.18 1.332-0.54 0.54-0.812 0.54-1.356-0.18-0.996-0.54-1.356-0.804-0.54-1.332-0.54-0.972 0.18-1.332 0.54-0.54 0.812-0.54 1.356 0.18 0.996 0.54 1.356zm9.068-4.512c0.824 0 1.528 0.308 2.112 0.924 0.584 0.608 0.876 1.352 0.876 2.232 0 0.888-0.292 1.636-0.876 2.244s-1.288 0.912-2.112 0.912c-0.912 0-1.612-0.336-2.1-1.008v3.252h-1.296v-8.4h1.296v0.864c0.488-0.68 1.188-1.02 2.1-1.02zm-1.56 4.536c0.36 0.36 0.812 0.54 1.356 0.54s0.996-0.18 1.356-0.54c0.36-0.368 0.54-0.828 0.54-1.38s-0.18-1.008-0.54-1.368c-0.36-0.368-0.812-0.552-1.356-0.552s-0.996 0.184-1.356 0.552c-0.36 0.36-0.54 0.816-0.54 1.368s0.18 1.012 0.54 1.38zm12.766-4.38h1.296v6h-1.296v-0.768c-0.392 0.616-1.012 0.924-1.86 0.924-0.688 0-1.244-0.22-1.668-0.66s-0.636-1.044-0.636-1.812v-3.684h1.296v3.552c0 0.448 0.12 0.792 0.36 1.032s0.568 0.36 0.984 0.36c0.456 0 0.824-0.14 1.104-0.42 0.28-0.288 0.42-0.724 0.42-1.308v-3.216zm6.208-0.156c0.824 0 1.528 0.308 2.112 0.924 0.584 0.608 0.876 1.352 0.876 2.232 0 0.888-0.292 1.636-0.876 2.244s-1.288 0.912-2.112 0.912c-0.912 0-1.612-0.336-2.1-1.008v3.252h-1.296v-8.4h1.296v0.864c0.488-0.68 1.188-1.02 2.1-1.02zm-1.56 4.536c0.36 0.36 0.812 0.54 1.356 0.54s0.996-0.18 1.356-0.54c0.36-0.368 0.54-0.828 0.54-1.38s-0.18-1.008-0.54-1.368c-0.36-0.368-0.812-0.552-1.356-0.552s-0.996 0.184-1.356 0.552c-0.36 0.36-0.54 0.816-0.54 1.368s0.18 1.012 0.54 1.38z" fill="#0F151B"/>
<path d="m103 432c0-2.209 1.791-4 4-4h192c2.209 0 4 1.791 4 4v24c0 2.209-1.791 4-4 4h-192c-2.209 0-4-1.791-4-4v-24z" fill="#C8E1FC"/>
<path d="m196.31 447.89c0.316 0 0.582-0.036 0.798-0.108 0.22-0.076 0.398-0.178 0.534-0.306 0.14-0.128 0.24-0.278 0.3-0.45 0.064-0.176 0.096-0.364 0.096-0.564 0-0.408-0.14-0.728-0.42-0.96-0.276-0.236-0.714-0.354-1.314-0.354h-1.734v2.742h1.74zm-1.74-6.432v2.7h1.404c0.6 0 1.048-0.116 1.344-0.348s0.444-0.566 0.444-1.002c0-0.476-0.14-0.82-0.42-1.032-0.276-0.212-0.71-0.318-1.302-0.318h-1.47zm1.47-1.098c0.552 0 1.024 0.054 1.416 0.162 0.392 0.104 0.714 0.254 0.966 0.45s0.436 0.436 0.552 0.72c0.12 0.28 0.18 0.596 0.18 0.948 0 0.204-0.032 0.402-0.096 0.594-0.06 0.188-0.156 0.366-0.288 0.534-0.128 0.164-0.29 0.312-0.486 0.444s-0.428 0.242-0.696 0.33c1.224 0.26 1.836 0.91 1.836 1.95 0 0.368-0.07 0.706-0.21 1.014-0.136 0.304-0.336 0.568-0.6 0.792-0.26 0.22-0.582 0.392-0.966 0.516s-0.822 0.186-1.314 0.186h-3.168v-8.64h2.874zm9.768 2.52v6.12h-0.78c-0.172 0-0.282-0.082-0.33-0.246l-0.096-0.57c-0.128 0.136-0.264 0.26-0.408 0.372-0.14 0.112-0.29 0.208-0.45 0.288s-0.332 0.142-0.516 0.186c-0.18 0.044-0.374 0.066-0.582 0.066-0.336 0-0.632-0.056-0.888-0.168s-0.472-0.27-0.648-0.474c-0.172-0.204-0.302-0.448-0.39-0.732-0.088-0.288-0.132-0.604-0.132-0.948v-3.894h1.29v3.894c0 0.412 0.094 0.732 0.282 0.96 0.192 0.228 0.482 0.342 0.87 0.342 0.284 0 0.548-0.064 0.792-0.192 0.248-0.132 0.48-0.312 0.696-0.54v-4.464h1.29zm6.997 0-3.372 7.86c-0.044 0.092-0.098 0.164-0.162 0.216-0.06 0.052-0.154 0.078-0.282 0.078h-0.954l1.128-2.448-2.496-5.706h1.122c0.108 0 0.19 0.026 0.246 0.078 0.06 0.048 0.104 0.106 0.132 0.174l1.458 3.474c0.036 0.1 0.068 0.2 0.096 0.3 0.032 0.096 0.062 0.196 0.09 0.3 0.032-0.104 0.064-0.206 0.096-0.306s0.068-0.2 0.108-0.3l1.398-3.468c0.028-0.072 0.074-0.132 0.138-0.18 0.068-0.048 0.142-0.072 0.222-0.072h1.032z" fill="#0051FF"/>
<path d="m151.32 155.19h1.946c0.205-1.157 0.532-2.198 0.98-3.122 0.457-0.933 1.017-1.727 1.68-2.38 0.672-0.653 1.433-1.157 2.282-1.512 0.859-0.355 1.787-0.532 2.786-0.532 1.279 0 2.371 0.243 3.276 0.728 0.905 0.476 1.675 1.134 2.31 1.974l-1.036 1.162c-0.084 0.093-0.173 0.177-0.266 0.252-0.093 0.065-0.219 0.098-0.378 0.098-0.112 0-0.224-0.037-0.336-0.112-0.112-0.084-0.233-0.182-0.364-0.294-0.131-0.121-0.285-0.252-0.462-0.392-0.168-0.14-0.373-0.266-0.616-0.378-0.243-0.121-0.527-0.219-0.854-0.294-0.327-0.084-0.709-0.126-1.148-0.126-0.607 0-1.167 0.107-1.68 0.322-0.513 0.205-0.975 0.518-1.386 0.938-0.401 0.411-0.747 0.924-1.036 1.54s-0.509 1.325-0.658 2.128h7.336v0.938c0 0.187-0.079 0.364-0.238 0.532-0.149 0.159-0.355 0.238-0.616 0.238h-6.678c-0.019 0.168-0.028 0.336-0.028 0.504v0.518 0.378c0 0.121 5e-3 0.243 0.014 0.364h6.23v0.938c0 0.187-0.079 0.364-0.238 0.532-0.149 0.159-0.355 0.238-0.616 0.238h-5.222c0.261 1.745 0.798 3.052 1.61 3.92 0.821 0.859 1.843 1.288 3.066 1.288 0.476 0 0.887-0.047 1.232-0.14 0.355-0.093 0.658-0.205 0.91-0.336 0.261-0.14 0.481-0.289 0.658-0.448 0.187-0.168 0.35-0.317 0.49-0.448 0.149-0.14 0.28-0.257 0.392-0.35s0.233-0.14 0.364-0.14c0.093 0 0.173 0.014 0.238 0.042 0.075 0.028 0.149 0.084 0.224 0.168l1.288 1.204c-0.663 0.989-1.489 1.75-2.478 2.282s-2.151 0.798-3.486 0.798c-1.092 0-2.072-0.182-2.94-0.546-0.868-0.373-1.624-0.901-2.268-1.582-0.635-0.681-1.157-1.503-1.568-2.464-0.401-0.971-0.681-2.053-0.84-3.248h-1.876v-1.708h1.736c-9e-3 -0.121-0.014-0.243-0.014-0.364v-0.378-0.518c0-0.168 9e-3 -0.336 0.028-0.504h-1.75v-1.708zm30.27 10.528v2.282h-10.99v-2.282h4.2v-12.628c0-0.448 0.014-0.905 0.042-1.372l-3.234 2.73c-0.14 0.112-0.285 0.187-0.434 0.224-0.14 0.028-0.275 0.028-0.406 0-0.121-0.028-0.233-0.07-0.336-0.126-0.093-0.065-0.168-0.135-0.224-0.21l-0.938-1.316 6.076-5.222h2.45v17.92h3.794zm17.334-7.798c0 1.764-0.191 3.29-0.574 4.578-0.373 1.288-0.891 2.357-1.554 3.206-0.662 0.849-1.442 1.479-2.338 1.89s-1.862 0.616-2.898 0.616-2.002-0.205-2.898-0.616-1.675-1.041-2.338-1.89c-0.653-0.849-1.166-1.918-1.54-3.206-0.373-1.288-0.56-2.814-0.56-4.578s0.187-3.29 0.56-4.578c0.374-1.297 0.887-2.366 1.54-3.206 0.663-0.849 1.442-1.479 2.338-1.89 0.896-0.42 1.862-0.63 2.898-0.63s2.002 0.21 2.898 0.63c0.896 0.411 1.676 1.041 2.338 1.89 0.663 0.84 1.181 1.909 1.554 3.206 0.383 1.288 0.574 2.814 0.574 4.578zm-3.108 0c0-1.493-0.121-2.735-0.364-3.724-0.233-0.999-0.546-1.797-0.938-2.394s-0.844-1.022-1.358-1.274c-0.513-0.252-1.045-0.378-1.596-0.378-0.56 0-1.096 0.126-1.61 0.378-0.504 0.252-0.952 0.677-1.344 1.274s-0.704 1.395-0.938 2.394c-0.233 0.989-0.35 2.231-0.35 3.724s0.117 2.739 0.35 3.738c0.234 0.989 0.546 1.783 0.938 2.38s0.84 1.022 1.344 1.274c0.514 0.252 1.05 0.378 1.61 0.378 0.551 0 1.083-0.126 1.596-0.378 0.514-0.252 0.966-0.677 1.358-1.274s0.705-1.391 0.938-2.38c0.243-0.999 0.364-2.245 0.364-3.738zm19.35 0c0 1.764-0.191 3.29-0.574 4.578-0.373 1.288-0.891 2.357-1.554 3.206-0.662 0.849-1.442 1.479-2.338 1.89s-1.862 0.616-2.898 0.616-2.002-0.205-2.898-0.616-1.675-1.041-2.338-1.89c-0.653-0.849-1.166-1.918-1.54-3.206-0.373-1.288-0.56-2.814-0.56-4.578s0.187-3.29 0.56-4.578c0.374-1.297 0.887-2.366 1.54-3.206 0.663-0.849 1.442-1.479 2.338-1.89 0.896-0.42 1.862-0.63 2.898-0.63s2.002 0.21 2.898 0.63c0.896 0.411 1.676 1.041 2.338 1.89 0.663 0.84 1.181 1.909 1.554 3.206 0.383 1.288 0.574 2.814 0.574 4.578zm-3.108 0c0-1.493-0.121-2.735-0.364-3.724-0.233-0.999-0.546-1.797-0.938-2.394s-0.844-1.022-1.358-1.274c-0.513-0.252-1.045-0.378-1.596-0.378-0.56 0-1.096 0.126-1.61 0.378-0.504 0.252-0.952 0.677-1.344 1.274s-0.704 1.395-0.938 2.394c-0.233 0.989-0.35 2.231-0.35 3.724s0.117 2.739 0.35 3.738c0.234 0.989 0.546 1.783 0.938 2.38s0.84 1.022 1.344 1.274c0.514 0.252 1.05 0.378 1.61 0.378 0.551 0 1.083-0.126 1.596-0.378 0.514-0.252 0.966-0.677 1.358-1.274s0.705-1.391 0.938-2.38c0.243-0.999 0.364-2.245 0.364-3.738zm5.253 8.344c0-0.271 0.046-0.523 0.14-0.756 0.102-0.243 0.238-0.453 0.406-0.63 0.177-0.177 0.382-0.317 0.616-0.42 0.242-0.103 0.499-0.154 0.77-0.154 0.27 0 0.522 0.051 0.756 0.154 0.242 0.103 0.452 0.243 0.63 0.42 0.177 0.177 0.317 0.387 0.42 0.63 0.102 0.233 0.154 0.485 0.154 0.756 0 0.28-0.052 0.537-0.154 0.77-0.103 0.233-0.243 0.439-0.42 0.616-0.178 0.177-0.388 0.313-0.63 0.406-0.234 0.103-0.486 0.154-0.756 0.154-0.271 0-0.528-0.051-0.77-0.154-0.234-0.093-0.439-0.229-0.616-0.406-0.168-0.177-0.304-0.383-0.406-0.616-0.094-0.233-0.14-0.49-0.14-0.77zm20.715-8.344c0 1.764-0.192 3.29-0.574 4.578-0.374 1.288-0.892 2.357-1.554 3.206-0.663 0.849-1.442 1.479-2.338 1.89s-1.862 0.616-2.898 0.616-2.002-0.205-2.898-0.616-1.676-1.041-2.338-1.89c-0.654-0.849-1.167-1.918-1.54-3.206-0.374-1.288-0.56-2.814-0.56-4.578s0.186-3.29 0.56-4.578c0.373-1.297 0.886-2.366 1.54-3.206 0.662-0.849 1.442-1.479 2.338-1.89 0.896-0.42 1.862-0.63 2.898-0.63s2.002 0.21 2.898 0.63c0.896 0.411 1.675 1.041 2.338 1.89 0.662 0.84 1.18 1.909 1.554 3.206 0.382 1.288 0.574 2.814 0.574 4.578zm-3.108 0c0-1.493-0.122-2.735-0.364-3.724-0.234-0.999-0.546-1.797-0.938-2.394s-0.845-1.022-1.358-1.274c-0.514-0.252-1.046-0.378-1.596-0.378-0.56 0-1.097 0.126-1.61 0.378-0.504 0.252-0.952 0.677-1.344 1.274s-0.705 1.395-0.938 2.394c-0.234 0.989-0.35 2.231-0.35 3.724s0.116 2.739 0.35 3.738c0.233 0.989 0.546 1.783 0.938 2.38s0.84 1.022 1.344 1.274c0.513 0.252 1.05 0.378 1.61 0.378 0.55 0 1.082-0.126 1.596-0.378 0.513-0.252 0.966-0.677 1.358-1.274s0.704-1.391 0.938-2.38c0.242-0.999 0.364-2.245 0.364-3.738zm19.35 0c0 1.764-0.191 3.29-0.574 4.578-0.373 1.288-0.891 2.357-1.554 3.206s-1.442 1.479-2.338 1.89-1.862 0.616-2.898 0.616-2.002-0.205-2.898-0.616-1.675-1.041-2.338-1.89c-0.653-0.849-1.167-1.918-1.54-3.206s-0.56-2.814-0.56-4.578 0.187-3.29 0.56-4.578c0.373-1.297 0.887-2.366 1.54-3.206 0.663-0.849 1.442-1.479 2.338-1.89 0.896-0.42 1.862-0.63 2.898-0.63s2.002 0.21 2.898 0.63c0.896 0.411 1.675 1.041 2.338 1.89 0.663 0.84 1.181 1.909 1.554 3.206 0.383 1.288 0.574 2.814 0.574 4.578zm-3.108 0c0-1.493-0.121-2.735-0.364-3.724-0.233-0.999-0.546-1.797-0.938-2.394s-0.845-1.022-1.358-1.274-1.045-0.378-1.596-0.378c-0.56 0-1.097 0.126-1.61 0.378-0.504 0.252-0.952 0.677-1.344 1.274s-0.705 1.395-0.938 2.394c-0.233 0.989-0.35 2.231-0.35 3.724s0.117 2.739 0.35 3.738c0.233 0.989 0.546 1.783 0.938 2.38s0.84 1.022 1.344 1.274c0.513 0.252 1.05 0.378 1.61 0.378 0.551 0 1.083-0.126 1.596-0.378s0.966-0.677 1.358-1.274 0.705-1.391 0.938-2.38c0.243-0.999 0.364-2.245 0.364-3.738z" fill="#0F151B"/>
<path d="m112.78 245.9v5.1h-1.075v-5.1h1.075zm0.18-1.54c0 0.097-0.02 0.188-0.06 0.275-0.037 0.087-0.088 0.163-0.155 0.23-0.067 0.063-0.145 0.115-0.235 0.155-0.087 0.037-0.18 0.055-0.28 0.055-0.097 0-0.188-0.018-0.275-0.055-0.083-0.04-0.157-0.092-0.22-0.155-0.063-0.067-0.115-0.143-0.155-0.23-0.037-0.087-0.055-0.178-0.055-0.275 0-0.1 0.018-0.193 0.055-0.28 0.04-0.087 0.092-0.162 0.155-0.225 0.063-0.067 0.137-0.118 0.22-0.155 0.087-0.04 0.178-0.06 0.275-0.06 0.1 0 0.193 0.02 0.28 0.06 0.09 0.037 0.168 0.088 0.235 0.155 0.067 0.063 0.118 0.138 0.155 0.225 0.04 0.087 0.06 0.18 0.06 0.28zm7.613 3.04c0 0.533-0.087 1.022-0.26 1.465-0.174 0.44-0.419 0.818-0.735 1.135-0.314 0.317-0.692 0.563-1.135 0.74-0.44 0.173-0.93 0.26-1.47 0.26h-2.72v-7.2h2.72c0.54 0 1.03 0.088 1.47 0.265 0.443 0.173 0.821 0.418 1.135 0.735 0.316 0.317 0.561 0.697 0.735 1.14 0.173 0.44 0.26 0.927 0.26 1.46zm-1.195 0c0-0.413-0.057-0.785-0.17-1.115-0.11-0.33-0.27-0.608-0.48-0.835-0.207-0.227-0.459-0.4-0.755-0.52-0.297-0.123-0.63-0.185-1-0.185h-1.545v5.31h1.545c0.37 0 0.703-0.06 1-0.18 0.296-0.12 0.548-0.293 0.755-0.52 0.21-0.23 0.37-0.508 0.48-0.835 0.113-0.33 0.17-0.703 0.17-1.12zm5.559 0.475c0-0.18-0.027-0.347-0.08-0.5-0.05-0.157-0.125-0.292-0.225-0.405-0.1-0.117-0.225-0.207-0.375-0.27-0.147-0.067-0.317-0.1-0.51-0.1-0.39 0-0.697 0.112-0.92 0.335-0.224 0.223-0.365 0.537-0.425 0.94h2.535zm-2.565 0.66c0.013 0.29 0.058 0.542 0.135 0.755 0.076 0.21 0.178 0.385 0.305 0.525 0.13 0.14 0.283 0.245 0.46 0.315 0.18 0.067 0.38 0.1 0.6 0.1 0.21 0 0.391-0.023 0.545-0.07 0.153-0.05 0.286-0.103 0.4-0.16 0.113-0.06 0.21-0.113 0.29-0.16 0.08-0.05 0.153-0.075 0.22-0.075 0.086 0 0.153 0.033 0.2 0.1l0.305 0.395c-0.127 0.15-0.27 0.277-0.43 0.38s-0.33 0.188-0.51 0.255c-0.18 0.063-0.365 0.108-0.555 0.135-0.19 0.03-0.375 0.045-0.555 0.045-0.354 0-0.682-0.058-0.985-0.175-0.3-0.12-0.562-0.295-0.785-0.525-0.22-0.23-0.394-0.515-0.52-0.855-0.124-0.34-0.185-0.732-0.185-1.175 0-0.353 0.055-0.683 0.165-0.99 0.113-0.307 0.273-0.573 0.48-0.8 0.21-0.227 0.463-0.405 0.76-0.535 0.3-0.133 0.638-0.2 1.015-0.2 0.313 0 0.603 0.052 0.87 0.155 0.266 0.1 0.496 0.248 0.69 0.445 0.193 0.197 0.343 0.438 0.45 0.725 0.11 0.283 0.165 0.607 0.165 0.97 0 0.167-0.019 0.278-0.055 0.335-0.037 0.057-0.104 0.085-0.2 0.085h-3.275zm7.257 0.235c-0.383 0.013-0.707 0.045-0.97 0.095-0.263 0.047-0.477 0.108-0.64 0.185-0.163 0.073-0.282 0.162-0.355 0.265-0.07 0.103-0.105 0.217-0.105 0.34 0 0.12 0.018 0.223 0.055 0.31 0.04 0.083 0.093 0.153 0.16 0.21 0.07 0.053 0.15 0.093 0.24 0.12 0.093 0.023 0.195 0.035 0.305 0.035 0.28 0 0.52-0.052 0.72-0.155 0.203-0.107 0.4-0.26 0.59-0.46v-0.945zm-2.85-2.16c0.577-0.537 1.263-0.805 2.06-0.805 0.293 0 0.553 0.048 0.78 0.145 0.23 0.093 0.422 0.227 0.575 0.4 0.157 0.173 0.275 0.38 0.355 0.62 0.083 0.237 0.125 0.5 0.125 0.79v3.24h-0.48c-0.103 0-0.182-0.015-0.235-0.045-0.053-0.033-0.098-0.098-0.135-0.195l-0.105-0.415c-0.13 0.117-0.258 0.222-0.385 0.315-0.127 0.09-0.258 0.167-0.395 0.23-0.133 0.063-0.278 0.11-0.435 0.14-0.153 0.033-0.323 0.05-0.51 0.05-0.207 0-0.4-0.028-0.58-0.085-0.177-0.057-0.33-0.142-0.46-0.255-0.13-0.117-0.233-0.26-0.31-0.43-0.073-0.17-0.11-0.37-0.11-0.6 0-0.197 0.052-0.388 0.155-0.575 0.107-0.187 0.28-0.353 0.52-0.5 0.243-0.15 0.562-0.273 0.955-0.37 0.397-0.097 0.885-0.152 1.465-0.165v-0.34c0-0.367-0.078-0.64-0.235-0.82s-0.387-0.27-0.69-0.27c-0.207 0-0.38 0.027-0.52 0.08-0.14 0.05-0.262 0.105-0.365 0.165s-0.195 0.117-0.275 0.17c-0.08 0.05-0.165 0.075-0.255 0.075-0.073 0-0.137-0.018-0.19-0.055-0.05-0.04-0.092-0.088-0.125-0.145l-0.195-0.35zm6.249-3.01v7.4h-1.075v-7.4h1.075zm4.498 4.26c0 0.7 0.086 1.385 0.26 2.055 0.173 0.667 0.425 1.295 0.755 1.885 0.03 0.06 0.048 0.113 0.055 0.16 6e-3 0.047 3e-3 0.087-0.01 0.12-0.014 0.037-0.034 0.067-0.06 0.09-0.024 0.023-0.05 0.045-0.08 0.065l-0.475 0.295c-0.25-0.383-0.462-0.765-0.635-1.145-0.174-0.377-0.315-0.757-0.425-1.14-0.11-0.387-0.19-0.777-0.24-1.17-0.05-0.397-0.075-0.802-0.075-1.215 0-0.41 0.025-0.812 0.075-1.205 0.05-0.397 0.13-0.787 0.24-1.17 0.11-0.387 0.251-0.77 0.425-1.15 0.173-0.38 0.385-0.762 0.635-1.145l0.475 0.295c0.03 0.02 0.056 0.042 0.08 0.065 0.026 0.023 0.046 0.053 0.06 0.09 0.013 0.033 0.016 0.073 0.01 0.12-7e-3 0.047-0.025 0.1-0.055 0.16-0.33 0.593-0.582 1.223-0.755 1.89-0.174 0.667-0.26 1.35-0.26 2.05zm26.94 3.14v-4.245l-0.5-0.07c-0.083-0.017-0.152-0.047-0.205-0.09-0.05-0.043-0.075-0.105-0.075-0.185v-0.44h0.78v-0.43c0-0.29 0.042-0.55 0.125-0.78 0.087-0.23 0.208-0.425 0.365-0.585 0.16-0.16 0.353-0.282 0.58-0.365 0.227-0.087 0.482-0.13 0.765-0.13 0.117 0 0.227 8e-3 0.33 0.025 0.107 0.017 0.21 0.042 0.31 0.075l-0.02 0.54c-7e-3 0.09-0.052 0.143-0.135 0.16-0.08 0.017-0.182 0.025-0.305 0.025-0.15 0-0.285 0.018-0.405 0.055-0.12 0.033-0.223 0.092-0.31 0.175-0.083 0.083-0.148 0.193-0.195 0.33-0.043 0.137-0.065 0.307-0.065 0.51v0.395h1.395v0.775h-1.36v4.255h-1.075zm6.398-3.125c0-0.18-0.026-0.347-0.08-0.5-0.05-0.157-0.125-0.292-0.225-0.405-0.1-0.117-0.225-0.207-0.375-0.27-0.146-0.067-0.316-0.1-0.51-0.1-0.39 0-0.696 0.112-0.92 0.335-0.223 0.223-0.365 0.537-0.425 0.94h2.535zm-2.565 0.66c0.014 0.29 0.059 0.542 0.135 0.755 0.077 0.21 0.179 0.385 0.305 0.525 0.13 0.14 0.284 0.245 0.46 0.315 0.18 0.067 0.38 0.1 0.6 0.1 0.21 0 0.392-0.023 0.545-0.07 0.154-0.05 0.287-0.103 0.4-0.16 0.114-0.06 0.21-0.113 0.29-0.16 0.08-0.05 0.154-0.075 0.22-0.075 0.087 0 0.154 0.033 0.2 0.1l0.305 0.395c-0.126 0.15-0.27 0.277-0.43 0.38s-0.33 0.188-0.51 0.255c-0.18 0.063-0.365 0.108-0.555 0.135-0.19 0.03-0.375 0.045-0.555 0.045-0.353 0-0.681-0.058-0.985-0.175-0.3-0.12-0.561-0.295-0.785-0.525-0.22-0.23-0.393-0.515-0.52-0.855-0.123-0.34-0.185-0.732-0.185-1.175 0-0.353 0.055-0.683 0.165-0.99 0.114-0.307 0.274-0.573 0.48-0.8 0.21-0.227 0.464-0.405 0.76-0.535 0.3-0.133 0.639-0.2 1.015-0.2 0.314 0 0.604 0.052 0.87 0.155 0.267 0.1 0.497 0.248 0.69 0.445 0.194 0.197 0.344 0.438 0.45 0.725 0.11 0.283 0.165 0.607 0.165 0.97 0 0.167-0.018 0.278-0.055 0.335-0.036 0.057-0.103 0.085-0.2 0.085h-3.275zm7.878-0.66c0-0.18-0.027-0.347-0.08-0.5-0.05-0.157-0.125-0.292-0.225-0.405-0.1-0.117-0.225-0.207-0.375-0.27-0.147-0.067-0.317-0.1-0.51-0.1-0.39 0-0.697 0.112-0.92 0.335s-0.365 0.537-0.425 0.94h2.535zm-2.565 0.66c0.013 0.29 0.058 0.542 0.135 0.755 0.077 0.21 0.178 0.385 0.305 0.525 0.13 0.14 0.283 0.245 0.46 0.315 0.18 0.067 0.38 0.1 0.6 0.1 0.21 0 0.392-0.023 0.545-0.07 0.153-0.05 0.287-0.103 0.4-0.16 0.113-0.06 0.21-0.113 0.29-0.16 0.08-0.05 0.153-0.075 0.22-0.075 0.087 0 0.153 0.033 0.2 0.1l0.305 0.395c-0.127 0.15-0.27 0.277-0.43 0.38s-0.33 0.188-0.51 0.255c-0.18 0.063-0.365 0.108-0.555 0.135-0.19 0.03-0.375 0.045-0.555 0.045-0.353 0-0.682-0.058-0.985-0.175-0.3-0.12-0.562-0.295-0.785-0.525-0.22-0.23-0.393-0.515-0.52-0.855-0.123-0.34-0.185-0.732-0.185-1.175 0-0.353 0.055-0.683 0.165-0.99 0.113-0.307 0.273-0.573 0.48-0.8 0.21-0.227 0.463-0.405 0.76-0.535 0.3-0.133 0.638-0.2 1.015-0.2 0.313 0 0.603 0.052 0.87 0.155 0.267 0.1 0.497 0.248 0.69 0.445s0.343 0.438 0.45 0.725c0.11 0.283 0.165 0.607 0.165 0.97 0 0.167-0.018 0.278-0.055 0.335s-0.103 0.085-0.2 0.085h-3.275zm5.013-0.675c0-0.7-0.087-1.383-0.26-2.05s-0.423-1.297-0.75-1.89c-0.03-0.06-0.048-0.113-0.055-0.16s-5e-3 -0.087 5e-3 -0.12c0.013-0.037 0.032-0.067 0.055-0.09 0.027-0.023 0.055-0.045 0.085-0.065l0.48-0.295c0.247 0.383 0.457 0.765 0.63 1.145s0.315 0.763 0.425 1.15c0.11 0.383 0.19 0.773 0.24 1.17 0.05 0.393 0.075 0.795 0.075 1.205 0 0.413-0.025 0.818-0.075 1.215-0.05 0.393-0.13 0.783-0.24 1.17-0.11 0.383-0.252 0.763-0.425 1.14-0.173 0.38-0.383 0.762-0.63 1.145l-0.48-0.295c-0.03-0.02-0.058-0.042-0.085-0.065-0.023-0.023-0.042-0.053-0.055-0.09-0.01-0.033-0.012-0.073-5e-3 -0.12s0.025-0.1 0.055-0.16c0.327-0.59 0.577-1.218 0.75-1.885 0.173-0.67 0.26-1.355 0.26-2.055z" fill="#0F151B"/>
<path d="m144.42 247.4c0 0.63-0.068 1.175-0.205 1.635-0.133 0.46-0.318 0.842-0.555 1.145-0.236 0.303-0.515 0.528-0.835 0.675s-0.665 0.22-1.035 0.22-0.715-0.073-1.035-0.22-0.598-0.372-0.835-0.675c-0.233-0.303-0.416-0.685-0.55-1.145-0.133-0.46-0.2-1.005-0.2-1.635s0.067-1.175 0.2-1.635c0.134-0.463 0.317-0.845 0.55-1.145 0.237-0.303 0.515-0.528 0.835-0.675 0.32-0.15 0.665-0.225 1.035-0.225s0.715 0.075 1.035 0.225c0.32 0.147 0.599 0.372 0.835 0.675 0.237 0.3 0.422 0.682 0.555 1.145 0.137 0.46 0.205 1.005 0.205 1.635zm-1.11 0c0-0.533-0.043-0.977-0.13-1.33-0.083-0.357-0.195-0.642-0.335-0.855s-0.301-0.365-0.485-0.455c-0.183-0.09-0.373-0.135-0.57-0.135-0.2 0-0.391 0.045-0.575 0.135-0.18 0.09-0.34 0.242-0.48 0.455s-0.251 0.498-0.335 0.855c-0.083 0.353-0.125 0.797-0.125 1.33s0.042 0.978 0.125 1.335c0.084 0.353 0.195 0.637 0.335 0.85s0.3 0.365 0.48 0.455c0.184 0.09 0.375 0.135 0.575 0.135 0.197 0 0.387-0.045 0.57-0.135 0.184-0.09 0.345-0.242 0.485-0.455s0.252-0.497 0.335-0.85c0.087-0.357 0.13-0.802 0.13-1.335zm1.876 2.98c0-0.097 0.017-0.187 0.05-0.27 0.037-0.087 0.085-0.162 0.145-0.225 0.064-0.063 0.137-0.113 0.22-0.15 0.087-0.037 0.179-0.055 0.275-0.055 0.097 0 0.187 0.018 0.27 0.055 0.087 0.037 0.162 0.087 0.225 0.15 0.064 0.063 0.114 0.138 0.15 0.225 0.037 0.083 0.055 0.173 0.055 0.27 0 0.1-0.018 0.192-0.055 0.275-0.036 0.083-0.086 0.157-0.15 0.22-0.063 0.063-0.138 0.112-0.225 0.145-0.083 0.037-0.173 0.055-0.27 0.055-0.096 0-0.188-0.018-0.275-0.055-0.083-0.033-0.156-0.082-0.22-0.145-0.06-0.063-0.108-0.137-0.145-0.22-0.033-0.083-0.05-0.175-0.05-0.275zm7.398-2.98c0 0.63-0.068 1.175-0.205 1.635-0.133 0.46-0.318 0.842-0.555 1.145-0.236 0.303-0.515 0.528-0.835 0.675s-0.665 0.22-1.035 0.22-0.715-0.073-1.035-0.22-0.598-0.372-0.835-0.675c-0.233-0.303-0.416-0.685-0.55-1.145-0.133-0.46-0.2-1.005-0.2-1.635s0.067-1.175 0.2-1.635c0.134-0.463 0.317-0.845 0.55-1.145 0.237-0.303 0.515-0.528 0.835-0.675 0.32-0.15 0.665-0.225 1.035-0.225s0.715 0.075 1.035 0.225c0.32 0.147 0.599 0.372 0.835 0.675 0.237 0.3 0.422 0.682 0.555 1.145 0.137 0.46 0.205 1.005 0.205 1.635zm-1.11 0c0-0.533-0.043-0.977-0.13-1.33-0.083-0.357-0.195-0.642-0.335-0.855s-0.301-0.365-0.485-0.455c-0.183-0.09-0.373-0.135-0.57-0.135-0.2 0-0.391 0.045-0.575 0.135-0.18 0.09-0.34 0.242-0.48 0.455s-0.251 0.498-0.335 0.855c-0.083 0.353-0.125 0.797-0.125 1.33s0.042 0.978 0.125 1.335c0.084 0.353 0.195 0.637 0.335 0.85s0.3 0.365 0.48 0.455c0.184 0.09 0.375 0.135 0.575 0.135 0.197 0 0.387-0.045 0.57-0.135 0.184-0.09 0.345-0.242 0.485-0.455s0.252-0.497 0.335-0.85c0.087-0.357 0.13-0.802 0.13-1.335zm5.056-1.86c0 0.277-0.045 0.525-0.135 0.745-0.086 0.22-0.205 0.408-0.355 0.565-0.15 0.153-0.323 0.272-0.52 0.355-0.196 0.08-0.403 0.12-0.62 0.12-0.233 0-0.45-0.04-0.65-0.12-0.196-0.083-0.368-0.202-0.515-0.355-0.143-0.157-0.256-0.345-0.34-0.565-0.083-0.22-0.125-0.468-0.125-0.745 0-0.283 0.042-0.537 0.125-0.76 0.084-0.227 0.197-0.417 0.34-0.57 0.147-0.157 0.319-0.277 0.515-0.36 0.2-0.083 0.417-0.125 0.65-0.125 0.234 0 0.449 0.042 0.645 0.125 0.2 0.083 0.372 0.203 0.515 0.36 0.147 0.153 0.262 0.343 0.345 0.57 0.084 0.223 0.125 0.477 0.125 0.76zm-0.83 0c0-0.203-0.021-0.375-0.065-0.515-0.04-0.143-0.096-0.258-0.17-0.345-0.07-0.09-0.155-0.153-0.255-0.19-0.096-0.04-0.2-0.06-0.31-0.06-0.113 0-0.218 0.02-0.315 0.06-0.096 0.037-0.18 0.1-0.25 0.19-0.07 0.087-0.125 0.202-0.165 0.345-0.04 0.14-0.06 0.312-0.06 0.515 0 0.2 0.02 0.368 0.06 0.505s0.095 0.248 0.165 0.335c0.07 0.083 0.154 0.143 0.25 0.18 0.097 0.037 0.202 0.055 0.315 0.055 0.11 0 0.214-0.018 0.31-0.055 0.1-0.037 0.185-0.097 0.255-0.18 0.074-0.087 0.13-0.198 0.17-0.335 0.044-0.137 0.065-0.305 0.065-0.505zm3.3-1.565c0.037-0.047 0.08-0.087 0.13-0.12 0.054-0.037 0.127-0.055 0.22-0.055h0.775l-5.305 7.035c-0.036 0.047-0.081 0.087-0.135 0.12-0.053 0.03-0.118 0.045-0.195 0.045h-0.8l5.31-7.025zm1.56 5.33c0 0.277-0.045 0.525-0.135 0.745s-0.21 0.407-0.36 0.56-0.323 0.272-0.52 0.355c-0.196 0.08-0.403 0.12-0.62 0.12-0.233 0-0.45-0.04-0.65-0.12-0.196-0.083-0.368-0.202-0.515-0.355-0.143-0.153-0.256-0.34-0.34-0.56-0.08-0.22-0.12-0.468-0.12-0.745 0-0.283 0.04-0.537 0.12-0.76 0.084-0.227 0.197-0.418 0.34-0.575 0.147-0.157 0.319-0.275 0.515-0.355 0.2-0.083 0.417-0.125 0.65-0.125 0.234 0 0.45 0.042 0.65 0.125 0.2 0.08 0.372 0.198 0.515 0.355 0.147 0.157 0.262 0.348 0.345 0.575 0.084 0.223 0.125 0.477 0.125 0.76zm-0.83 0c0-0.203-0.021-0.375-0.065-0.515-0.04-0.143-0.096-0.258-0.17-0.345-0.073-0.09-0.16-0.153-0.26-0.19-0.096-0.04-0.2-0.06-0.31-0.06s-0.213 0.02-0.31 0.06c-0.096 0.037-0.181 0.1-0.255 0.19-0.07 0.087-0.125 0.202-0.165 0.345-0.04 0.14-0.06 0.312-0.06 0.515 0 0.2 0.02 0.368 0.06 0.505s0.095 0.248 0.165 0.335c0.074 0.083 0.159 0.143 0.255 0.18 0.097 0.037 0.2 0.055 0.31 0.055s0.214-0.018 0.31-0.055c0.1-0.037 0.187-0.097 0.26-0.18 0.074-0.087 0.13-0.198 0.17-0.335 0.044-0.137 0.065-0.305 0.065-0.505z" fill="#00A693"/>
<path d="m273.89 244.96c-0.03 0.05-0.064 0.088-0.1 0.115-0.034 0.023-0.075 0.035-0.125 0.035-0.057 0-0.124-0.028-0.2-0.085-0.077-0.057-0.174-0.118-0.29-0.185-0.114-0.07-0.252-0.133-0.415-0.19-0.16-0.057-0.355-0.085-0.585-0.085-0.217 0-0.409 0.03-0.575 0.09-0.164 0.057-0.302 0.135-0.415 0.235-0.11 0.1-0.194 0.218-0.25 0.355-0.057 0.133-0.085 0.278-0.085 0.435 0 0.2 0.048 0.367 0.145 0.5 0.1 0.13 0.23 0.242 0.39 0.335 0.163 0.093 0.346 0.175 0.55 0.245 0.206 0.067 0.416 0.137 0.63 0.21 0.216 0.073 0.426 0.157 0.63 0.25 0.206 0.09 0.39 0.205 0.55 0.345 0.163 0.14 0.293 0.312 0.39 0.515 0.1 0.203 0.15 0.453 0.15 0.75 0 0.313-0.054 0.608-0.16 0.885-0.107 0.273-0.264 0.512-0.47 0.715-0.204 0.203-0.455 0.363-0.755 0.48-0.297 0.117-0.635 0.175-1.015 0.175-0.467 0-0.89-0.083-1.27-0.25-0.38-0.17-0.705-0.398-0.975-0.685l0.28-0.46c0.026-0.037 0.058-0.067 0.095-0.09 0.04-0.027 0.083-0.04 0.13-0.04 0.043 0 0.091 0.018 0.145 0.055 0.056 0.033 0.12 0.077 0.19 0.13s0.15 0.112 0.24 0.175 0.191 0.122 0.305 0.175c0.116 0.053 0.248 0.098 0.395 0.135 0.146 0.033 0.311 0.05 0.495 0.05 0.23 0 0.435-0.032 0.615-0.095s0.331-0.152 0.455-0.265c0.126-0.117 0.223-0.255 0.29-0.415 0.066-0.16 0.1-0.338 0.1-0.535 0-0.217-0.05-0.393-0.15-0.53-0.097-0.14-0.225-0.257-0.385-0.35s-0.344-0.172-0.55-0.235c-0.207-0.067-0.417-0.133-0.63-0.2-0.214-0.07-0.424-0.15-0.63-0.24-0.207-0.09-0.39-0.207-0.55-0.35s-0.29-0.322-0.39-0.535c-0.097-0.217-0.145-0.483-0.145-0.8 0-0.253 0.048-0.498 0.145-0.735 0.1-0.237 0.243-0.447 0.43-0.63 0.19-0.183 0.421-0.33 0.695-0.44 0.276-0.11 0.593-0.165 0.95-0.165 0.4 0 0.763 0.063 1.09 0.19 0.33 0.127 0.62 0.31 0.87 0.55l-0.235 0.46zm4.915 2.96c0-0.207-0.03-0.395-0.09-0.565-0.057-0.173-0.142-0.322-0.255-0.445-0.11-0.127-0.245-0.223-0.405-0.29-0.16-0.07-0.342-0.105-0.545-0.105-0.427 0-0.765 0.125-1.015 0.375-0.247 0.247-0.4 0.59-0.46 1.03h2.77zm0.72 2.375c-0.11 0.133-0.242 0.25-0.395 0.35-0.153 0.097-0.318 0.177-0.495 0.24-0.173 0.063-0.353 0.11-0.54 0.14-0.187 0.033-0.372 0.05-0.555 0.05-0.35 0-0.673-0.058-0.97-0.175-0.293-0.12-0.548-0.293-0.765-0.52-0.213-0.23-0.38-0.513-0.5-0.85s-0.18-0.723-0.18-1.16c0-0.353 0.053-0.683 0.16-0.99 0.11-0.307 0.267-0.572 0.47-0.795 0.203-0.227 0.452-0.403 0.745-0.53 0.293-0.13 0.623-0.195 0.99-0.195 0.303 0 0.583 0.052 0.84 0.155 0.26 0.1 0.483 0.247 0.67 0.44 0.19 0.19 0.338 0.427 0.445 0.71 0.107 0.28 0.16 0.6 0.16 0.96 0 0.14-0.015 0.233-0.045 0.28s-0.087 0.07-0.17 0.07h-3.385c0.01 0.32 0.053 0.598 0.13 0.835 0.08 0.237 0.19 0.435 0.33 0.595 0.14 0.157 0.307 0.275 0.5 0.355 0.193 0.077 0.41 0.115 0.65 0.115 0.223 0 0.415-0.025 0.575-0.075 0.163-0.053 0.303-0.11 0.42-0.17s0.213-0.115 0.29-0.165c0.08-0.053 0.148-0.08 0.205-0.08 0.073 0 0.13 0.028 0.17 0.085l0.25 0.325zm2.093-6.655v7.365h-0.89v-7.365h0.89zm4.833 4.28c0-0.207-0.03-0.395-0.09-0.565-0.056-0.173-0.141-0.322-0.255-0.445-0.11-0.127-0.245-0.223-0.405-0.29-0.16-0.07-0.341-0.105-0.545-0.105-0.426 0-0.765 0.125-1.015 0.375-0.246 0.247-0.4 0.59-0.46 1.03h2.77zm0.72 2.375c-0.11 0.133-0.241 0.25-0.395 0.35-0.153 0.097-0.318 0.177-0.495 0.24-0.173 0.063-0.353 0.11-0.54 0.14-0.186 0.033-0.371 0.05-0.555 0.05-0.35 0-0.673-0.058-0.97-0.175-0.293-0.12-0.548-0.293-0.765-0.52-0.213-0.23-0.38-0.513-0.5-0.85s-0.18-0.723-0.18-1.16c0-0.353 0.054-0.683 0.16-0.99 0.11-0.307 0.267-0.572 0.47-0.795 0.204-0.227 0.452-0.403 0.745-0.53 0.294-0.13 0.624-0.195 0.99-0.195 0.304 0 0.584 0.052 0.84 0.155 0.26 0.1 0.484 0.247 0.67 0.44 0.19 0.19 0.339 0.427 0.445 0.71 0.107 0.28 0.16 0.6 0.16 0.96 0 0.14-0.015 0.233-0.045 0.28s-0.086 0.07-0.17 0.07h-3.385c0.01 0.32 0.054 0.598 0.13 0.835 0.08 0.237 0.19 0.435 0.33 0.595 0.14 0.157 0.307 0.275 0.5 0.355 0.194 0.077 0.41 0.115 0.65 0.115 0.224 0 0.415-0.025 0.575-0.075 0.164-0.053 0.304-0.11 0.42-0.17 0.117-0.06 0.214-0.115 0.29-0.165 0.08-0.053 0.149-0.08 0.205-0.08 0.074 0 0.13 0.028 0.17 0.085l0.25 0.325zm4.699-3.455c-0.027 0.037-0.054 0.065-0.08 0.085-0.027 0.02-0.064 0.03-0.11 0.03-0.05 0-0.105-0.02-0.165-0.06-0.06-0.043-0.135-0.09-0.225-0.14-0.087-0.05-0.195-0.095-0.325-0.135-0.127-0.043-0.284-0.065-0.47-0.065-0.25 0-0.47 0.045-0.66 0.135-0.19 0.087-0.35 0.213-0.48 0.38-0.127 0.167-0.224 0.368-0.29 0.605-0.064 0.237-0.095 0.502-0.095 0.795 0 0.307 0.035 0.58 0.105 0.82 0.07 0.237 0.168 0.437 0.295 0.6 0.13 0.16 0.285 0.283 0.465 0.37 0.183 0.083 0.388 0.125 0.615 0.125 0.216 0 0.395-0.025 0.535-0.075 0.14-0.053 0.255-0.112 0.345-0.175 0.093-0.063 0.17-0.12 0.23-0.17 0.063-0.053 0.125-0.08 0.185-0.08 0.073 0 0.13 0.028 0.17 0.085l0.25 0.325c-0.11 0.137-0.235 0.253-0.375 0.35s-0.292 0.178-0.455 0.245c-0.16 0.063-0.329 0.11-0.505 0.14-0.177 0.03-0.357 0.045-0.54 0.045-0.317 0-0.612-0.058-0.885-0.175-0.27-0.117-0.505-0.285-0.705-0.505-0.2-0.223-0.357-0.497-0.47-0.82-0.114-0.323-0.17-0.692-0.17-1.105 0-0.377 0.051-0.725 0.155-1.045 0.106-0.32 0.26-0.595 0.46-0.825 0.203-0.233 0.451-0.415 0.745-0.545 0.296-0.13 0.636-0.195 1.02-0.195 0.356 0 0.67 0.058 0.94 0.175 0.273 0.113 0.515 0.275 0.725 0.485l-0.235 0.32zm2.805 4.245c-0.4 0-0.708-0.112-0.925-0.335-0.213-0.223-0.32-0.545-0.32-0.965v-3.1h-0.61c-0.053 0-0.098-0.015-0.135-0.045-0.037-0.033-0.055-0.083-0.055-0.15v-0.355l0.83-0.105 0.205-1.565c0.01-0.05 0.032-0.09 0.065-0.12 0.037-0.033 0.083-0.05 0.14-0.05h0.45v1.745h1.465v0.645h-1.465v3.04c0 0.213 0.052 0.372 0.155 0.475s0.237 0.155 0.4 0.155c0.093 0 0.173-0.012 0.24-0.035 0.07-0.027 0.13-0.055 0.18-0.085s0.092-0.057 0.125-0.08c0.037-0.027 0.068-0.04 0.095-0.04 0.047 0 0.088 0.028 0.125 0.085l0.26 0.425c-0.153 0.143-0.338 0.257-0.555 0.34-0.217 0.08-0.44 0.12-0.67 0.12z" fill="#0051FF"/>
<path d="m262.37 61.835-2.235 7.165h-0.87l-1.815-5.465c-0.017-0.0533-0.033-0.11-0.05-0.17-0.013-0.06-0.028-0.1233-0.045-0.19-0.017 0.0667-0.033 0.13-0.05 0.19s-0.033 0.1167-0.05 0.17l-1.825 5.465h-0.87l-2.235-7.165h0.805c0.087 0 0.158 0.0217 0.215 0.065 0.06 0.0433 0.098 0.0983 0.115 0.165l1.48 4.98c0.023 0.09 0.045 0.1867 0.065 0.29 0.023 0.1033 0.045 0.2133 0.065 0.33 0.023-0.1167 0.047-0.2267 0.07-0.33 0.027-0.1067 0.055-0.2033 0.085-0.29l1.685-4.98c0.02-0.0567 0.058-0.1083 0.115-0.155 0.06-0.05 0.132-0.075 0.215-0.075h0.28c0.087 0 0.157 0.0217 0.21 0.065s0.093 0.0983 0.12 0.165l1.68 4.98c0.03 0.0867 0.057 0.18 0.08 0.28 0.027 0.1 0.052 0.205 0.075 0.315 0.017-0.11 0.035-0.215 0.055-0.315s0.042-0.1933 0.065-0.28l1.485-4.98c0.017-0.06 0.053-0.1133 0.11-0.16 0.06-0.0467 0.132-0.07 0.215-0.07h0.755zm1.757 2.1v5.065h-0.89v-5.065h0.89zm0.19-1.59c0 0.0867-0.018 0.1683-0.055 0.245-0.033 0.0733-0.08 0.14-0.14 0.2-0.056 0.0567-0.125 0.1017-0.205 0.135-0.076 0.0333-0.158 0.05-0.245 0.05-0.086 0-0.168-0.0167-0.245-0.05-0.073-0.0333-0.138-0.0783-0.195-0.135-0.056-0.06-0.101-0.1267-0.135-0.2-0.033-0.0767-0.05-0.1583-0.05-0.245s0.017-0.1683 0.05-0.245c0.034-0.08 0.079-0.1483 0.135-0.205 0.057-0.06 0.122-0.1067 0.195-0.14 0.077-0.0333 0.159-0.05 0.245-0.05 0.087 0 0.169 0.0167 0.245 0.05 0.08 0.0333 0.149 0.08 0.205 0.14 0.06 0.0567 0.107 0.125 0.14 0.205 0.037 0.0767 0.055 0.1583 0.055 0.245zm2.828 6.735c-0.4 0-0.709-0.1117-0.925-0.335-0.214-0.2233-0.32-0.545-0.32-0.965v-3.1h-0.61c-0.054 0-0.099-0.015-0.135-0.045-0.037-0.0333-0.055-0.0833-0.055-0.15v-0.355l0.83-0.105 0.205-1.565c0.01-0.05 0.031-0.09 0.065-0.12 0.036-0.0333 0.083-0.05 0.14-0.05h0.45v1.745h1.465v0.645h-1.465v3.04c0 0.2133 0.051 0.3717 0.155 0.475 0.103 0.1033 0.236 0.155 0.4 0.155 0.093 0 0.173-0.0117 0.24-0.035 0.07-0.0267 0.13-0.055 0.18-0.085s0.091-0.0567 0.125-0.08c0.036-0.0267 0.068-0.04 0.095-0.04 0.046 0 0.088 0.0283 0.125 0.085l0.26 0.425c-0.154 0.1433-0.339 0.2567-0.555 0.34-0.217 0.08-0.44 0.12-0.67 0.12zm2.924-4.47c0.216-0.23 0.456-0.4133 0.72-0.55 0.263-0.1367 0.566-0.205 0.91-0.205 0.276 0 0.52 0.0467 0.73 0.14 0.213 0.09 0.39 0.22 0.53 0.39 0.143 0.1667 0.251 0.3683 0.325 0.605 0.073 0.2367 0.11 0.4983 0.11 0.785v3.225h-0.895v-3.225c0-0.3833-0.089-0.68-0.265-0.89-0.174-0.2133-0.439-0.32-0.795-0.32-0.264 0-0.51 0.0633-0.74 0.19-0.227 0.1267-0.437 0.2983-0.63 0.515v3.73h-0.895v-7.365h0.895v2.975zm7.981 0.53c-0.167-0.2233-0.347-0.3783-0.54-0.465-0.193-0.09-0.41-0.135-0.65-0.135-0.47 0-0.832 0.1683-1.085 0.505s-0.38 0.8167-0.38 1.44c0 0.33 0.028 0.6133 0.085 0.85 0.057 0.2333 0.14 0.4267 0.25 0.58 0.11 0.15 0.245 0.26 0.405 0.33s0.342 0.105 0.545 0.105c0.293 0 0.548-0.0667 0.765-0.2 0.22-0.1333 0.422-0.3217 0.605-0.565v-2.445zm0.89-3.505v7.365h-0.53c-0.127 0-0.207-0.0617-0.24-0.185l-0.08-0.615c-0.217 0.26-0.463 0.47-0.74 0.63s-0.597 0.24-0.96 0.24c-0.29 0-0.553-0.055-0.79-0.165-0.237-0.1133-0.438-0.2783-0.605-0.495s-0.295-0.4867-0.385-0.81-0.135-0.695-0.135-1.115c0-0.3733 0.05-0.72 0.15-1.04 0.1-0.3233 0.243-0.6033 0.43-0.84s0.415-0.4217 0.685-0.555c0.273-0.1367 0.58-0.205 0.92-0.205 0.31 0 0.575 0.0533 0.795 0.16 0.223 0.1033 0.422 0.2483 0.595 0.435v-2.805h0.89zm2.251 3.315c0.16-0.3467 0.356-0.6167 0.59-0.81 0.233-0.1967 0.518-0.295 0.855-0.295 0.106 0 0.208 0.0117 0.305 0.035 0.1 0.0233 0.188 0.06 0.265 0.11l-0.065 0.665c-0.02 0.0833-0.07 0.125-0.15 0.125-0.047 0-0.115-0.01-0.205-0.03s-0.192-0.03-0.305-0.03c-0.16 0-0.304 0.0233-0.43 0.07-0.124 0.0467-0.235 0.1167-0.335 0.21-0.097 0.09-0.185 0.2033-0.265 0.34-0.077 0.1333-0.147 0.2867-0.21 0.46v3.2h-0.895v-5.065h0.51c0.096 0 0.163 0.0183 0.2 0.055 0.036 0.0367 0.061 0.1 0.075 0.19l0.06 0.77zm5.464 1.77c-0.41 0.0133-0.76 0.0467-1.05 0.1-0.287 0.05-0.522 0.1167-0.705 0.2-0.18 0.0833-0.312 0.1817-0.395 0.295-0.08 0.1133-0.12 0.24-0.12 0.38 0 0.1333 0.022 0.2483 0.065 0.345s0.102 0.1767 0.175 0.24c0.077 0.06 0.165 0.105 0.265 0.135 0.103 0.0267 0.213 0.04 0.33 0.04 0.157 0 0.3-0.015 0.43-0.045 0.13-0.0333 0.252-0.08 0.365-0.14 0.117-0.06 0.227-0.1317 0.33-0.215 0.107-0.0833 0.21-0.1783 0.31-0.285v-1.05zm-2.875-2.07c0.28-0.27 0.582-0.4717 0.905-0.605s0.682-0.2 1.075-0.2c0.283 0 0.535 0.0467 0.755 0.14s0.405 0.2233 0.555 0.39 0.263 0.3683 0.34 0.605 0.115 0.4967 0.115 0.78v3.24h-0.395c-0.087 0-0.153-0.0133-0.2-0.04-0.047-0.03-0.083-0.0867-0.11-0.17l-0.1-0.48c-0.133 0.1233-0.263 0.2333-0.39 0.33-0.127 0.0933-0.26 0.1733-0.4 0.24-0.14 0.0633-0.29 0.1117-0.45 0.145-0.157 0.0367-0.332 0.055-0.525 0.055-0.197 0-0.382-0.0267-0.555-0.08-0.173-0.0567-0.325-0.14-0.455-0.25-0.127-0.11-0.228-0.2483-0.305-0.415-0.073-0.17-0.11-0.37-0.11-0.6 0-0.2 0.055-0.3917 0.165-0.575 0.11-0.1867 0.288-0.3517 0.535-0.495s0.568-0.26 0.965-0.35c0.397-0.0933 0.883-0.1467 1.46-0.16v-0.395c0-0.3933-0.085-0.69-0.255-0.89-0.17-0.2033-0.418-0.305-0.745-0.305-0.22 0-0.405 0.0283-0.555 0.085-0.147 0.0533-0.275 0.115-0.385 0.185-0.107 0.0667-0.2 0.1283-0.28 0.185-0.077 0.0533-0.153 0.08-0.23 0.08-0.06 0-0.112-0.015-0.155-0.045-0.043-0.0333-0.08-0.0733-0.11-0.12l-0.16-0.285zm12.056-0.715-1.64 5.065h-0.705c-0.086 0-0.146-0.0567-0.18-0.17l-1.12-3.435c-0.026-0.0767-0.048-0.1533-0.065-0.23-0.016-0.08-0.033-0.1583-0.05-0.235-0.016 0.0767-0.033 0.155-0.05 0.235-0.016 0.0767-0.038 0.155-0.065 0.235l-1.14 3.43c-0.03 0.1133-0.096 0.17-0.2 0.17h-0.67l-1.64-5.065h0.7c0.07 0 0.129 0.0183 0.175 0.055 0.05 0.0367 0.084 0.08 0.1 0.13l0.97 3.26c0.057 0.24 0.102 0.4667 0.135 0.68 0.03-0.11 0.06-0.2217 0.09-0.335 0.034-0.1133 0.069-0.2283 0.105-0.345l1.07-3.28c0.017-0.05 0.045-0.0917 0.085-0.125 0.044-0.0333 0.095-0.05 0.155-0.05h0.39c0.067 0 0.122 0.0167 0.165 0.05 0.044 0.0333 0.074 0.075 0.09 0.125l1.045 3.28c0.037 0.1167 0.07 0.2317 0.1 0.345s0.059 0.225 0.085 0.335c0.017-0.11 0.037-0.22 0.06-0.33 0.027-0.1133 0.055-0.23 0.085-0.35l0.99-3.26c0.017-0.0533 0.049-0.0967 0.095-0.13 0.047-0.0367 0.102-0.055 0.165-0.055h0.67z" fill="#0051FF"/>
<path d="m135.63 300.86v1.141h-5.495v-1.141h2.1v-6.314c0-0.224 7e-3 -0.453 0.021-0.686l-1.617 1.365c-0.07 0.056-0.142 0.093-0.217 0.112-0.07 0.014-0.137 0.014-0.203 0-0.06-0.014-0.116-0.035-0.168-0.063-0.046-0.033-0.084-0.068-0.112-0.105l-0.469-0.658 3.038-2.611h1.225v8.96h1.897z" fill="#0F151B"/>
<path d="m133.49 334.28v-3.682c0-0.294 0.021-0.616 0.063-0.966l-3.388 4.648h3.325zm2.702 0v0.868c0 0.084-0.028 0.156-0.084 0.217-0.051 0.061-0.13 0.091-0.238 0.091h-1.071v2.548h-1.309v-2.548h-4.361c-0.107 0-0.2-0.03-0.28-0.091-0.074-0.065-0.123-0.145-0.147-0.238l-0.154-0.77 4.837-6.44h1.414v6.363h1.393z" fill="#0F151B"/>
<path d="m136.05 363.92v0.665c0 0.196-0.021 0.355-0.063 0.476s-0.084 0.224-0.126 0.308l-3.983 8.106c-0.07 0.149-0.17 0.275-0.301 0.378-0.126 0.098-0.294 0.147-0.504 0.147h-1.085l4.06-7.973c0.075-0.145 0.15-0.275 0.224-0.392 0.075-0.117 0.159-0.229 0.252-0.336h-5.033c-0.093 0-0.175-0.035-0.245-0.105-0.07-0.075-0.105-0.159-0.105-0.252v-1.022h6.909z" fill="#0F151B"/>
<path d="m131.03 409.13c0-0.135 0.023-0.261 0.07-0.378 0.051-0.121 0.119-0.226 0.203-0.315 0.088-0.089 0.191-0.159 0.308-0.21 0.121-0.051 0.249-0.077 0.385-0.077 0.135 0 0.261 0.026 0.378 0.077 0.121 0.051 0.226 0.121 0.315 0.21 0.088 0.089 0.158 0.194 0.21 0.315 0.051 0.117 0.077 0.243 0.077 0.378 0 0.14-0.026 0.268-0.077 0.385-0.052 0.117-0.122 0.219-0.21 0.308-0.089 0.089-0.194 0.156-0.315 0.203-0.117 0.051-0.243 0.077-0.378 0.077-0.136 0-0.264-0.026-0.385-0.077-0.117-0.047-0.22-0.114-0.308-0.203-0.084-0.089-0.152-0.191-0.203-0.308-0.047-0.117-0.07-0.245-0.07-0.385z" fill="#0F151B"/>
<path d="m205.33 300.58c0.164 0 0.292 0.049 0.385 0.147 0.094 0.093 0.14 0.215 0.14 0.364v0.91h-6.818v-0.511c0-0.103 0.021-0.21 0.063-0.322s0.11-0.215 0.203-0.308l3.136-3.143c0.266-0.266 0.502-0.52 0.707-0.763 0.21-0.243 0.388-0.485 0.532-0.728 0.15-0.243 0.262-0.488 0.336-0.735 0.08-0.252 0.119-0.516 0.119-0.791 0-0.266-0.042-0.499-0.126-0.7-0.079-0.205-0.191-0.373-0.336-0.504-0.14-0.135-0.31-0.236-0.511-0.301-0.196-0.07-0.413-0.105-0.651-0.105-0.228 0-0.441 0.033-0.637 0.098-0.191 0.065-0.364 0.156-0.518 0.273-0.149 0.117-0.275 0.257-0.378 0.42-0.098 0.159-0.17 0.334-0.217 0.525-0.07 0.191-0.161 0.32-0.273 0.385-0.107 0.065-0.266 0.079-0.476 0.042l-0.791-0.14c0.07-0.476 0.201-0.894 0.392-1.253 0.196-0.359 0.441-0.658 0.735-0.896 0.294-0.243 0.63-0.425 1.008-0.546 0.383-0.126 0.796-0.189 1.239-0.189 0.448 0 0.859 0.068 1.232 0.203 0.378 0.131 0.703 0.32 0.973 0.567 0.276 0.243 0.49 0.539 0.644 0.889s0.231 0.744 0.231 1.183c0 0.373-0.056 0.719-0.168 1.036-0.107 0.317-0.254 0.621-0.441 0.91-0.186 0.289-0.406 0.572-0.658 0.847-0.247 0.271-0.508 0.546-0.784 0.826l-2.436 2.492c0.201-0.056 0.402-0.1 0.602-0.133 0.206-0.033 0.399-0.049 0.581-0.049h2.961z" fill="#0F151B"/>
<path d="m201.13 331.64c0.243-0.051 0.474-0.089 0.693-0.112 0.224-0.023 0.439-0.035 0.644-0.035 0.528 0 0.992 0.079 1.393 0.238 0.406 0.154 0.745 0.369 1.015 0.644 0.276 0.275 0.481 0.6 0.616 0.973 0.14 0.369 0.21 0.77 0.21 1.204 0 0.537-0.093 1.024-0.28 1.463-0.186 0.439-0.445 0.814-0.777 1.127-0.331 0.308-0.723 0.546-1.176 0.714-0.448 0.168-0.933 0.252-1.456 0.252-0.308 0-0.602-0.03-0.882-0.091-0.275-0.061-0.534-0.142-0.777-0.245-0.242-0.107-0.466-0.229-0.672-0.364-0.205-0.14-0.389-0.285-0.553-0.434l0.462-0.644c0.098-0.14 0.229-0.21 0.392-0.21 0.103 0 0.215 0.037 0.336 0.112 0.122 0.075 0.262 0.156 0.42 0.245 0.164 0.084 0.355 0.163 0.574 0.238 0.22 0.075 0.481 0.112 0.784 0.112 0.332 0 0.628-0.054 0.889-0.161 0.262-0.107 0.481-0.257 0.658-0.448 0.182-0.196 0.32-0.429 0.413-0.7 0.094-0.271 0.14-0.567 0.14-0.889 0-0.294-0.044-0.558-0.133-0.791-0.084-0.233-0.212-0.432-0.385-0.595-0.168-0.163-0.38-0.287-0.637-0.371-0.256-0.089-0.553-0.133-0.889-0.133-0.247 0-0.501 0.021-0.763 0.063-0.256 0.042-0.518 0.107-0.784 0.196l-0.938-0.266 0.826-4.816h4.879v0.651c0 0.215-0.067 0.39-0.203 0.525-0.135 0.135-0.361 0.203-0.679 0.203h-2.954l-0.406 2.345z" fill="#0F151B"/>
<path d="m202.5 372.92c0.304 0 0.574-0.042 0.812-0.126 0.238-0.089 0.437-0.21 0.595-0.364 0.164-0.159 0.287-0.345 0.371-0.56s0.126-0.448 0.126-0.7c0-0.308-0.049-0.574-0.147-0.798-0.093-0.224-0.226-0.408-0.399-0.553-0.168-0.149-0.368-0.259-0.602-0.329-0.233-0.075-0.485-0.112-0.756-0.112-0.27 0-0.522 0.037-0.756 0.112-0.233 0.07-0.436 0.18-0.609 0.329-0.168 0.145-0.301 0.329-0.399 0.553-0.093 0.224-0.14 0.49-0.14 0.798 0 0.252 0.042 0.485 0.126 0.7s0.206 0.401 0.364 0.56c0.164 0.154 0.364 0.275 0.602 0.364 0.238 0.084 0.509 0.126 0.812 0.126zm0-7.959c-0.275 0-0.518 0.042-0.728 0.126-0.205 0.084-0.375 0.196-0.511 0.336-0.135 0.14-0.238 0.306-0.308 0.497-0.065 0.187-0.098 0.385-0.098 0.595s0.028 0.415 0.084 0.616c0.061 0.201 0.154 0.38 0.28 0.539 0.131 0.154 0.301 0.278 0.511 0.371s0.467 0.14 0.77 0.14c0.304 0 0.56-0.047 0.77-0.14s0.378-0.217 0.504-0.371c0.131-0.159 0.224-0.338 0.28-0.539 0.061-0.201 0.091-0.406 0.091-0.616s-0.035-0.408-0.105-0.595c-0.065-0.191-0.168-0.357-0.308-0.497-0.135-0.14-0.305-0.252-0.511-0.336-0.205-0.084-0.445-0.126-0.721-0.126zm1.589 3.78c0.621 0.191 1.085 0.495 1.393 0.91 0.313 0.415 0.469 0.931 0.469 1.547 0 0.443-0.084 0.845-0.252 1.204s-0.403 0.665-0.707 0.917c-0.303 0.252-0.667 0.448-1.092 0.588-0.42 0.135-0.886 0.203-1.4 0.203-0.513 0-0.982-0.068-1.407-0.203-0.42-0.14-0.781-0.336-1.085-0.588-0.303-0.252-0.539-0.558-0.707-0.917s-0.252-0.761-0.252-1.204c0-0.616 0.154-1.132 0.462-1.547 0.313-0.415 0.78-0.719 1.4-0.91-0.504-0.201-0.884-0.492-1.141-0.875-0.252-0.383-0.378-0.842-0.378-1.379 0-0.378 0.075-0.73 0.224-1.057 0.15-0.327 0.36-0.609 0.63-0.847 0.276-0.243 0.605-0.432 0.987-0.567 0.383-0.14 0.805-0.21 1.267-0.21s0.882 0.07 1.26 0.21c0.383 0.135 0.71 0.324 0.98 0.567 0.276 0.238 0.488 0.52 0.637 0.847 0.154 0.327 0.231 0.679 0.231 1.057 0 0.537-0.128 0.996-0.385 1.379-0.252 0.383-0.63 0.674-1.134 0.875z" fill="#0F151B"/>
<path d="m206.17 404.96c0 0.882-0.095 1.645-0.287 2.289-0.186 0.644-0.445 1.178-0.777 1.603-0.331 0.425-0.721 0.74-1.169 0.945s-0.931 0.308-1.449 0.308-1.001-0.103-1.449-0.308-0.837-0.52-1.169-0.945c-0.326-0.425-0.583-0.959-0.77-1.603-0.186-0.644-0.28-1.407-0.28-2.289s0.094-1.645 0.28-2.289c0.187-0.649 0.444-1.183 0.77-1.603 0.332-0.425 0.721-0.74 1.169-0.945 0.448-0.21 0.931-0.315 1.449-0.315s1.001 0.105 1.449 0.315c0.448 0.205 0.838 0.52 1.169 0.945 0.332 0.42 0.591 0.954 0.777 1.603 0.192 0.644 0.287 1.407 0.287 2.289zm-1.554 0c0-0.747-0.06-1.367-0.182-1.862-0.116-0.499-0.273-0.898-0.469-1.197s-0.422-0.511-0.679-0.637c-0.256-0.126-0.522-0.189-0.798-0.189-0.28 0-0.548 0.063-0.805 0.189-0.252 0.126-0.476 0.338-0.672 0.637s-0.352 0.698-0.469 1.197c-0.116 0.495-0.175 1.115-0.175 1.862s0.059 1.37 0.175 1.869c0.117 0.495 0.273 0.891 0.469 1.19s0.42 0.511 0.672 0.637c0.257 0.126 0.525 0.189 0.805 0.189 0.276 0 0.542-0.063 0.798-0.189 0.257-0.126 0.483-0.338 0.679-0.637s0.353-0.695 0.469-1.19c0.122-0.499 0.182-1.122 0.182-1.869z" fill="#0F151B"/>
<path d="m269.26 294.69c0.07-0.476 0.201-0.894 0.392-1.253 0.196-0.359 0.441-0.658 0.735-0.896 0.294-0.243 0.63-0.425 1.008-0.546 0.383-0.126 0.796-0.189 1.239-0.189 0.448 0 0.854 0.065 1.218 0.196 0.369 0.126 0.684 0.303 0.945 0.532 0.266 0.229 0.469 0.502 0.609 0.819 0.145 0.317 0.217 0.665 0.217 1.043 0 0.322-0.039 0.607-0.119 0.854-0.074 0.243-0.184 0.457-0.329 0.644-0.14 0.187-0.312 0.343-0.518 0.469-0.205 0.126-0.436 0.231-0.693 0.315 0.626 0.182 1.095 0.474 1.407 0.875 0.313 0.397 0.469 0.896 0.469 1.498 0 0.485-0.091 0.917-0.273 1.295s-0.429 0.698-0.742 0.959c-0.308 0.261-0.669 0.462-1.085 0.602-0.41 0.135-0.847 0.203-1.309 0.203-0.518 0-0.966-0.061-1.344-0.182-0.378-0.126-0.704-0.303-0.98-0.532-0.27-0.233-0.497-0.513-0.679-0.84s-0.336-0.693-0.462-1.099l0.651-0.273c0.173-0.075 0.336-0.096 0.49-0.063 0.159 0.033 0.273 0.119 0.343 0.259 0.075 0.149 0.159 0.31 0.252 0.483 0.094 0.168 0.213 0.324 0.357 0.469 0.15 0.14 0.332 0.259 0.546 0.357 0.22 0.093 0.488 0.14 0.805 0.14 0.322 0 0.602-0.051 0.84-0.154 0.243-0.107 0.444-0.243 0.602-0.406 0.164-0.168 0.285-0.355 0.364-0.56 0.08-0.205 0.119-0.408 0.119-0.609 0-0.252-0.03-0.483-0.091-0.693-0.06-0.215-0.179-0.397-0.357-0.546-0.172-0.149-0.42-0.266-0.742-0.35-0.317-0.089-0.735-0.133-1.253-0.133v-1.085c0.425-5e-3 0.782-0.047 1.071-0.126 0.294-0.084 0.528-0.196 0.7-0.336 0.178-0.145 0.304-0.317 0.378-0.518 0.08-0.201 0.119-0.42 0.119-0.658 0-0.257-0.039-0.483-0.119-0.679-0.079-0.196-0.191-0.359-0.336-0.49-0.14-0.135-0.308-0.236-0.504-0.301s-0.413-0.098-0.651-0.098c-0.228 0-0.441 0.033-0.637 0.098-0.191 0.065-0.364 0.156-0.518 0.273-0.149 0.117-0.275 0.257-0.378 0.42-0.102 0.159-0.177 0.334-0.224 0.525-0.065 0.191-0.154 0.32-0.266 0.385-0.107 0.065-0.266 0.079-0.476 0.042l-0.791-0.14z" fill="#0F151B"/>
<path d="m272.48 336.87c0.304 0 0.581-0.049 0.833-0.147 0.252-0.103 0.467-0.243 0.644-0.42 0.182-0.177 0.322-0.387 0.42-0.63s0.147-0.506 0.147-0.791c0-0.308-0.049-0.583-0.147-0.826-0.093-0.247-0.228-0.455-0.406-0.623-0.172-0.168-0.382-0.296-0.63-0.385-0.242-0.093-0.511-0.14-0.805-0.14-0.303 0-0.578 0.051-0.826 0.154-0.242 0.103-0.45 0.243-0.623 0.42-0.172 0.177-0.305 0.385-0.399 0.623-0.093 0.238-0.14 0.49-0.14 0.756 0 0.299 0.042 0.572 0.126 0.819s0.208 0.46 0.371 0.637c0.164 0.173 0.364 0.308 0.602 0.406 0.243 0.098 0.521 0.147 0.833 0.147zm-0.553-5.236c-0.074 0.093-0.147 0.182-0.217 0.266-0.065 0.084-0.13 0.168-0.196 0.252 0.215-0.121 0.451-0.217 0.707-0.287 0.257-0.07 0.532-0.105 0.826-0.105 0.392 0 0.768 0.065 1.127 0.196 0.36 0.126 0.675 0.317 0.945 0.574 0.276 0.252 0.495 0.567 0.658 0.945 0.164 0.373 0.245 0.805 0.245 1.295 0 0.467-0.086 0.903-0.259 1.309-0.168 0.406-0.406 0.761-0.714 1.064-0.308 0.299-0.679 0.537-1.113 0.714-0.429 0.173-0.905 0.259-1.428 0.259-0.522 0-0.994-0.084-1.414-0.252s-0.779-0.404-1.078-0.707c-0.294-0.308-0.52-0.677-0.679-1.106-0.158-0.429-0.238-0.908-0.238-1.435 0-0.457 0.098-0.936 0.294-1.435s0.5-1.024 0.91-1.575l2.478-3.325c0.075-0.098 0.182-0.182 0.322-0.252 0.145-0.07 0.306-0.105 0.483-0.105h1.33l-2.989 3.71z" fill="#0F151B"/>
<path d="m270.6 366.92c0 0.597 0.159 1.057 0.476 1.379 0.322 0.317 0.77 0.476 1.344 0.476 0.308 0 0.579-0.049 0.812-0.147 0.238-0.098 0.439-0.229 0.602-0.392 0.164-0.168 0.287-0.362 0.371-0.581 0.084-0.224 0.126-0.462 0.126-0.714 0-0.294-0.046-0.555-0.14-0.784-0.088-0.233-0.217-0.432-0.385-0.595-0.163-0.163-0.359-0.287-0.588-0.371-0.228-0.089-0.478-0.133-0.749-0.133-0.284 0-0.541 0.047-0.77 0.14-0.228 0.093-0.424 0.224-0.588 0.392-0.163 0.163-0.289 0.359-0.378 0.588-0.088 0.224-0.133 0.471-0.133 0.742zm2.583 3.129c0.094-0.117 0.18-0.226 0.259-0.329 0.08-0.107 0.154-0.215 0.224-0.322-0.242 0.173-0.513 0.306-0.812 0.399-0.298 0.089-0.616 0.133-0.952 0.133-0.364 0-0.714-0.061-1.05-0.182-0.336-0.126-0.634-0.31-0.896-0.553-0.261-0.247-0.471-0.551-0.63-0.91-0.154-0.364-0.231-0.782-0.231-1.253 0-0.443 0.082-0.861 0.245-1.253 0.168-0.392 0.402-0.733 0.7-1.022 0.299-0.294 0.656-0.525 1.071-0.693 0.416-0.168 0.875-0.252 1.379-0.252 0.5 0 0.952 0.082 1.358 0.245 0.406 0.159 0.752 0.385 1.036 0.679 0.285 0.289 0.504 0.637 0.658 1.043 0.154 0.401 0.231 0.845 0.231 1.33 0 0.303-0.028 0.59-0.084 0.861-0.051 0.271-0.128 0.534-0.231 0.791-0.098 0.252-0.219 0.502-0.364 0.749-0.14 0.243-0.298 0.49-0.476 0.742l-2.373 3.402c-0.07 0.103-0.175 0.187-0.315 0.252-0.135 0.065-0.289 0.098-0.462 0.098h-1.379l3.094-3.955z" fill="#0F151B"/>
<path d="m261.07 405.06c-0.032-0.033-0.032-0.086 1e-3 -0.118l-0.528-0.533 0.528 0.533 5.885-5.833c0.016-0.016 0.037-0.025 0.059-0.025h10.483c0.506 0 0.917 0.411 0.917 0.917v10c0 0.506-0.411 0.917-0.917 0.917h-10.483c-0.022 0-0.043-9e-3 -0.059-0.024l-5.885-5.834h-1e-3z" stroke="#0F151B" stroke-width="1.5"/>
<path d="m270.49 405-1.179-1.178c-0.325-0.326-0.325-0.854 0-1.179 0.326-0.325 0.854-0.325 1.179 0l1.179 1.179 1.178-1.179c0.325-0.325 0.853-0.325 1.179 0 0.325 0.325 0.325 0.853 0 1.179l-1.179 1.178 1.179 1.179c0.325 0.325 0.325 0.853 0 1.178-0.326 0.325-0.854 0.325-1.179 0l-1.178-1.178-1.179 1.178c-0.325 0.325-0.853 0.325-1.179 0-0.325-0.325-0.325-0.853 0-1.178l1.179-1.179z" clip-rule="evenodd" fill="#0F151B" fill-rule="evenodd"/>
<g filter="url(#c)">
<rect x="309" y="168" width="80" height="212" rx="8" fill="#fff"/>
<path d="m325 192c0-4.418 3.582-8 8-8h32c4.418 0 8 3.582 8 8v32c0 4.418-3.582 8-8 8h-32c-4.418 0-8-3.582-8-8v-32z" fill="#c06"/>
<path d="m329.88 193.55v29.314c0 1.404 1.129 2.552 2.51 2.552h17.233c13.027 0 18.675-7.412 18.675-17.247 0-9.784-5.648-17.17-18.675-17.17h-17.233c-1.381 0-2.51 1.148-2.51 2.551z" fill="#fff"/>
<path d="m341.42 198.2v21.66h9.275c8.422 0 12.074-4.835 12.074-11.672 0-6.544-3.652-11.621-12.074-11.621h-7.669c-0.891 0-1.606 0.74-1.606 1.633z" fill="#c06"/>
<path d="m349.63 223.08h-14.986c-1.33 0-2.41-1.097-2.41-2.449v-24.837c0-1.352 1.08-2.449 2.41-2.449h14.986c14.22 0 16.342 9.3 16.342 14.836 0 9.605-5.812 14.899-16.342 14.899zm-14.986-28.918c-0.891 0-1.606 0.727-1.606 1.632v24.837c0 0.906 0.715 1.633 1.606 1.633h14.986c10.016 0 15.538-5.001 15.538-14.083 0-12.195-9.739-14.019-15.538-14.019h-14.986z" fill="#000"/>
<path d="m344.68 205.26c0.326 0 0.628 0.051 0.916 0.153 0.289 0.102 0.527 0.268 0.741 0.472 0.201 0.217 0.364 0.485 0.489 0.791 0.113 0.319 0.176 0.689 0.176 1.122 0 0.383-0.05 0.727-0.138 1.046-0.1 0.319-0.239 0.6-0.427 0.829-0.188 0.23-0.427 0.409-0.715 0.549-0.289 0.128-0.628 0.204-1.017 0.204h-2.196v-5.179h2.171v0.013zm-0.075 4.222c0.163 0 0.314-0.025 0.477-0.076 0.15-0.051 0.288-0.141 0.401-0.268 0.113-0.128 0.214-0.281 0.289-0.485s0.113-0.434 0.113-0.727c0-0.255-0.025-0.498-0.075-0.702-0.051-0.204-0.138-0.395-0.251-0.536-0.113-0.14-0.264-0.267-0.452-0.344-0.188-0.076-0.414-0.115-0.69-0.115h-0.804v3.266h0.992v-0.013z" fill="#fff"/>
<path d="m351.53 205.26v0.957h-2.685v1.109h2.472v0.88h-2.472v1.263h2.748v0.957h-3.866v-5.179h3.803v0.013z" fill="#fff"/>
<path d="m355.38 205.26 1.907 5.179h-1.167l-0.389-1.148h-1.908l-0.401 1.148h-1.13l1.92-5.179h1.168zm0.062 3.176-0.64-1.901h-0.012l-0.665 1.901h1.317z" fill="#fff"/>
<path d="m359.1 205.26v4.222h2.486v0.957h-3.603v-5.179h1.117z" fill="#fff"/>
<path d="m337.23 210.24c1.296 0 2.347-1.068 2.347-2.386 0-1.317-1.051-2.385-2.347-2.385s-2.347 1.068-2.347 2.385c0 1.318 1.051 2.386 2.347 2.386z" fill="#000"/>
<path d="m339 219.86c-1.97 0-3.552-1.62-3.552-3.61v-2.819c0-0.995 0.791-1.812 1.783-1.812 0.979 0 1.782 0.804 1.782 1.812v6.429h-0.013z" fill="#000"/>
<path d="m325 248c0-4.418 3.582-8 8-8h32c4.418 0 8 3.582 8 8v32c0 4.418-3.582 8-8 8h-32c-4.418 0-8-3.582-8-8v-32z" fill="#fff"/>
<path d="m352.66 263.07h1.665c0.528-0.019 0.849-0.06 0.965-0.124 0.157-0.087 0.263-0.261 0.316-0.522 0.034-0.174 0.051-0.432 0.051-0.775 0-0.42-0.034-0.732-0.101-0.936-0.096-0.285-0.326-0.458-0.691-0.521-0.072-0.01-0.244-0.015-0.517-0.015h-1.688v2.893zm-2.67 4.872v-9.94h4.975c0.682 0 1.203 0.056 1.561 0.167 0.818 0.257 1.367 0.783 1.649 1.578 0.145 0.417 0.217 1.045 0.217 1.884 0 1.008-0.08 1.732-0.239 2.173-0.32 0.873-0.976 1.375-1.968 1.506-0.117 0.019-0.613 0.037-1.489 0.051l-0.444 0.014h-1.592v2.567h-2.67zm-13.41-6.769h2.484c0.016-0.219 0.024-0.384 0.024-0.494 0-1.339-0.54-2.154-1.621-2.445-0.443-0.119-1.186-0.179-2.229-0.179-0.663 0-1.265 0.024-1.807 0.072-0.653 0.052-1.189 0.228-1.608 0.528-0.285 0.195-0.493 0.48-0.621 0.856-0.129 0.376-0.193 0.876-0.193 1.499 0 0.818 0.119 1.43 0.357 1.835 0.27 0.475 0.812 0.789 1.626 0.941 0.309 0.053 0.86 0.108 1.654 0.165 0.989 0.066 1.543 0.119 1.662 0.157 0.319 0.095 0.478 0.361 0.478 0.799 0 0.195-0.019 0.355-0.057 0.478-0.072 0.201-0.221 0.346-0.45 0.435-0.128 0.048-0.426 0.072-0.892 0.072h-0.913c-0.243-5e-3 -0.45-0.05-0.621-0.135-0.247-0.124-0.371-0.401-0.371-0.833v-0.071l-1e-3 -0.135h-2.484c0 0.808 0.059 1.386 0.179 1.733 0.214 0.623 0.657 1.037 1.329 1.241 0.547 0.167 1.517 0.25 2.908 0.25 0.834 0 1.454-0.038 1.859-0.115 0.967-0.18 1.588-0.611 1.865-1.292 0.152-0.372 0.229-0.958 0.229-1.758 0-0.347-0.017-0.659-0.051-0.936-0.057-0.461-0.236-0.835-0.537-1.121-0.382-0.367-0.997-0.593-1.846-0.679-0.268-0.028-0.938-0.078-2.012-0.15l-0.501-0.035c-0.22-0.015-0.397-0.062-0.53-0.143-0.186-0.114-0.279-0.353-0.279-0.715 0-0.399 0.105-0.659 0.314-0.778 0.21-0.119 0.64-0.179 1.289-0.179 0.668 0 1.076 0.104 1.224 0.31 0.095 0.14 0.143 0.414 0.143 0.822zm-5.574 8.74 0.373-0.038c0.022 0.126 0.068 0.218 0.136 0.277 0.069 0.059 0.161 0.089 0.278 0.089 0.123 0 0.216-0.026 0.278-0.079 0.063-0.052 0.094-0.113 0.094-0.184 0-0.045-0.013-0.083-0.039-0.115-0.026-0.031-0.072-0.059-0.138-0.082-0.044-0.015-0.146-0.043-0.305-0.082-0.205-0.051-0.348-0.114-0.431-0.188-0.116-0.104-0.174-0.231-0.174-0.381 0-0.096 0.027-0.187 0.082-0.271s0.134-0.148 0.237-0.192c0.103-0.043 0.227-0.066 0.373-0.066 0.237 0 0.416 0.053 0.537 0.158 0.12 0.104 0.183 0.244 0.189 0.419l-0.384 0.015c-0.016-0.098-0.051-0.168-0.105-0.211-0.054-0.042-0.135-0.064-0.242-0.064-0.112 0-0.199 0.023-0.261 0.069-0.041 0.029-0.061 0.068-0.061 0.118 0 0.045 0.019 0.083 0.057 0.115 0.048 0.041 0.165 0.083 0.351 0.127 0.186 0.043 0.324 0.089 0.413 0.136s0.159 0.112 0.209 0.194c0.051 0.082 0.076 0.183 0.076 0.303 0 0.109-0.03 0.211-0.091 0.307-0.06 0.095-0.146 0.166-0.256 0.212s-0.248 0.07-0.413 0.07c-0.24 0-0.424-0.056-0.552-0.168-0.129-0.112-0.206-0.274-0.231-0.488zm1.941-0.754h0.365v1.376h-0.365v-1.376zm0-0.524h0.365v0.336h-0.365v-0.336zm1.703 1.9h0.365v-0.857c0-0.106-7e-3 -0.188-0.021-0.245-0.013-0.057-0.037-0.108-0.071-0.153s-0.084-0.082-0.15-0.111c-0.067-0.029-0.14-0.044-0.22-0.044-0.182 0-0.333 0.079-0.453 0.236v-0.202h-0.338v1.376h0.365v-0.625c0-0.154 9e-3 -0.259 0.027-0.316 0.019-0.057 0.053-0.103 0.103-0.138s0.106-0.052 0.169-0.052c0.048 0 0.09 0.012 0.125 0.036 0.035 0.025 0.06 0.059 0.075 0.102 0.016 0.044 0.024 0.14 0.024 0.289v0.704zm1.102-0.718c0 0.147 0.028 0.254 0.084 0.322s0.125 0.102 0.208 0.102c0.088 0 0.162-0.035 0.223-0.105 0.06-0.069 0.091-0.173 0.091-0.31 0-0.142-0.029-0.249-0.087-0.318-0.059-0.069-0.132-0.104-0.221-0.104-0.086 0-0.158 0.034-0.214 0.102s-0.084 0.172-0.084 0.311zm-0.327 0.808 0.414 0.045c7e-3 0.052 0.023 0.087 0.048 0.106 0.035 0.028 0.089 0.041 0.164 0.041 0.095 0 0.166-0.014 0.214-0.042 0.032-0.019 0.056-0.05 0.073-0.092 0.011-0.031 0.016-0.086 0.016-0.168l1e-3 -0.2c-0.107 0.146-0.244 0.22-0.409 0.22-0.185 0-0.331-0.079-0.439-0.235-0.085-0.124-0.127-0.278-0.127-0.462 0-0.231 0.055-0.408 0.166-0.53s0.249-0.183 0.414-0.183c0.17 0 0.31 0.075 0.421 0.225v-0.191h0.338v1.237c0 0.162-0.013 0.284-0.04 0.364-0.027 0.081-0.064 0.144-0.113 0.19-0.048 0.045-0.113 0.081-0.193 0.107-0.081 0.026-0.183 0.039-0.307 0.039-0.233 0-0.398-0.04-0.496-0.121-0.097-0.08-0.146-0.182-0.146-0.306 0-0.012 0-0.026 1e-3 -0.044zm2.096-1.99h-0.365v1.9h0.365v-1.9zm1.271 1.097c-3e-3 -0.107-0.03-0.188-0.082-0.244s-0.116-0.084-0.19-0.084c-0.08 0-0.146 0.03-0.198 0.088-0.052 0.059-0.078 0.139-0.077 0.24h0.547zm-0.019 0.369 0.361 0.061c-0.047 0.132-0.121 0.233-0.221 0.303-0.101 0.069-0.227 0.104-0.379 0.104-0.239 0-0.417-0.079-0.532-0.236-0.09-0.125-0.136-0.284-0.136-0.476 0-0.228 0.06-0.408 0.179-0.537 0.119-0.13 0.27-0.195 0.453-0.195 0.205 0 0.366 0.068 0.485 0.204 0.118 0.136 0.175 0.345 0.17 0.625h-0.914c2e-3 0.109 0.032 0.193 0.088 0.253 0.057 0.06 0.127 0.09 0.212 0.09 0.057 0 0.106-0.015 0.145-0.046s0.069-0.081 0.089-0.15zm1.573-1.466v1.9h1.441v-0.321h-1.057v-0.516h0.948v-0.32h-0.948v-0.422h1.02v-0.321h-1.404zm2.746 1.9v-0.206c-0.051 0.073-0.117 0.131-0.198 0.175-0.082 0.043-0.168 0.065-0.259 0.065-0.093 0-0.175-0.021-0.249-0.061-0.073-0.041-0.127-0.098-0.159-0.172-0.033-0.073-0.05-0.175-0.05-0.305v-0.872h0.365v0.633c0 0.193 7e-3 0.312 0.02 0.356 0.014 0.044 0.038 0.078 0.073 0.104 0.036 0.025 0.081 0.038 0.135 0.038 0.062 0 0.118-0.017 0.167-0.051 0.049-0.035 0.083-0.077 0.101-0.128 0.018-0.05 0.027-0.174 0.027-0.371v-0.581h0.365v1.376h-0.338zm0.775 0h0.365v-0.426c0-0.234 0.01-0.388 0.031-0.461 0.02-0.074 0.048-0.124 0.083-0.153 0.036-0.028 0.079-0.042 0.13-0.042 0.053 0 0.11 0.02 0.172 0.06l0.111-0.319c-0.077-0.046-0.157-0.069-0.24-0.069-0.059 0-0.111 0.016-0.157 0.046s-0.098 0.091-0.156 0.184v-0.196h-0.339v1.376zm1.411-0.688c0 0.137 0.033 0.242 0.097 0.315 0.065 0.072 0.145 0.109 0.24 0.109 0.096 0 0.175-0.037 0.24-0.109 0.064-0.073 0.096-0.179 0.096-0.318 0-0.135-0.032-0.239-0.096-0.312-0.065-0.073-0.144-0.109-0.24-0.109-0.095 0-0.175 0.036-0.24 0.109-0.064 0.073-0.097 0.178-0.097 0.315zm-0.372-0.02c0-0.121 0.029-0.238 0.089-0.352 0.06-0.113 0.144-0.2 0.253-0.26s0.231-0.09 0.366-0.09c0.207 0 0.378 0.068 0.511 0.204 0.132 0.135 0.199 0.307 0.199 0.514 0 0.209-0.067 0.382-0.201 0.52-0.134 0.137-0.303 0.206-0.507 0.206-0.126 0-0.246-0.029-0.36-0.086-0.115-0.057-0.201-0.141-0.261-0.252-0.06-0.11-0.089-0.245-0.089-0.404zm2.99-0.329v-0.542h0.184c0.138 0 0.229 4e-3 0.275 0.013 0.062 0.011 0.113 0.039 0.153 0.085 0.041 0.045 0.061 0.102 0.061 0.172 0 0.056-0.014 0.106-0.043 0.148-0.029 0.043-0.069 0.075-0.119 0.095-0.051 0.02-0.152 0.029-0.302 0.029h-0.209zm-0.384-0.863v1.9h0.384v-0.716h0.249c0.173 0 0.305-9e-3 0.397-0.028 0.067-0.014 0.133-0.044 0.198-0.09 0.065-0.045 0.119-0.107 0.161-0.187 0.042-0.079 0.063-0.177 0.063-0.294 0-0.151-0.036-0.275-0.11-0.37-0.073-0.095-0.164-0.158-0.273-0.186-0.07-0.019-0.222-0.029-0.455-0.029h-0.614zm2.599 1.24c-0.047 0.016-0.121 0.035-0.221 0.056-0.101 0.022-0.167 0.043-0.198 0.064-0.047 0.034-0.07 0.077-0.07 0.129 0 0.051 0.018 0.095 0.056 0.132 0.038 0.038 0.086 0.056 0.145 0.056 0.065 0 0.127-0.021 0.187-0.065 0.044-0.033 0.073-0.073 0.086-0.121 0.01-0.031 0.015-0.09 0.015-0.178v-0.073zm-0.489-0.297-0.328-0.061c0.037-0.133 0.101-0.232 0.192-0.296 0.09-0.064 0.225-0.096 0.403-0.096 0.163 0 0.283 0.02 0.363 0.058 0.079 0.039 0.135 0.088 0.167 0.147 0.033 0.059 0.049 0.168 0.049 0.326l-4e-3 0.426c0 0.121 6e-3 0.21 0.018 0.268 0.011 0.057 0.033 0.119 0.065 0.185h-0.361c-0.01-0.024-0.021-0.059-0.035-0.106-6e-3 -0.022-0.011-0.036-0.013-0.042-0.062 0.06-0.128 0.106-0.199 0.136s-0.146 0.046-0.226 0.046c-0.141 0-0.253-0.039-0.334-0.116-0.082-0.077-0.122-0.174-0.122-0.292 0-0.078 0.018-0.147 0.055-0.208s0.089-0.108 0.156-0.141c0.067-0.032 0.163-0.06 0.289-0.085 0.17-0.032 0.288-0.061 0.354-0.089v-0.037c0-0.071-0.018-0.121-0.052-0.152-0.035-0.03-0.101-0.045-0.197-0.045-0.065 0-0.116 0.013-0.152 0.039-0.037 0.025-0.066 0.07-0.088 0.135zm1.495-0.419h-0.387l0.524 1.379c-0.022 0.078-0.053 0.142-0.094 0.193-0.041 0.05-0.104 0.075-0.189 0.075-0.046 0-0.097-6e-3 -0.155-0.017l0.034 0.285c0.068 0.015 0.137 0.022 0.206 0.022 0.07 0 0.132-7e-3 0.186-0.022 0.055-0.015 0.101-0.035 0.139-0.062 0.038-0.026 0.071-0.061 0.1-0.103s0.059-0.104 0.091-0.184l0.572-1.566h-0.376l-0.321 0.977-0.33-0.977zm1.312 0h0.335v0.188c0.12-0.148 0.263-0.222 0.429-0.222 0.088 0 0.165 0.018 0.23 0.055 0.065 0.036 0.118 0.091 0.159 0.165 0.061-0.074 0.126-0.129 0.196-0.165 0.07-0.037 0.144-0.055 0.224-0.055 0.101 0 0.187 0.021 0.256 0.062 0.07 0.041 0.123 0.101 0.157 0.181 0.025 0.059 0.038 0.154 0.038 0.285v0.882h-0.365v-0.788c0-0.137-0.013-0.225-0.038-0.265-0.033-0.052-0.085-0.078-0.155-0.078-0.051 0-0.098 0.016-0.143 0.047s-0.077 0.077-0.097 0.137-0.03 0.155-0.03 0.285v0.662h-0.365v-0.756c0-0.134-6e-3 -0.22-0.019-0.259s-0.033-0.068-0.06-0.087-0.064-0.029-0.111-0.029c-0.056 0-0.106 0.015-0.151 0.046-0.045 0.03-0.077 0.074-0.096 0.131-0.02 0.057-0.029 0.151-0.029 0.284v0.67h-0.365v-1.376zm3.199 0.329c0.052 0.056 0.079 0.137 0.082 0.244h-0.547c-1e-3 -0.101 0.025-0.181 0.077-0.24 0.052-0.058 0.118-0.088 0.198-0.088 0.074 0 0.138 0.028 0.19 0.084zm0.424 0.674-0.361-0.061c-0.02 0.069-0.05 0.119-0.089 0.15s-0.087 0.046-0.145 0.046c-0.084 0-0.155-0.03-0.211-0.09-0.057-0.06-0.087-0.144-0.089-0.253h0.914c5e-3 -0.28-0.052-0.489-0.17-0.625-0.119-0.136-0.28-0.204-0.485-0.204-0.183 0-0.333 0.065-0.453 0.195-0.119 0.129-0.179 0.309-0.179 0.537 0 0.192 0.046 0.351 0.137 0.476 0.115 0.157 0.292 0.236 0.532 0.236 0.151 0 0.277-0.035 0.378-0.104 0.101-0.07 0.174-0.171 0.221-0.303zm1.643 0.373h-0.365v-0.704c0-0.149-8e-3 -0.245-0.023-0.289-0.016-0.043-0.041-0.077-0.076-0.102-0.035-0.024-0.077-0.036-0.125-0.036-0.063 0-0.119 0.017-0.169 0.052s-0.084 0.081-0.103 0.138c-0.018 0.057-0.027 0.162-0.027 0.316v0.625h-0.365v-1.376h0.338v0.202c0.12-0.157 0.271-0.236 0.453-0.236 0.08 0 0.154 0.015 0.22 0.044s0.116 0.066 0.15 0.111c0.035 0.045 0.058 0.096 0.072 0.153 0.013 0.057 0.02 0.139 0.02 0.245v0.857zm1.076-1.086v-0.29h-0.248v-0.49l-0.365 0.215v0.275h-0.165v0.29h0.165v0.602c0 0.128 4e-3 0.214 0.012 0.257 9e-3 0.059 0.026 0.107 0.05 0.142 0.025 0.035 0.063 0.064 0.116 0.085 0.052 0.023 0.11 0.034 0.176 0.034 0.106 0 0.201-0.019 0.286-0.055l-0.032-0.282c-0.063 0.023-0.111 0.035-0.144 0.035-0.024 0-0.044-6e-3 -0.06-0.018-0.017-0.012-0.028-0.028-0.032-0.046-5e-3 -0.019-7e-3 -0.085-7e-3 -0.197v-0.557h0.248zm0.205 0.698 0.365-0.057c0.016 0.07 0.047 0.124 0.095 0.16 0.047 0.037 0.113 0.055 0.198 0.055 0.094 0 0.165-0.018 0.212-0.052 0.032-0.025 0.048-0.057 0.048-0.098 0-0.028-8e-3 -0.051-0.026-0.069s-0.059-0.034-0.122-0.049c-0.295-0.065-0.482-0.124-0.561-0.178-0.109-0.074-0.163-0.178-0.163-0.31 0-0.12 0.047-0.22 0.141-0.302 0.095-0.081 0.241-0.122 0.44-0.122 0.189 0 0.329 0.031 0.421 0.092s0.155 0.151 0.19 0.27l-0.342 0.064c-0.015-0.053-0.043-0.094-0.085-0.123-0.041-0.028-0.1-0.043-0.177-0.043-0.097 0-0.166 0.014-0.208 0.041-0.028 0.019-0.042 0.044-0.042 0.074 0 0.026 0.012 0.048 0.036 0.067 0.033 0.024 0.147 0.058 0.342 0.103 0.194 0.044 0.33 0.098 0.407 0.163 0.076 0.065 0.114 0.155 0.114 0.272 0 0.127-0.052 0.236-0.158 0.327-0.105 0.091-0.26 0.137-0.467 0.137-0.186 0-0.335-0.038-0.444-0.114s-0.18-0.178-0.214-0.308zm3.239-1.067 0.265 0.705h-0.521l0.256-0.705zm0.555 1.455h0.414l-0.766-1.9h-0.404l-0.734 1.9h0.406l0.156-0.43h0.765l0.163 0.43zm1.04 0h-0.365v-1.376h0.339v0.196c0.057-0.093 0.109-0.154 0.156-0.184 0.046-0.03 0.098-0.046 0.157-0.046 0.083 0 0.163 0.023 0.24 0.069l-0.111 0.319c-0.062-0.04-0.119-0.06-0.172-0.06-0.051 0-0.094 0.014-0.13 0.042-0.035 0.029-0.063 0.079-0.084 0.153-0.02 0.073-0.03 0.227-0.03 0.461v0.426zm1.498-1.047c0.052 0.056 0.08 0.137 0.082 0.244h-0.546c-1e-3 -0.101 0.025-0.181 0.077-0.24 0.052-0.058 0.118-0.088 0.197-0.088 0.075 0 0.138 0.028 0.19 0.084zm0.425 0.674-0.362-0.061c-0.02 0.069-0.049 0.119-0.088 0.15-0.04 0.031-0.088 0.046-0.145 0.046-0.085 0-0.155-0.03-0.212-0.09-0.056-0.06-0.086-0.144-0.089-0.253h0.914c6e-3 -0.28-0.051-0.489-0.169-0.625-0.119-0.136-0.281-0.204-0.486-0.204-0.182 0-0.333 0.065-0.452 0.195-0.12 0.129-0.179 0.309-0.179 0.537 0 0.192 0.045 0.351 0.136 0.476 0.115 0.157 0.292 0.236 0.532 0.236 0.151 0 0.278-0.035 0.378-0.104 0.101-0.07 0.175-0.171 0.222-0.303zm1.149-0.287c-0.046 0.016-0.12 0.035-0.22 0.056-0.101 0.022-0.167 0.043-0.198 0.064-0.047 0.034-0.071 0.077-0.071 0.129 0 0.051 0.019 0.095 0.057 0.132 0.038 0.038 0.086 0.056 0.145 0.056 0.065 0 0.127-0.021 0.187-0.065 0.044-0.033 0.072-0.073 0.086-0.121 0.01-0.031 0.014-0.09 0.014-0.178v-0.073zm-0.489-0.297-0.327-0.061c0.037-0.133 0.101-0.232 0.192-0.296 0.09-0.064 0.225-0.096 0.403-0.096 0.162 0 0.283 0.02 0.363 0.058 0.079 0.039 0.135 0.088 0.167 0.147 0.033 0.059 0.049 0.168 0.049 0.326l-4e-3 0.426c0 0.121 6e-3 0.21 0.017 0.268 0.012 0.057 0.034 0.119 0.066 0.185h-0.361c-0.01-0.024-0.021-0.059-0.035-0.106-6e-3 -0.022-0.011-0.036-0.013-0.042-0.062 0.06-0.128 0.106-0.199 0.136s-0.146 0.046-0.226 0.046c-0.142 0-0.253-0.039-0.334-0.116-0.082-0.077-0.122-0.174-0.122-0.292 0-0.078 0.018-0.147 0.055-0.208s0.089-0.108 0.156-0.141c0.067-0.032 0.163-0.06 0.289-0.085 0.17-0.032 0.288-0.061 0.353-0.089v-0.037c0-0.071-0.017-0.121-0.052-0.152-0.034-0.03-0.1-0.045-0.196-0.045-0.065 0-0.116 0.013-0.152 0.039-0.037 0.025-0.066 0.07-0.089 0.135zm-4.082-9.599 1.251 4.308h-2.465l1.214-4.308zm-1.789 6.245h3.571l0.509 1.718h2.705l-3.018-9.94h-4.028l-2.981 9.94h2.763l0.479-1.718z" clip-rule="evenodd" fill="#10298E" fill-rule="evenodd"/>
<path d="m345.98 259.37c1.112 0 2.105 0.519 2.757 1.332l0.581-1.262c-0.909-0.871-2.146-1.407-3.51-1.407-2.124 0-3.942 1.299-4.687 3.139h-1.134l-0.669 1.453h1.458c-0.011 0.135-0.018 0.27-0.018 0.408 0 0.166 9e-3 0.331 0.025 0.494h-0.733l-0.669 1.453h1.774c0.767 1.794 2.562 3.053 4.653 3.053 1.054 0 2.032-0.32 2.841-0.867v-1.781c-0.652 0.752-1.605 1.227-2.669 1.227-1.242 0-2.335-0.649-2.972-1.632h3.715l0.669-1.453h-4.931c-0.025-0.175-0.039-0.354-0.039-0.536 0-0.123 7e-3 -0.245 0.018-0.366h5.367l0.669-1.453h-5.572c0.617-1.077 1.763-1.802 3.076-1.802z" clip-rule="evenodd" fill="#FFBE00" fill-rule="evenodd"/>
<path d="m333 241h32v-2h-32v2zm39 7v32h2v-32h-2zm-7 39h-32v2h32v-2zm-39-7v-32h-2v32h2zm7 7c-3.866 0-7-3.134-7-7h-2c0 4.971 4.029 9 9 9v-2zm39-7c0 3.866-3.134 7-7 7v2c4.971 0 9-4.029 9-9h-2zm-7-39c3.866 0 7 3.134 7 7h2c0-4.971-4.029-9-9-9v2zm-32-2c-4.971 0-9 4.029-9 9h2c0-3.866 3.134-7 7-7v-2z" fill="#DFE7EF"/>
<path d="m325 304c0-4.418 3.582-8 8-8h32c4.418 0 8 3.582 8 8v32c0 4.418-3.582 8-8 8h-32c-4.418 0-8-3.582-8-8v-32z" fill="#fff"/>
<path d="m331 329.92v-4.915h1.605c1.166 0 1.916 0.414 1.916 1.271 0 0.484-0.237 0.821-0.572 1.018 0.483 0.211 0.765 0.618 0.765 1.173 0 0.99-0.765 1.453-1.953 1.453h-1.761zm1.033-2.872h0.765c0.468 0 0.668-0.217 0.668-0.618 0-0.428-0.364-0.568-0.854-0.568h-0.579v1.186zm0 2.016h0.638c0.624 0 0.988-0.148 0.988-0.611 0-0.457-0.312-0.646-0.898-0.646h-0.728v1.257zm4.684 0.94c-1.018 0-1.531-0.47-1.531-1.102 0-0.695 0.602-1.102 1.494-1.109 0.221 3e-3 0.442 0.022 0.661 0.056v-0.169c0-0.428-0.26-0.632-0.758-0.632-0.335-4e-3 -0.668 0.054-0.981 0.169l-0.185-0.758c0.319-0.127 0.832-0.211 1.285-0.211 1.092 0 1.634 0.548 1.634 1.495v1.953c-0.304 0.147-0.876 0.308-1.619 0.308zm0.624-0.793v-0.751c-0.173-0.037-0.35-0.056-0.528-0.057-0.341 0-0.609 0.127-0.609 0.457 0 0.295 0.223 0.449 0.617 0.449 0.179 6e-3 0.357-0.028 0.52-0.098zm1.717 0.709v-3.363c0.534-0.203 1.104-0.308 1.679-0.309 1.085 0 1.709 0.505 1.709 1.439v2.233h-1.026v-2.162c0-0.485-0.237-0.71-0.691-0.71-0.225-3e-3 -0.448 0.04-0.653 0.127v2.745h-1.018zm6.97-3.461-0.193 0.765c-0.265-0.109-0.55-0.168-0.839-0.176-0.602 0-0.929 0.401-0.929 1.061 0 0.723 0.342 1.095 0.981 1.095 0.285-7e-3 0.565-0.069 0.824-0.183l0.164 0.78c-0.337 0.141-0.702 0.211-1.07 0.203-1.233 0-1.947-0.723-1.947-1.867 0-1.138 0.706-1.889 1.887-1.889 0.385-2e-3 0.767 0.07 1.122 0.211zm2.215 3.545c-1.144 0-1.857-0.751-1.857-1.881 0-1.124 0.713-1.875 1.857-1.875 1.151 0 1.85 0.751 1.85 1.875 0 1.13-0.699 1.881-1.85 1.881zm0-0.8c0.527 0 0.802-0.414 0.802-1.081 0-0.66-0.275-1.075-0.802-1.075-0.52 0-0.81 0.415-0.81 1.075 0 0.667 0.29 1.081 0.81 1.081zm2.443 0.716v-3.363c0.534-0.203 1.103-0.308 1.679-0.309 1.084 0 1.708 0.505 1.708 1.439v2.233h-1.025v-2.162c0-0.485-0.238-0.71-0.691-0.71-0.225-3e-3 -0.448 0.04-0.653 0.127v2.745h-1.018zm5.699 0.084c-0.884 0-1.337-0.456-1.337-1.383v-1.516h-0.505v-0.773h0.505v-0.779l1.025-0.049v0.828h0.825v0.773h-0.825v1.502c0 0.407 0.179 0.597 0.513 0.597 0.132 0 0.264-0.014 0.394-0.042l0.052 0.779c-0.213 0.045-0.429 0.066-0.647 0.063zm2.588 0c-1.018 0-1.53-0.47-1.53-1.102 0-0.695 0.601-1.102 1.493-1.109 0.221 3e-3 0.442 0.022 0.661 0.056v-0.169c0-0.428-0.26-0.632-0.758-0.632-0.335-4e-3 -0.668 0.054-0.98 0.169l-0.186-0.758c0.319-0.127 0.832-0.211 1.285-0.211 1.092 0 1.634 0.548 1.634 1.495v1.953c-0.304 0.147-0.876 0.308-1.619 0.308zm0.624-0.793v-0.751c-0.173-0.037-0.35-0.056-0.528-0.057-0.341 0-0.609 0.127-0.609 0.457 0 0.295 0.223 0.449 0.617 0.449 0.179 6e-3 0.357-0.028 0.52-0.098zm4.503-2.752-0.193 0.765c-0.266-0.109-0.551-0.168-0.84-0.176-0.602 0-0.928 0.401-0.928 1.061 0 0.723 0.341 1.095 0.98 1.095 0.285-7e-3 0.566-0.069 0.825-0.183l0.163 0.78c-0.336 0.141-0.701 0.211-1.07 0.203-1.233 0-1.946-0.723-1.946-1.867 0-1.138 0.706-1.889 1.887-1.889 0.385-2e-3 0.767 0.07 1.122 0.211zm2.254 3.545c-0.884 0-1.337-0.456-1.337-1.383v-1.516h-0.506v-0.773h0.506v-0.779l1.025-0.049v0.828h0.824v0.773h-0.824v1.502c0 0.407 0.178 0.597 0.512 0.597 0.133 0 0.265-0.014 0.394-0.042l0.052 0.779c-0.212 0.045-0.429 0.066-0.646 0.063z" fill="#1E3764"/>
<path d="m338.15 323c5.424 0 8.137-3.5 10.849-7h-18v7h7.151z" fill="url(#b)"/>
<path d="m359.85 309c-5.424 0-8.137 3.5-10.849 7h18v-7h-7.151z" fill="url(#a)"/>
<path d="m333 297h32v-2h-32v2zm39 7v32h2v-32h-2zm-7 39h-32v2h32v-2zm-39-7v-32h-2v32h2zm7 7c-3.866 0-7-3.134-7-7h-2c0 4.971 4.029 9 9 9v-2zm39-7c0 3.866-3.134 7-7 7v2c4.971 0 9-4.029 9-9h-2zm-7-39c3.866 0 7 3.134 7 7h2c0-4.971-4.029-9-9-9v2zm-32-2c-4.971 0-9 4.029-9 9h2c0-3.866 3.134-7 7-7v-2z" fill="#DFE7EF"/>
<path d="m330.52 358.98h-2.04v2.15h-0.725v-2.15h-2.03v-0.675h2.03v-2.135h0.725v2.135h2.04v0.675zm3.39 2.36c0.24 0 0.457-0.038 0.65-0.115 0.197-0.077 0.364-0.183 0.5-0.32 0.14-0.137 0.247-0.298 0.32-0.485 0.077-0.187 0.115-0.39 0.115-0.61 0-0.233-0.036-0.443-0.11-0.63-0.073-0.19-0.178-0.35-0.315-0.48-0.133-0.133-0.293-0.235-0.48-0.305-0.186-0.07-0.391-0.105-0.615-0.105-0.24 0-0.456 0.042-0.65 0.125-0.193 0.08-0.358 0.19-0.495 0.33-0.133 0.137-0.236 0.297-0.31 0.48-0.07 0.18-0.105 0.368-0.105 0.565 0 0.23 0.034 0.44 0.1 0.63 0.067 0.19 0.164 0.353 0.29 0.49 0.13 0.137 0.287 0.243 0.47 0.32 0.187 0.073 0.399 0.11 0.635 0.11zm-0.52-3.82c-0.063 0.08-0.125 0.158-0.185 0.235-0.056 0.073-0.111 0.147-0.165 0.22 0.17-0.117 0.357-0.207 0.56-0.27 0.204-0.063 0.425-0.095 0.665-0.095 0.29 0 0.564 0.048 0.82 0.145 0.257 0.093 0.48 0.232 0.67 0.415 0.194 0.18 0.347 0.403 0.46 0.67 0.114 0.263 0.17 0.565 0.17 0.905 0 0.33-0.06 0.637-0.18 0.92s-0.288 0.53-0.505 0.74c-0.213 0.21-0.471 0.375-0.775 0.495-0.3 0.12-0.631 0.18-0.995 0.18-0.36 0-0.686-0.057-0.98-0.17-0.293-0.117-0.543-0.28-0.75-0.49-0.203-0.213-0.361-0.47-0.475-0.77-0.11-0.303-0.165-0.642-0.165-1.015 0-0.313 0.069-0.647 0.205-1 0.14-0.357 0.362-0.737 0.665-1.14l1.82-2.445c0.047-0.06 0.11-0.11 0.19-0.15 0.084-0.043 0.179-0.065 0.285-0.065h0.79l-2.125 2.685zm6.695 4.48v-5.065h0.535c0.126 0 0.205 0.062 0.235 0.185l0.065 0.52c0.186-0.23 0.396-0.418 0.63-0.565 0.233-0.147 0.503-0.22 0.81-0.22 0.34 0 0.615 0.095 0.825 0.285 0.213 0.19 0.366 0.447 0.46 0.77 0.073-0.183 0.166-0.342 0.28-0.475 0.116-0.133 0.246-0.243 0.39-0.33 0.143-0.087 0.295-0.15 0.455-0.19 0.163-0.04 0.328-0.06 0.495-0.06 0.266 0 0.503 0.043 0.71 0.13 0.21 0.083 0.386 0.207 0.53 0.37 0.146 0.163 0.258 0.365 0.335 0.605 0.076 0.237 0.115 0.508 0.115 0.815v3.225h-0.895v-3.225c0-0.397-0.087-0.697-0.26-0.9-0.174-0.207-0.424-0.31-0.75-0.31-0.147 0-0.287 0.027-0.42 0.08-0.13 0.05-0.245 0.125-0.345 0.225s-0.18 0.227-0.24 0.38c-0.057 0.15-0.085 0.325-0.085 0.525v3.225h-0.895v-3.225c0-0.407-0.082-0.71-0.245-0.91-0.164-0.2-0.402-0.3-0.715-0.3-0.22 0-0.424 0.06-0.61 0.18-0.187 0.117-0.359 0.277-0.515 0.48v3.775h-0.895zm10.357-5.145c0.37 0 0.704 0.062 1 0.185 0.297 0.123 0.55 0.298 0.76 0.525s0.37 0.502 0.48 0.825c0.114 0.32 0.17 0.678 0.17 1.075 0 0.4-0.056 0.76-0.17 1.08-0.11 0.32-0.27 0.593-0.48 0.82s-0.463 0.402-0.76 0.525c-0.296 0.12-0.63 0.18-1 0.18-0.373 0-0.71-0.06-1.01-0.18-0.296-0.123-0.55-0.298-0.76-0.525s-0.371-0.5-0.485-0.82c-0.11-0.32-0.165-0.68-0.165-1.08 0-0.397 0.055-0.755 0.165-1.075 0.114-0.323 0.275-0.598 0.485-0.825s0.464-0.402 0.76-0.525c0.3-0.123 0.637-0.185 1.01-0.185zm0 4.52c0.5 0 0.874-0.167 1.12-0.5 0.247-0.337 0.37-0.805 0.37-1.405 0-0.603-0.123-1.073-0.37-1.41-0.246-0.337-0.62-0.505-1.12-0.505-0.253 0-0.475 0.043-0.665 0.13-0.186 0.087-0.343 0.212-0.47 0.375-0.123 0.163-0.216 0.365-0.28 0.605-0.06 0.237-0.09 0.505-0.09 0.805 0 0.6 0.124 1.068 0.37 1.405 0.25 0.333 0.629 0.5 1.135 0.5zm4.384-3.425c0.16-0.347 0.357-0.617 0.59-0.81 0.234-0.197 0.519-0.295 0.855-0.295 0.107 0 0.209 0.012 0.305 0.035 0.1 0.023 0.189 0.06 0.265 0.11l-0.065 0.665c-0.02 0.083-0.07 0.125-0.15 0.125-0.046 0-0.115-0.01-0.205-0.03s-0.191-0.03-0.305-0.03c-0.16 0-0.303 0.023-0.43 0.07-0.123 0.047-0.235 0.117-0.335 0.21-0.096 0.09-0.185 0.203-0.265 0.34-0.076 0.133-0.146 0.287-0.21 0.46v3.2h-0.895v-5.065h0.51c0.097 0 0.164 0.018 0.2 0.055 0.037 0.037 0.062 0.1 0.075 0.19l0.06 0.77zm5.983 0.965c0-0.207-0.03-0.395-0.09-0.565-0.057-0.173-0.142-0.322-0.255-0.445-0.11-0.127-0.245-0.223-0.405-0.29-0.16-0.07-0.342-0.105-0.545-0.105-0.427 0-0.765 0.125-1.015 0.375-0.247 0.247-0.4 0.59-0.46 1.03h2.77zm0.72 2.375c-0.11 0.133-0.242 0.25-0.395 0.35-0.154 0.097-0.319 0.177-0.495 0.24-0.174 0.063-0.354 0.11-0.54 0.14-0.187 0.033-0.372 0.05-0.555 0.05-0.35 0-0.674-0.058-0.97-0.175-0.294-0.12-0.549-0.293-0.765-0.52-0.214-0.23-0.38-0.513-0.5-0.85s-0.18-0.723-0.18-1.16c0-0.353 0.053-0.683 0.16-0.99 0.11-0.307 0.266-0.572 0.47-0.795 0.203-0.227 0.451-0.403 0.745-0.53 0.293-0.13 0.623-0.195 0.99-0.195 0.303 0 0.583 0.052 0.84 0.155 0.26 0.1 0.483 0.247 0.67 0.44 0.19 0.19 0.338 0.427 0.445 0.71 0.106 0.28 0.16 0.6 0.16 0.96 0 0.14-0.015 0.233-0.045 0.28s-0.087 0.07-0.17 0.07h-3.385c0.01 0.32 0.053 0.598 0.13 0.835 0.08 0.237 0.19 0.435 0.33 0.595 0.14 0.157 0.306 0.275 0.5 0.355 0.193 0.077 0.41 0.115 0.65 0.115 0.223 0 0.415-0.025 0.575-0.075 0.163-0.053 0.303-0.11 0.42-0.17 0.116-0.06 0.213-0.115 0.29-0.165 0.08-0.053 0.148-0.08 0.205-0.08 0.073 0 0.13 0.028 0.17 0.085l0.25 0.325z" fill="#000"/>
</g>
<rect transform="rotate(45 309.19 239)" x="309.19" y="239" width="13" height="13" fill="#fff"/>
<defs>
<filter id="d" x="51" y="0" width="304" height="534" color-interpolation-filters="sRGB" filterUnits="userSpaceOnUse">
<feFlood flood-opacity="0" result="BackgroundImageFix"/>
<feColorMatrix in="SourceAlpha" values="0 0 0 0 0 0 0 0 0 0 0 0 0 0 0 0 0 0 127 0"/>
<feMorphology in="SourceAlpha" operator="dilate" radius="1" result="effect1_dropShadow"/>
<feOffset dy="3"/>
<feGaussianBlur stdDeviation="3.5"/>
<feColorMatrix values="0 0 0 0 0.87451 0 0 0 0 0.905882 0 0 0 0 0.937255 0 0 0 0.4 0"/>
<feBlend in2="BackgroundImageFix" result="effect1_dropShadow"/>
<feColorMatrix in="SourceAlpha" values="0 0 0 0 0 0 0 0 0 0 0 0 0 0 0 0 0 0 127 0"/>
<feOffset dy="2"/>
<feGaussianBlur stdDeviation="20"/>
<feColorMatrix values="0 0 0 0 0.407843 0 0 0 0 0.482353 0 0 0 0 0.552941 0 0 0 0.12 0"/>
<feBlend in2="effect1_dropShadow" result="effect2_dropShadow"/>
<feBlend in="SourceGraphic" in2="effect2_dropShadow" result="shape"/>
</filter>
<filter id="c" x="269" y="130" width="160" height="292" color-interpolation-filters="sRGB" filterUnits="userSpaceOnUse">
<feFlood flood-opacity="0" result="BackgroundImageFix"/>
<feColorMatrix in="SourceAlpha" values="0 0 0 0 0 0 0 0 0 0 0 0 0 0 0 0 0 0 127 0"/>
<feOffset dy="2"/>
<feGaussianBlur stdDeviation="20"/>
<feColorMatrix values="0 0 0 0 0.407843 0 0 0 0 0.482353 0 0 0 0 0.552941 0 0 0 0.12 0"/>
<feBlend in2="BackgroundImageFix" result="effect1_dropShadow"/>
<feColorMatrix in="SourceAlpha" values="0 0 0 0 0 0 0 0 0 0 0 0 0 0 0 0 0 0 127 0"/>
<feMorphology in="SourceAlpha" operator="dilate" radius="1" result="effect2_dropShadow"/>
<feOffset dy="3"/>
<feGaussianBlur stdDeviation="3.5"/>
<feColorMatrix values="0 0 0 0 0.87451 0 0 0 0 0.905882 0 0 0 0 0.937255 0 0 0 0.4 0"/>
<feBlend in2="effect1_dropShadow" result="effect2_dropShadow"/>
<feBlend in="SourceGraphic" in2="effect2_dropShadow" result="shape"/>
</filter>
<linearGradient id="b" x1="334.64" x2="347.7" y1="319.82" y2="314.81" gradientUnits="userSpaceOnUse">
<stop stop-color="#005AB9" offset="0"/>
<stop stop-color="#1E3764" offset="1"/>
</linearGradient>
<linearGradient id="a" x1="350.09" x2="363.97" y1="316.61" y2="311.71" gradientUnits="userSpaceOnUse">
<stop stop-color="#FBA900" offset="0"/>
<stop stop-color="#FFD800" offset="1"/>
</linearGradient>
</defs>
</svg>
