<svg width="619" height="444" viewBox="0 0 619 444" fill="none" xmlns="http://www.w3.org/2000/svg">
<rect x="232.5" y="40.5" width="222" height="369.202" fill="white" stroke="#D0D0D0"/>
<line x1="483.731" y1="443.462" x2="618.567" y2="210.869" stroke="#B3D3EF" stroke-opacity="0.25"/>
<line x1="438.786" y1="443.462" x2="573.622" y2="210.869" stroke="#B3D3EF" stroke-opacity="0.25"/>
<line x1="461.258" y1="443.462" x2="596.095" y2="210.869" stroke="#B3D3EF" stroke-opacity="0.25"/>
<line x1="393.84" y1="443.462" x2="528.676" y2="210.869" stroke="#B3D3EF" stroke-opacity="0.25"/>
<line x1="416.313" y1="443.462" x2="551.149" y2="210.869" stroke="#B3D3EF" stroke-opacity="0.25"/>
<line x1="371.367" y1="443.462" x2="506.204" y2="210.869" stroke="#B3D3EF" stroke-opacity="0.25"/>
<line x1="326.422" y1="443.462" x2="461.258" y2="210.869" stroke="#B3D3EF" stroke-opacity="0.25"/>
<line x1="348.895" y1="443.462" x2="483.731" y2="210.869" stroke="#B3D3EF" stroke-opacity="0.25"/>
<line x1="303.949" y1="443.462" x2="438.786" y2="210.869" stroke="#B3D3EF" stroke-opacity="0.25"/>
<line x1="0.572984" y1="443.453" x2="270.246" y2="0.739897" stroke="#B3D3EF" stroke-opacity="0.25"/>
<line x1="171.365" y1="443.453" x2="441.038" y2="0.739897" stroke="#B3D3EF" stroke-opacity="0.25"/>
<line x1="150.016" y1="443.453" x2="419.689" y2="0.739897" stroke="#B3D3EF" stroke-opacity="0.25"/>
<line x1="107.318" y1="443.453" x2="376.991" y2="0.739897" stroke="#B3D3EF" stroke-opacity="0.25"/>
<line x1="64.6199" y1="443.453" x2="334.293" y2="0.739897" stroke="#B3D3EF" stroke-opacity="0.25"/>
<line x1="21.9216" y1="443.453" x2="291.594" y2="0.739897" stroke="#B3D3EF" stroke-opacity="0.25"/>
<line x1="128.668" y1="443.453" x2="398.34" y2="0.739897" stroke="#B3D3EF" stroke-opacity="0.25"/>
<line x1="85.969" y1="443.453" x2="355.642" y2="0.739897" stroke="#B3D3EF" stroke-opacity="0.25"/>
<line x1="43.2712" y1="443.453" x2="312.944" y2="0.739897" stroke="#B3D3EF" stroke-opacity="0.25"/>
<rect x="232" y="40" width="223" height="370.202" fill="white"/>
<path d="M268.472 384.266H267.593V382.438H265.879V384.266H265V380H265.879V381.729H267.593V380H268.472V384.266Z" fill="#1856F5"/>
<path d="M269.055 382.651C269.055 382.337 269.115 382.057 269.236 381.811C269.357 381.564 269.531 381.374 269.758 381.239C269.986 381.104 270.251 381.037 270.552 381.037C270.979 381.037 271.328 381.168 271.598 381.43C271.869 381.691 272.021 382.047 272.052 382.496L272.058 382.713C272.058 383.199 271.922 383.59 271.65 383.885C271.379 384.178 271.015 384.324 270.558 384.324C270.101 384.324 269.735 384.178 269.462 383.885C269.19 383.592 269.055 383.193 269.055 382.689V382.651ZM269.901 382.713C269.901 383.014 269.958 383.244 270.071 383.404C270.185 383.562 270.347 383.642 270.558 383.642C270.763 383.642 270.923 383.563 271.038 383.407C271.153 383.249 271.211 382.997 271.211 382.651C271.211 382.356 271.153 382.128 271.038 381.966C270.923 381.804 270.761 381.723 270.552 381.723C270.345 381.723 270.185 381.804 270.071 381.966C269.958 382.126 269.901 382.375 269.901 382.713Z" fill="#1856F5"/>
<path d="M273.373 381.096L273.399 381.45C273.624 381.175 273.928 381.037 274.311 381.037C274.719 381.037 274.999 381.198 275.151 381.521C275.374 381.198 275.691 381.037 276.104 381.037C276.447 381.037 276.703 381.138 276.871 381.339C277.039 381.538 277.123 381.839 277.123 382.241V384.266H276.273V382.244C276.273 382.064 276.238 381.934 276.168 381.852C276.098 381.768 275.974 381.726 275.796 381.726C275.542 381.726 275.366 381.847 275.269 382.089L275.271 384.266H274.425V382.247C274.425 382.063 274.389 381.931 274.316 381.849C274.244 381.767 274.121 381.726 273.947 381.726C273.707 381.726 273.533 381.825 273.426 382.024V384.266H272.579V381.096H273.373Z" fill="#1856F5"/>
<path d="M279.235 384.324C278.771 384.324 278.392 384.182 278.099 383.896C277.808 383.611 277.662 383.231 277.662 382.757V382.675C277.662 382.356 277.724 382.072 277.847 381.822C277.97 381.57 278.144 381.377 278.368 381.242C278.595 381.105 278.853 381.037 279.142 381.037C279.575 381.037 279.916 381.174 280.164 381.447C280.414 381.721 280.539 382.108 280.539 382.61V382.956H278.521C278.548 383.163 278.63 383.329 278.767 383.454C278.905 383.579 279.08 383.642 279.291 383.642C279.617 383.642 279.872 383.523 280.056 383.287L280.472 383.753C280.345 383.933 280.173 384.073 279.956 384.175C279.739 384.274 279.499 384.324 279.235 384.324ZM279.139 381.723C278.971 381.723 278.834 381.779 278.729 381.893C278.625 382.006 278.559 382.168 278.529 382.379H279.707V382.312C279.703 382.124 279.652 381.979 279.555 381.878C279.457 381.774 279.318 381.723 279.139 381.723Z" fill="#1856F5"/>
<circle cx="272.659" cy="391.997" r="1.64778" fill="#1856F5"/>
<path d="M245.857 57H245.011V53.7363L244 54.0498V53.3613L245.767 52.7285H245.857V57Z" fill="black" fill-opacity="0.6"/>
<path d="M250.026 53.8682C250.026 54.0752 249.975 54.2588 249.871 54.4189C249.768 54.5791 249.625 54.707 249.443 54.8027C249.65 54.9023 249.814 55.04 249.936 55.2158C250.057 55.3896 250.117 55.5947 250.117 55.8311C250.117 56.21 249.988 56.5098 249.73 56.7305C249.473 56.9492 249.122 57.0586 248.679 57.0586C248.235 57.0586 247.884 56.9482 247.624 56.7275C247.364 56.5068 247.234 56.208 247.234 55.8311C247.234 55.5947 247.295 55.3887 247.416 55.2129C247.537 55.0371 247.7 54.9004 247.905 54.8027C247.724 54.707 247.581 54.5791 247.478 54.4189C247.376 54.2588 247.325 54.0752 247.325 53.8682C247.325 53.5049 247.446 53.2158 247.688 53.001C247.931 52.7842 248.26 52.6758 248.676 52.6758C249.09 52.6758 249.418 52.7832 249.66 52.998C249.904 53.2109 250.026 53.501 250.026 53.8682ZM249.268 55.7695C249.268 55.584 249.214 55.4355 249.106 55.3242C248.999 55.2129 248.854 55.1572 248.673 55.1572C248.493 55.1572 248.35 55.2129 248.242 55.3242C248.135 55.4336 248.081 55.582 248.081 55.7695C248.081 55.9512 248.134 56.0977 248.239 56.209C248.345 56.3203 248.491 56.376 248.679 56.376C248.862 56.376 249.006 56.3223 249.109 56.2148C249.215 56.1074 249.268 55.959 249.268 55.7695ZM249.18 53.9092C249.18 53.7432 249.136 53.6104 249.048 53.5107C248.96 53.4092 248.836 53.3584 248.676 53.3584C248.518 53.3584 248.395 53.4072 248.307 53.5049C248.219 53.6025 248.175 53.7373 248.175 53.9092C248.175 54.0791 248.219 54.2158 248.307 54.3193C248.395 54.4229 248.519 54.4746 248.679 54.4746C248.839 54.4746 248.962 54.4229 249.048 54.3193C249.136 54.2158 249.18 54.0791 249.18 53.9092Z" fill="black" fill-opacity="0.6"/>
<path d="M250.768 56.584C250.768 56.4492 250.812 56.3398 250.902 56.2559C250.994 56.1719 251.108 56.1299 251.245 56.1299C251.384 56.1299 251.498 56.1719 251.588 56.2559C251.68 56.3398 251.726 56.4492 251.726 56.584C251.726 56.7168 251.681 56.8252 251.591 56.9092C251.501 56.9912 251.386 57.0322 251.245 57.0322C251.106 57.0322 250.992 56.9912 250.902 56.9092C250.812 56.8252 250.768 56.7168 250.768 56.584ZM250.768 54.1846C250.768 54.0498 250.812 53.9404 250.902 53.8564C250.994 53.7725 251.108 53.7305 251.245 53.7305C251.384 53.7305 251.498 53.7725 251.588 53.8564C251.68 53.9404 251.726 54.0498 251.726 54.1846C251.726 54.3174 251.681 54.4258 251.591 54.5098C251.501 54.5918 251.386 54.6328 251.245 54.6328C251.106 54.6328 250.992 54.5918 250.902 54.5098C250.812 54.4258 250.768 54.3174 250.768 54.1846Z" fill="black" fill-opacity="0.6"/>
<path d="M255.256 55.2363C255.256 55.8262 255.134 56.2773 254.89 56.5898C254.646 56.9023 254.288 57.0586 253.817 57.0586C253.353 57.0586 252.997 56.9053 252.751 56.5986C252.505 56.292 252.379 55.8525 252.373 55.2803V54.4951C252.373 53.8994 252.496 53.4473 252.742 53.1387C252.99 52.8301 253.347 52.6758 253.812 52.6758C254.276 52.6758 254.632 52.8291 254.878 53.1357C255.124 53.4404 255.25 53.8789 255.256 54.4512V55.2363ZM254.409 54.375C254.409 54.0215 254.36 53.7646 254.263 53.6045C254.167 53.4424 254.017 53.3613 253.812 53.3613C253.612 53.3613 253.465 53.4385 253.369 53.5928C253.275 53.7451 253.226 53.9844 253.22 54.3105V55.3477C253.22 55.6953 253.267 55.9541 253.36 56.124C253.456 56.292 253.608 56.376 253.817 56.376C254.024 56.376 254.174 56.2949 254.266 56.1328C254.357 55.9707 254.405 55.7227 254.409 55.3887V54.375Z" fill="black" fill-opacity="0.6"/>
<path d="M257.887 57H257.04V53.7363L256.029 54.0498V53.3613L257.796 52.7285H257.887V57Z" fill="black" fill-opacity="0.6"/>
<path fill-rule="evenodd" clip-rule="evenodd" d="M419.946 53.5437C421.281 53.5437 422.565 54.0568 423.533 54.9768C423.606 55.0478 423.722 55.0469 423.794 54.9748L424.491 54.2718C424.527 54.2352 424.547 54.1856 424.547 54.134C424.547 54.0825 424.526 54.0332 424.489 53.997C421.949 51.5629 417.942 51.5629 415.402 53.997C415.365 54.0331 415.345 54.0824 415.344 54.134C415.344 54.1856 415.364 54.2351 415.4 54.2718L416.097 54.9748C416.169 55.047 416.286 55.0479 416.358 54.9768C417.326 54.0567 418.611 53.5436 419.946 53.5437ZM419.946 55.8307C420.68 55.8306 421.387 56.1033 421.931 56.5958C422.004 56.6656 422.12 56.6641 422.192 56.5923L422.888 55.8893C422.924 55.8525 422.945 55.8024 422.944 55.7505C422.944 55.6985 422.922 55.6489 422.885 55.6127C421.229 54.0723 418.664 54.0723 417.008 55.6127C416.971 55.6489 416.95 55.6985 416.949 55.7505C416.949 55.8025 416.969 55.8525 417.006 55.8893L417.701 56.5923C417.773 56.6641 417.889 56.6656 417.963 56.5958C418.506 56.1036 419.213 55.831 419.946 55.8307ZM421.34 57.3694C421.341 57.4215 421.32 57.4718 421.283 57.5083L420.08 58.7229C420.044 58.7586 419.996 58.7787 419.946 58.7787C419.896 58.7787 419.848 58.7586 419.813 58.7229L418.609 57.5083C418.572 57.4717 418.551 57.4215 418.552 57.3693C418.553 57.3172 418.576 57.2678 418.615 57.2329C419.383 56.5828 420.509 56.5828 421.278 57.2329C421.316 57.2679 421.339 57.3172 421.34 57.3694Z" fill="black" fill-opacity="0.6"/>
<path fill-rule="evenodd" clip-rule="evenodd" d="M408.9 53.78H408.298C407.965 53.78 407.695 54.0498 407.695 54.3826V58.1989C407.695 58.5317 407.965 58.8015 408.298 58.8015H408.9C409.233 58.8015 409.503 58.5317 409.503 58.1989V54.3826C409.503 54.0498 409.233 53.78 408.9 53.78ZM405.486 55.1861H406.088C406.421 55.1861 406.691 55.4559 406.691 55.7887V58.199C406.691 58.5318 406.421 58.8016 406.088 58.8016H405.486C405.153 58.8016 404.883 58.5318 404.883 58.199V55.7887C404.883 55.4559 405.153 55.1861 405.486 55.1861ZM402.674 56.3908H403.276C403.609 56.3908 403.879 56.6606 403.879 56.9934V58.1985C403.879 58.5313 403.609 58.8011 403.276 58.8011H402.674C402.341 58.8011 402.071 58.5313 402.071 58.1985V56.9934C402.071 56.6606 402.341 56.3908 402.674 56.3908Z" fill="black" fill-opacity="0.6"/>
<path d="M411.11 52.374H411.713C412.046 52.374 412.316 52.6438 412.316 52.9766V58.1989C412.316 58.5317 412.046 58.8015 411.713 58.8015H411.11C410.778 58.8015 410.508 58.5317 410.508 58.1989V52.9766C410.508 52.6438 410.778 52.374 411.11 52.374V52.374Z" fill="#DADADA"/>
<rect opacity="0.35" x="427.761" y="52.25" width="12.7175" height="6.309" rx="0.75" stroke="black" stroke-width="0.5"/>
<path opacity="0.4" d="M441.329 54.2026V56.6058C441.813 56.4023 442.127 55.9288 442.127 55.4042C442.127 54.8797 441.813 54.4062 441.329 54.2026Z" fill="black" fill-opacity="0.6"/>
<rect x="428.712" y="53.2017" width="3.81" height="4.40583" rx="1" fill="black" fill-opacity="0.6"/>
<rect x="429" y="111" width="68" height="71" fill="white"/>
<path d="M456.483 158.257H454.796V160H453.917V155.734H456.694V156.446H454.796V157.548H456.483V158.257Z" fill="#505050"/>
<path d="M458.886 160C458.847 159.924 458.818 159.829 458.801 159.716C458.596 159.944 458.329 160.059 458.001 160.059C457.69 160.059 457.433 159.969 457.228 159.789C457.024 159.609 456.923 159.383 456.923 159.109C456.923 158.773 457.047 158.516 457.295 158.336C457.545 158.156 457.905 158.065 458.376 158.063H458.766V157.882C458.766 157.735 458.728 157.618 458.651 157.53C458.577 157.442 458.459 157.398 458.297 157.398C458.154 157.398 458.042 157.433 457.96 157.501C457.88 157.569 457.84 157.663 457.84 157.782H456.993C456.993 157.599 457.05 157.429 457.163 157.272C457.276 157.116 457.437 156.994 457.644 156.906C457.851 156.816 458.083 156.771 458.341 156.771C458.731 156.771 459.041 156.87 459.27 157.067C459.5 157.263 459.615 157.538 459.615 157.894V159.268C459.617 159.568 459.659 159.796 459.741 159.95V160H458.886ZM458.186 159.411C458.311 159.411 458.426 159.384 458.531 159.329C458.637 159.272 458.715 159.197 458.766 159.104V158.559H458.449C458.025 158.559 457.8 158.705 457.772 158.998L457.77 159.048C457.77 159.153 457.807 159.24 457.881 159.309C457.955 159.377 458.057 159.411 458.186 159.411Z" fill="#505050"/>
<path d="M461.584 159.376C461.74 159.376 461.867 159.333 461.965 159.247C462.062 159.161 462.113 159.047 462.117 158.904H462.911C462.909 159.119 462.851 159.316 462.735 159.496C462.62 159.674 462.462 159.812 462.261 159.912C462.062 160.01 461.841 160.059 461.599 160.059C461.146 160.059 460.788 159.915 460.526 159.628C460.265 159.339 460.134 158.94 460.134 158.433V158.377C460.134 157.889 460.264 157.499 460.523 157.208C460.783 156.917 461.14 156.771 461.593 156.771C461.989 156.771 462.307 156.885 462.545 157.111C462.785 157.336 462.907 157.636 462.911 158.011H462.117C462.113 157.847 462.062 157.714 461.965 157.612C461.867 157.509 461.738 157.457 461.578 157.457C461.381 157.457 461.231 157.529 461.13 157.674C461.03 157.816 460.98 158.049 460.98 158.371V158.459C460.98 158.785 461.03 159.02 461.13 159.162C461.229 159.305 461.381 159.376 461.584 159.376Z" fill="#505050"/>
<path d="M464.854 160.059C464.389 160.059 464.01 159.916 463.717 159.631C463.426 159.346 463.28 158.966 463.28 158.491V158.409C463.28 158.091 463.342 157.807 463.465 157.557C463.588 157.305 463.762 157.111 463.986 156.977C464.213 156.84 464.471 156.771 464.76 156.771C465.193 156.771 465.534 156.908 465.782 157.182C466.032 157.455 466.157 157.843 466.157 158.345V158.69H464.139C464.166 158.897 464.248 159.063 464.385 159.188C464.523 159.313 464.698 159.376 464.909 159.376C465.235 159.376 465.49 159.258 465.674 159.021L466.09 159.487C465.963 159.667 465.791 159.808 465.574 159.909C465.357 160.009 465.117 160.059 464.854 160.059ZM464.757 157.457C464.589 157.457 464.452 157.514 464.347 157.627C464.243 157.74 464.177 157.902 464.147 158.113H465.325V158.046C465.321 157.858 465.271 157.714 465.173 157.612C465.075 157.509 464.937 157.457 464.757 157.457Z" fill="#505050"/>
<path d="M469.125 160H468.246V155.734H469.125V160Z" fill="#505050"/>
<path d="M469.942 160V155.734H471.255C471.63 155.734 471.965 155.819 472.26 155.989C472.557 156.157 472.788 156.397 472.954 156.71C473.12 157.021 473.203 157.374 473.203 157.771V157.967C473.203 158.363 473.121 158.716 472.957 159.024C472.795 159.333 472.565 159.572 472.269 159.742C471.972 159.912 471.637 159.998 471.264 160H469.942ZM470.821 156.446V159.294H471.246C471.59 159.294 471.853 159.182 472.034 158.957C472.216 158.732 472.309 158.411 472.312 157.993V157.768C472.312 157.334 472.223 157.006 472.043 156.783C471.863 156.559 471.601 156.446 471.255 156.446H470.821Z" fill="#505050"/>
<circle cx="463.5" cy="140.5" r="10.15" stroke="#0051FF" stroke-width="0.7"/>
<path d="M462.856 143L460.064 140.476C460.021 140.429 459.998 140.37 460 140.309C460.003 140.248 460.031 140.19 460.078 140.147C460.126 140.104 460.19 140.079 460.257 140.076C460.325 140.074 460.391 140.095 460.442 140.134L462.85 142.314L467.558 138.058C467.609 138.019 467.675 137.998 467.743 138C467.81 138.003 467.874 138.028 467.922 138.071C467.969 138.114 467.997 138.172 468 138.233C468.002 138.294 467.979 138.353 467.936 138.4L462.856 143Z" fill="#0051FF"/>
<line x1="497.5" y1="162" x2="497.5" y2="111" stroke="#ABD4F2"/>
<line x1="429.5" y1="182" x2="429.5" y2="156" stroke="#ABD4F2"/>
<line x1="430" y1="110.5" x2="498" y2="110.5" stroke="#ABD4F2"/>
<line x1="430" y1="181.5" x2="456" y2="181.5" stroke="#ABD4F2"/>
<line x1="247" y1="364.75" x2="440" y2="364.75" stroke="#D5D5D5" stroke-width="0.5"/>
<rect x="361" y="382" width="13" height="10" fill="#E7F4FF"/>
<rect x="314" y="382" width="14" height="10" fill="#E7F4FF"/>
<rect x="407" y="382" width="13" height="10" fill="#E7F4FF"/>
<path fill-rule="evenodd" clip-rule="evenodd" d="M257.269 83.6411C257.579 83.3059 257.579 82.7625 257.269 82.4273L254.654 79.6011H262.266C262.704 79.6011 263.06 79.2168 263.06 78.7428C263.06 78.2688 262.704 77.8845 262.266 77.8845H254.654L257.269 75.0578C257.579 74.7226 257.579 74.1791 257.269 73.8439C256.959 73.5087 256.456 73.5087 256.146 73.8439L252.188 78.1223C252.037 78.2786 251.942 78.4988 251.942 78.7428C251.942 78.9914 252.04 79.2153 252.196 79.372L256.146 83.6411C256.456 83.9763 256.959 83.9763 257.269 83.6411Z" fill="#D3EBFE"/>
<line x1="454.5" y1="110" x2="454.5" y2="41" stroke="#ABD4F2"/>
<line x1="231.5" y1="410" x2="231.5" y2="319" stroke="#ABD4F2"/>
<line x1="455" y1="40.5" x2="379" y2="40.5" stroke="#ABD4F2"/>
<line x1="307" y1="410.5" x2="231" y2="410.5" stroke="#ABD4F2"/>
</svg>