<svg width="552" height="398" viewBox="0 0 552 398" fill="none" xmlns="http://www.w3.org/2000/svg">
<line x1="0.572984" y1="397.453" x2="242.225" y2="0.739901" stroke="#B3D3EF" stroke-opacity="0.25"/>
<line x1="153.62" y1="397.453" x2="395.272" y2="0.739901" stroke="#B3D3EF" stroke-opacity="0.25"/>
<line x1="134.488" y1="397.453" x2="376.14" y2="0.739901" stroke="#B3D3EF" stroke-opacity="0.25"/>
<line x1="96.2263" y1="397.453" x2="337.879" y2="0.739901" stroke="#B3D3EF" stroke-opacity="0.25"/>
<line x1="57.9656" y1="397.453" x2="299.618" y2="0.739901" stroke="#B3D3EF" stroke-opacity="0.25"/>
<line x1="19.7038" y1="397.453" x2="261.356" y2="0.739901" stroke="#B3D3EF" stroke-opacity="0.25"/>
<line x1="115.358" y1="397.453" x2="357.011" y2="0.739901" stroke="#B3D3EF" stroke-opacity="0.25"/>
<line x1="77.0964" y1="397.453" x2="318.749" y2="0.739901" stroke="#B3D3EF" stroke-opacity="0.25"/>
<line x1="38.8347" y1="397.453" x2="280.487" y2="0.739901" stroke="#B3D3EF" stroke-opacity="0.25"/>
<rect x="142" y="95" width="317" height="258" fill="white"/>
<line x1="142.871" y1="95" x2="142.871" y2="214" stroke="#ABD4F2"/>
<line x1="172.871" y1="125" x2="172.871" y2="287" stroke="#ABD4F2"/>
<line x1="322.371" y1="353.5" x2="459.371" y2="353.5" stroke="#ABD4F2"/>
<line x1="364.371" y1="329.5" x2="433.371" y2="329.5" stroke="#ABD4F2"/>
<line x1="459.371" y1="170.5" x2="538.371" y2="170.5" stroke="#0051FF"/>
<line x1="172.371" y1="124.5" x2="267.371" y2="124.5" stroke="#ABD4F2"/>
<line x1="142.371" y1="94.5" x2="459.371" y2="94.5" stroke="#ABD4F2"/>
<path d="M233.871 254.5H393.871V275.5H233.871V254.5Z" stroke="#D8EBFB"/>
<line x1="459.871" y1="94" x2="459.871" y2="354" stroke="#ABD4F2"/>
<line x1="433.871" y1="274" x2="433.871" y2="330" stroke="#ABD4F2"/>
<line x1="538.871" y1="58" x2="538.871" y2="171" stroke="#0051FF"/>
<line x1="498.871" y1="120" x2="498.871" y2="170" stroke="#ABD4F2"/>
<rect width="3.81297" height="12.3922" transform="matrix(0.713528 -0.700626 0.713528 0.700626 286.533 177.686)" fill="#ABD4F2"/>
<rect width="3.81297" height="12.3922" transform="matrix(-0.713528 -0.700626 0.713528 -0.700626 289.254 228.444)" fill="#ABD4F2"/>
<rect width="3.81297" height="12.3922" transform="matrix(0.713528 -0.700626 0.713528 0.700626 329.384 219.762)" fill="#ABD4F2"/>
<rect width="3.81297" height="12.3922" transform="matrix(-0.713528 -0.700626 0.713528 -0.700626 332.104 186.368)" fill="#ABD4F2"/>
<circle r="24.2843" transform="matrix(0.713528 -0.700626 0.713528 0.700626 313.74 201.729)" stroke="#ABD4F2"/>
<rect x="168.371" y="179" width="8" height="26" fill="#DFF1FF"/>
<rect x="168.371" y="243" width="8" height="26" fill="#DFF1FF"/>
<path d="M250.203 264.833L248.516 264.355L248.833 263.383L250.503 264.054L250.396 262.18H251.449L251.341 264.092L252.969 263.431L253.286 264.414L251.567 264.892L252.695 266.321L251.841 266.928L250.863 265.359L249.896 266.874L249.042 266.294L250.203 264.833ZM260.687 264.833L259 264.355L259.317 263.383L260.988 264.054L260.88 262.18H261.933L261.826 264.092L263.453 263.431L263.77 264.414L262.051 264.892L263.179 266.321L262.325 266.928L261.348 265.359L260.381 266.874L259.527 266.294L260.687 264.833ZM271.171 264.833L269.485 264.355L269.802 263.383L271.472 264.054L271.365 262.18H272.417L272.31 264.092L273.938 263.431L274.254 264.414L272.536 264.892L273.664 266.321L272.81 266.928L271.832 265.359L270.865 266.874L270.011 266.294L271.171 264.833ZM281.656 264.833L279.969 264.355L280.286 263.383L281.957 264.054L281.849 262.18H282.902L282.794 264.092L284.422 263.431L284.739 264.414L283.02 264.892L284.148 266.321L283.294 266.928L282.316 265.359L281.35 266.874L280.496 266.294L281.656 264.833ZM292.14 264.833L290.454 264.355L290.771 263.383L292.441 264.054L292.333 262.18H293.386L293.279 264.092L294.906 263.431L295.223 264.414L293.504 264.892L294.632 266.321L293.778 266.928L292.801 265.359L291.834 266.874L290.98 266.294L292.14 264.833ZM302.625 264.833L300.938 264.355L301.255 263.383L302.925 264.054L302.818 262.18H303.871L303.763 264.092L305.391 263.431L305.708 264.414L303.989 264.892L305.117 266.321L304.263 266.928L303.285 265.359L302.318 266.874L301.464 266.294L302.625 264.833ZM313.109 264.833L311.422 264.355L311.739 263.383L313.41 264.054L313.302 262.18H314.355L314.248 264.092L315.875 263.431L316.192 264.414L314.473 264.892L315.601 266.321L314.747 266.928L313.77 265.359L312.803 266.874L311.949 266.294L313.109 264.833ZM323.593 264.833L321.907 264.355L322.224 263.383L323.894 264.054L323.787 262.18H324.839L324.732 264.092L326.359 263.431L326.676 264.414L324.958 264.892L326.085 266.321L325.231 266.928L324.254 265.359L323.287 266.874L322.433 266.294L323.593 264.833ZM334.078 264.833L332.391 264.355L332.708 263.383L334.378 264.054L334.271 262.18H335.324L335.216 264.092L336.844 263.431L337.161 264.414L335.442 264.892L336.57 266.321L335.716 266.928L334.738 265.359L333.771 266.874L332.917 266.294L334.078 264.833ZM344.562 264.833L342.875 264.355L343.192 263.383L344.863 264.054L344.755 262.18H345.808L345.701 264.092L347.328 263.431L347.645 264.414L345.926 264.892L347.054 266.321L346.2 266.928L345.223 265.359L344.256 266.874L343.402 266.294L344.562 264.833ZM355.046 264.833L353.36 264.355L353.677 263.383L355.347 264.054L355.24 262.18H356.292L356.185 264.092L357.812 263.431L358.129 264.414L356.411 264.892L357.539 266.321L356.685 266.928L355.707 265.359L354.74 266.874L353.886 266.294L355.046 264.833ZM365.531 264.833L363.844 264.355L364.161 263.383L365.832 264.054L365.724 262.18H366.777L366.669 264.092L368.297 263.431L368.614 264.414L366.895 264.892L368.023 266.321L367.169 266.928L366.191 265.359L365.225 266.874L364.371 266.294L365.531 264.833ZM376.015 264.833L374.329 264.355L374.646 263.383L376.316 264.054L376.208 262.18H377.261L377.154 264.092L378.781 263.431L379.098 264.414L377.379 264.892L378.507 266.321L377.653 266.928L376.676 265.359L375.709 266.874L374.855 266.294L376.015 264.833Z" fill="#0051FF"/>
<path d="M548.594 41.4167H547.899V37.25C547.899 37.0658 547.826 36.8892 547.696 36.7589C547.566 36.6287 547.389 36.5555 547.205 36.5555H530.538C530.374 36.5582 530.214 36.5025 530.087 36.3982C529.959 36.2939 529.873 36.1479 529.844 35.9861V35.7361C529.873 35.5743 529.959 35.4283 530.087 35.324C530.214 35.2197 530.374 35.164 530.538 35.1667H546.913C547.097 35.1667 547.274 35.0935 547.404 34.9633C547.534 34.833 547.608 34.6564 547.608 34.4722C547.608 34.288 547.534 34.1114 547.404 33.9812C547.274 33.8509 547.097 33.7778 546.913 33.7778H530.538C529.986 33.7778 529.456 33.9973 529.065 34.388C528.674 34.7787 528.455 35.3086 528.455 35.8611C528.45 35.9444 528.45 36.0278 528.455 36.1111V50.3958C528.458 50.7697 528.534 51.1394 528.68 51.4838C528.825 51.8282 529.037 52.1406 529.303 52.403C529.57 52.6655 529.885 52.8729 530.232 53.0135C530.578 53.154 530.949 53.225 531.323 53.2222H547.205C547.389 53.2222 547.566 53.1491 547.696 53.0188C547.826 52.8886 547.899 52.7119 547.899 52.5278V48.3611H548.594C548.778 48.3611 548.955 48.2879 549.085 48.1577C549.215 48.0275 549.288 47.8508 549.288 47.6667V42.1111C549.288 41.9269 549.215 41.7503 549.085 41.6201C548.955 41.4898 548.778 41.4167 548.594 41.4167ZM546.51 51.8333H531.323C530.937 51.8371 530.565 51.6881 530.288 51.4189C530.011 51.1497 529.851 50.782 529.844 50.3958V37.8611C530.069 37.9264 530.304 37.9546 530.538 37.9444H546.51V41.4167H541.649C540.728 41.4167 539.845 41.7825 539.194 42.4336C538.543 43.0848 538.177 43.968 538.177 44.8889C538.177 45.8098 538.543 46.6929 539.194 47.3441C539.845 47.9953 540.728 48.3611 541.649 48.3611H546.51V51.8333ZM547.899 46.9722H541.649C541.097 46.9722 540.567 46.7527 540.176 46.362C539.785 45.9713 539.566 45.4414 539.566 44.8889C539.566 44.3363 539.785 43.8064 540.176 43.4157C540.567 43.025 541.097 42.8055 541.649 42.8055H547.899V46.9722Z" fill="#0051FF"/>
<path d="M542.35 45.9306C542.926 45.9306 543.392 45.4642 543.392 44.8889C543.392 44.3136 542.926 43.8472 542.35 43.8472C541.775 43.8472 541.309 44.3136 541.309 44.8889C541.309 45.4642 541.775 45.9306 542.35 45.9306Z" fill="#0051FF"/>
<path d="M494.712 94.4844C493.224 94.8945 491.746 95.3405 490.279 95.8219C490.145 95.8653 490.026 95.9454 489.935 96.0531C489.845 96.1609 489.786 96.2919 489.766 96.4312C488.901 102.927 490.901 107.666 493.287 110.788C494.297 112.122 495.501 113.299 496.86 114.277C497.401 114.658 497.879 114.933 498.255 115.109C498.443 115.198 498.596 115.258 498.713 115.294C498.765 115.312 498.817 115.325 498.871 115.333C498.924 115.324 498.976 115.311 499.027 115.294C499.146 115.258 499.299 115.198 499.487 115.109C499.862 114.933 500.341 114.656 500.882 114.277C502.241 113.299 503.445 112.122 504.455 110.788C506.841 107.667 508.841 102.927 507.976 96.4312C507.956 96.2918 507.898 96.1607 507.807 96.0529C507.716 95.9452 507.597 95.8651 507.463 95.8219C506.446 95.4891 504.729 94.9469 503.03 94.4859C501.296 94.0156 499.701 93.6672 498.871 93.6672C498.043 93.6672 496.446 94.0156 494.712 94.4859V94.4844ZM494.296 92.875C495.991 92.4141 497.793 92 498.871 92C499.949 92 501.751 92.4141 503.446 92.875C505.18 93.3438 506.929 93.8984 507.957 94.2344C508.387 94.3763 508.768 94.6367 509.057 94.9855C509.345 95.3343 509.529 95.7574 509.588 96.2062C510.52 103.202 508.359 108.386 505.737 111.816C504.625 113.283 503.299 114.575 501.804 115.648C501.287 116.02 500.739 116.347 500.166 116.625C499.729 116.831 499.259 117 498.871 117C498.484 117 498.015 116.831 497.576 116.625C497.003 116.347 496.455 116.02 495.938 115.648C494.443 114.575 493.117 113.283 492.005 111.816C489.384 108.386 487.223 103.202 488.154 96.2062C488.213 95.7574 488.397 95.3343 488.686 94.9855C488.974 94.6367 489.355 94.3763 489.785 94.2344C491.278 93.745 492.782 93.2918 494.296 92.875V92.875Z" fill="#B9D9F3"/>
<path d="M503.33 100.041C503.403 100.113 503.461 100.199 503.5 100.294C503.54 100.389 503.56 100.491 503.56 100.594C503.56 100.697 503.54 100.798 503.5 100.893C503.461 100.988 503.403 101.074 503.33 101.147L498.643 105.834C498.57 105.907 498.484 105.965 498.389 106.004C498.294 106.044 498.193 106.064 498.09 106.064C497.987 106.064 497.885 106.044 497.79 106.004C497.696 105.965 497.609 105.907 497.537 105.834L495.193 103.491C495.12 103.418 495.063 103.332 495.023 103.237C494.984 103.142 494.964 103.04 494.964 102.937C494.964 102.835 494.984 102.733 495.023 102.638C495.063 102.543 495.12 102.457 495.193 102.384C495.266 102.312 495.352 102.254 495.447 102.215C495.542 102.175 495.643 102.155 495.746 102.155C495.849 102.155 495.951 102.175 496.045 102.215C496.14 102.254 496.227 102.312 496.299 102.384L498.09 104.177L502.224 100.041C502.297 99.9679 502.383 99.9101 502.478 99.8708C502.573 99.8314 502.675 99.8111 502.777 99.8111C502.88 99.8111 502.982 99.8314 503.077 99.8708C503.172 99.9101 503.258 99.9679 503.33 100.041V100.041Z" fill="#B9D9F3"/>
</svg>