<svg width="431" height="434" viewBox="0 0 431 434" fill="none" xmlns="http://www.w3.org/2000/svg">
<line x1="0.572984" y1="432.933" x2="263.838" y2="0.739891" stroke="#B3D3EF" stroke-opacity="0.25"/>
<line x1="167.308" y1="432.933" x2="430.573" y2="0.739891" stroke="#B3D3EF" stroke-opacity="0.25"/>
<line x1="146.465" y1="432.933" x2="409.73" y2="0.739891" stroke="#B3D3EF" stroke-opacity="0.25"/>
<line x1="104.781" y1="432.933" x2="368.046" y2="0.739891" stroke="#B3D3EF" stroke-opacity="0.25"/>
<line x1="63.0984" y1="432.933" x2="326.364" y2="0.739891" stroke="#B3D3EF" stroke-opacity="0.25"/>
<line x1="21.4148" y1="432.933" x2="284.68" y2="0.739891" stroke="#B3D3EF" stroke-opacity="0.25"/>
<line x1="125.624" y1="432.933" x2="388.889" y2="0.739891" stroke="#B3D3EF" stroke-opacity="0.25"/>
<line x1="83.9402" y1="432.933" x2="347.205" y2="0.739891" stroke="#B3D3EF" stroke-opacity="0.25"/>
<line x1="42.2566" y1="432.933" x2="305.522" y2="0.739891" stroke="#B3D3EF" stroke-opacity="0.25"/>
<rect x="96.8574" y="31" width="222.339" height="369.105" fill="white"/>
<path d="M192.563 188.154L193.424 183.602H194.738L193.319 190H191.992L190.95 185.72L189.909 190H188.582L187.162 183.602H188.476L189.342 188.146L190.396 183.602H191.513L192.563 188.154Z" fill="#0051FF"/>
<path d="M200.662 190H199.344V187.258H196.773V190H195.455V183.602H196.773V186.194H199.344V183.602H200.662V190Z" fill="#0051FF"/>
<path d="M203.22 190H201.901V183.602H203.22V190Z" fill="#0051FF"/>
<path d="M209.13 184.669H207.17V190H205.852V184.669H203.918V183.602H209.13V184.669Z" fill="#0051FF"/>
<path d="M213.736 187.227H211.205V188.941H214.175V190H209.886V183.602H214.167V184.669H211.205V186.194H213.736V187.227Z" fill="#0051FF"/>
<path d="M216.267 188.941H219.066V190H214.949V183.602H216.267V188.941Z" fill="#0051FF"/>
<path d="M221.229 190H219.91V183.602H221.229V190Z" fill="#0051FF"/>
<path d="M225.772 188.321C225.772 188.072 225.685 187.882 225.509 187.75C225.333 187.615 225.017 187.475 224.56 187.328C224.103 187.179 223.741 187.032 223.474 186.889C222.748 186.496 222.384 185.967 222.384 185.302C222.384 184.957 222.481 184.649 222.674 184.379C222.871 184.107 223.15 183.895 223.514 183.742C223.88 183.59 224.29 183.514 224.744 183.514C225.201 183.514 225.608 183.597 225.966 183.764C226.323 183.928 226.6 184.161 226.796 184.463C226.996 184.765 227.095 185.107 227.095 185.491H225.777C225.777 185.198 225.685 184.971 225.5 184.81C225.315 184.646 225.056 184.564 224.722 184.564C224.4 184.564 224.149 184.633 223.971 184.771C223.792 184.905 223.703 185.084 223.703 185.307C223.703 185.515 223.807 185.689 224.015 185.83C224.226 185.97 224.535 186.102 224.942 186.225C225.692 186.451 226.238 186.73 226.581 187.064C226.924 187.398 227.095 187.814 227.095 188.312C227.095 188.866 226.886 189.301 226.467 189.618C226.048 189.931 225.484 190.088 224.775 190.088C224.283 190.088 223.834 189.999 223.43 189.82C223.026 189.638 222.717 189.391 222.503 189.077C222.292 188.764 222.187 188.4 222.187 187.987H223.509C223.509 188.693 223.931 189.046 224.775 189.046C225.088 189.046 225.333 188.983 225.509 188.857C225.685 188.729 225.772 188.55 225.772 188.321Z" fill="#0051FF"/>
<path d="M232.808 184.669H230.848V190H229.53V184.669H227.596V183.602H232.808V184.669Z" fill="#0051FF"/>
<rect x="153" y="364" width="137" height="7" fill="#DAEDFC" fill-opacity="0.45"/>
<rect x="153" y="321" width="137" height="7" fill="#DAEDFC" fill-opacity="0.45"/>
<path d="M174.096 88.7085L178.127 146.427L214.498 143.901L210.467 86.1824L174.096 88.7085Z" fill="#B3D3EF" fill-opacity="0.3"/>
<path d="M215.526 84.1551L195.254 138.33L229.397 151.133L249.669 96.9585L215.526 84.1551Z" fill="#B3D3EF" fill-opacity="0.3"/>
<path d="M230.908 111.28C230.714 110.572 230.26 109.977 229.548 109.496C230.746 109.252 231.522 108.412 231.876 106.974C232.007 106.454 232.034 105.973 231.955 105.532C231.877 105.09 231.702 104.697 231.429 104.352C231.157 104.007 230.836 103.705 230.467 103.447C230.098 103.189 229.657 102.943 229.145 102.71L230.13 99.8091L228.579 99.2824L227.621 102.102C227.353 102.011 226.941 101.88 226.385 101.708L227.35 98.8652L225.799 98.3385L224.814 101.239C224.59 101.171 224.263 101.065 223.834 100.919L221.703 100.182L221.062 102.07L222.179 102.449C222.69 102.623 222.9 102.985 222.81 103.537L221.688 106.84C221.755 106.863 221.808 106.885 221.845 106.906L221.684 106.852L220.113 111.478C219.926 111.851 219.665 111.981 219.33 111.867L218.212 111.487L217.184 113.488L219.198 114.172C219.326 114.215 219.51 114.28 219.751 114.365C219.991 114.451 220.171 114.515 220.292 114.556L219.296 117.491L220.847 118.017L221.832 115.117C222.111 115.221 222.519 115.363 223.057 115.546L222.076 118.435L223.626 118.961L224.623 116.026C225.184 116.183 225.692 116.291 226.147 116.351C226.602 116.411 227.055 116.418 227.505 116.37C227.956 116.322 228.358 116.208 228.711 116.028C229.064 115.849 229.396 115.58 229.708 115.224C230.02 114.868 230.292 114.425 230.524 113.896C230.974 112.86 231.102 111.987 230.908 111.28ZM225.712 103.79C225.759 103.806 225.892 103.849 226.112 103.919C226.331 103.989 226.514 104.047 226.659 104.092C226.805 104.137 226.996 104.213 227.234 104.319C227.471 104.426 227.667 104.527 227.822 104.622C227.977 104.717 228.14 104.843 228.311 105C228.483 105.156 228.607 105.319 228.685 105.486C228.763 105.654 228.811 105.85 228.828 106.074C228.846 106.298 228.811 106.537 228.725 106.79C228.652 107.005 228.556 107.19 228.435 107.346C228.315 107.502 228.174 107.619 228.013 107.697C227.852 107.775 227.692 107.837 227.535 107.881C227.377 107.926 227.19 107.942 226.974 107.928C226.758 107.915 226.571 107.898 226.413 107.879C226.255 107.859 226.063 107.818 225.837 107.754C225.612 107.69 225.441 107.641 225.326 107.606C225.21 107.571 225.054 107.518 224.857 107.447C224.661 107.376 224.546 107.335 224.512 107.323L225.712 103.79L225.712 103.79L225.712 103.79ZM227.285 113.066C227.161 113.221 227.027 113.347 226.882 113.443C226.737 113.539 226.565 113.609 226.367 113.653C226.169 113.697 225.982 113.723 225.806 113.732C225.631 113.741 225.427 113.732 225.193 113.704C224.959 113.676 224.756 113.643 224.585 113.606C224.414 113.57 224.213 113.518 223.981 113.453C223.748 113.386 223.568 113.332 223.441 113.288C223.313 113.245 223.153 113.188 222.959 113.118C222.766 113.049 222.642 113.005 222.589 112.986L223.91 109.096C223.963 109.114 224.124 109.164 224.392 109.247C224.66 109.329 224.878 109.399 225.046 109.456C225.213 109.513 225.441 109.603 225.729 109.726C226.016 109.85 226.253 109.968 226.439 110.083C226.625 110.197 226.82 110.343 227.026 110.52C227.232 110.697 227.386 110.879 227.486 111.068C227.587 111.256 227.651 111.474 227.679 111.724C227.707 111.973 227.674 112.235 227.58 112.512C227.507 112.727 227.409 112.911 227.285 113.066Z" fill="white"/>
<g clip-path="url(#clip0)">
<path d="M191.267 110.78L186.033 108.036L191.381 118.326L196.416 107.879L191.267 110.78Z" fill="white"/>
<path d="M195.819 105.785L191.054 96.672L186.562 105.935L191.155 103.354L195.819 105.785Z" fill="white"/>
<path d="M186.981 107.121L191.245 109.346L195.448 106.989L191.176 104.763L186.981 107.121Z" fill="white"/>
</g>
<rect x="152" y="280" width="137" height="7" fill="#DAEDFC" fill-opacity="0.45"/>
<rect x="152" y="239" width="137" height="7" fill="#DAEDFC" fill-opacity="0.45"/>
<line x1="318.5" y1="399.905" x2="318.5" y2="289.905" stroke="#ABD4F2"/>
<line x1="97.5" y1="31" x2="97.5" y2="101" stroke="#ABD4F2"/>
<line x1="319" y1="400.405" x2="243" y2="400.405" stroke="#ABD4F2"/>
<line x1="97" y1="30.5" x2="173" y2="30.5" stroke="#ABD4F2"/>
<path d="M122.125 236.125V249.875H135.875V236.125H122.125ZM123.375 237.375H134.625V248.625H123.375V237.375ZM132.301 240.051L127.75 244.601L125.699 242.551L124.801 243.449L127.301 245.949L127.75 246.379L128.199 245.949L133.199 240.949L132.301 240.051Z" fill="#0051FF"/>
<path d="M122.125 277.125V290.875H135.875V277.125H122.125ZM123.375 278.375H134.625V289.625H123.375V278.375ZM132.301 281.051L127.75 285.601L125.699 283.551L124.801 284.449L127.301 286.949L127.75 287.379L128.199 286.949L133.199 281.949L132.301 281.051Z" fill="#0051FF"/>
<path d="M122.125 318.125V331.875H135.875V318.125H122.125ZM123.375 319.375H134.625V330.625H123.375V319.375ZM132.301 322.051L127.75 326.601L125.699 324.551L124.801 325.449L127.301 327.949L127.75 328.379L128.199 327.949L133.199 322.949L132.301 322.051Z" fill="#0051FF"/>
<path d="M122.125 359.125V372.875H135.875V359.125H122.125ZM123.375 360.375H134.625V371.625H123.375V360.375ZM132.301 363.051L127.75 367.601L125.699 365.551L124.801 366.449L127.301 368.949L127.75 369.379L128.199 368.949L133.199 363.949L132.301 363.051Z" fill="#0051FF"/>
<line x1="128" y1="101.5" x2="44" y2="101.5" stroke="#ABD4F2"/>
<rect x="44" y="102" width="114" height="119" fill="white"/>
<line x1="44.5" y1="134" x2="44.5" y2="101" stroke="#ABD4F2"/>
<line x1="157.5" y1="221" x2="157.5" y2="159" stroke="#ABD4F2"/>
<line x1="158" y1="221.5" x2="73" y2="221.5" stroke="#ABD4F2"/>
<line x1="67.5" y1="148" x2="67.5" y2="177" stroke="#ABD4F2"/>
<line x1="67" y1="147.5" x2="133" y2="147.5" stroke="#ABD4F2"/>
<line x1="133.5" y1="197" x2="133.5" y2="176" stroke="#ABD4F2"/>
<line x1="134" y1="197.5" x2="86" y2="197.5" stroke="#ABD4F2"/>
<path d="M81 148C81 148 81 127 99 127C117 127 117 148 117 148" stroke="#ABD4F2"/>
<rect x="68" y="148" width="65" height="49" fill="white"/>
<g clip-path="url(#clip1)">
<path d="M96.0019 166.358C95.4927 166.867 95.1098 167.488 94.8838 168.172C94.6579 168.856 94.5953 169.583 94.7009 170.295C94.8066 171.007 95.0776 171.685 95.4922 172.273C95.9069 172.862 96.4536 173.345 97.0887 173.684V181.21L99.2622 183.384L101.436 181.21V173.684C102.02 173.372 102.531 172.937 102.932 172.41C103.333 171.883 103.616 171.275 103.762 170.628C103.907 169.982 103.911 169.311 103.774 168.663C103.636 168.014 103.361 167.403 102.966 166.871C102.571 166.339 102.066 165.898 101.486 165.578C100.905 165.259 100.262 165.068 99.6015 165.019C98.9406 164.971 98.2769 165.065 97.6557 165.296C97.0345 165.527 96.4704 165.889 96.0019 166.358V166.358ZM101.798 172.154C101.548 172.403 101.264 172.615 100.952 172.781L100.411 173.07L100.411 173.684L100.411 175.989L99.4121 175.989V177.013H100.411L100.411 178.163L99.4121 178.163V179.187H100.411L100.411 180.786L99.2622 181.935L98.1131 180.786L98.1131 173.684L98.1135 173.07L97.5719 172.781C96.9067 172.425 96.3705 171.869 96.0396 171.191C95.7088 170.513 95.6001 169.748 95.7291 169.005C95.8581 168.262 96.2181 167.578 96.758 167.051C97.2979 166.525 97.9902 166.182 98.7363 166.071C99.4825 165.96 100.245 166.088 100.914 166.435C101.584 166.783 102.127 167.332 102.466 168.006C102.805 168.68 102.923 169.443 102.803 170.188C102.683 170.933 102.331 171.621 101.798 172.154V172.154Z" fill="#0051FF"/>
<path d="M99.987 169.618C100.387 169.218 100.387 168.57 99.987 168.169C99.5869 167.769 98.9381 167.769 98.538 168.169C98.1378 168.57 98.1378 169.218 98.538 169.618C98.9381 170.019 99.5869 170.019 99.987 169.618Z" fill="#0051FF"/>
</g>
<defs>
<clipPath id="clip0">
<rect width="18.9494" height="21.6564" fill="white" transform="translate(185.515 97.9272) rotate(-0.865025)"/>
</clipPath>
<clipPath id="clip1">
<rect width="16.3936" height="16.3936" fill="white" transform="translate(87.6699 173.241) rotate(-45)"/>
</clipPath>
</defs>
</svg>